<ttFont>
<head>
    <!-- Most of this table will be recalculated by the compiler -->
    <tableVersion value="1.0"/>
    <fontRevision value="1.003"/>
    <checkSumAdjustment value="0xd27dfbf3"/>
    <magicNumber value="0x5f0f3cf5"/>
    <flags value="00000000 00011001"/>
    <unitsPerEm value="1000"/>
    <created value="Fri Feb  4 00:11:32 2011"/>
    <modified value="Fri Feb  4 00:11:56 2011"/>
    <xMin value="-29"/>
    <yMin value="-376"/>
    <xMax value="1466"/>
    <yMax value="815"/>
    <macStyle value="00000000 00000000"/>
    <lowestRecPPEM value="9"/>
    <fontDirectionHint value="2"/>
    <indexToLocFormat value="0"/>
    <glyphDataFormat value="0"/>
  </head>
    <TTGlyph name="A" xMin="61" yMin="-135" xMax="1217" yMax="704">
      <contour>
        <pt x="911" y="-135" on="1"/>
        <pt x="951" y="-81" on="0"/>
        <pt x="999" y="35" on="0"/>
        <pt x="1027" y="152" on="0"/>
        <pt x="1045" y="266" on="0"/>
        <pt x="1056" y="319" on="1"/>
        <pt x="1065" y="358" on="0"/>
        <pt x="1086" y="457" on="0"/>
        <pt x="1121" y="560" on="0"/>
        <pt x="1175" y="662" on="0"/>
        <pt x="1217" y="704" on="1"/>
        <pt x="1154" y="696" on="0"/>
        <pt x="1059" y="660" on="0"/>
        <pt x="982" y="604" on="0"/>
        <pt x="916" y="531" on="0"/>
        <pt x="882" y="487" on="1"/>
        <pt x="848" y="442" on="0"/>
        <pt x="803" y="344" on="0"/>
        <pt x="764" y="248" on="0"/>
        <pt x="722" y="157" on="0"/>
        <pt x="692" y="120" on="1"/>
        <pt x="631" y="46" on="0"/>
        <pt x="437" y="-13" on="0"/>
        <pt x="311" y="-13" on="1"/>
        <pt x="184" y="-13" on="0"/>
        <pt x="61" y="40" on="0"/>
        <pt x="63" y="79" on="1"/>
        <pt x="64" y="98" on="0"/>
        <pt x="111" y="164" on="0"/>
        <pt x="213" y="229" on="0"/>
        <pt x="374" y="280" on="0"/>
        <pt x="488" y="283" on="1"/>
        <pt x="602" y="287" on="0"/>
        <pt x="745" y="283" on="0"/>
        <pt x="834" y="275" on="0"/>
        <pt x="883" y="266" on="0"/>
        <pt x="903" y="265" on="1"/>
        <pt x="922" y="264" on="0"/>
        <pt x="1000" y="253" on="0"/>
        <pt x="1090" y="242" on="0"/>
        <pt x="1177" y="237" on="0"/>
        <pt x="1207" y="242" on="1"/>
        <pt x="1177" y="237" on="0"/>
        <pt x="1090" y="242" on="0"/>
        <pt x="1000" y="253" on="0"/>
        <pt x="922" y="264" on="0"/>
        <pt x="903" y="265" on="1"/>
        <pt x="883" y="266" on="0"/>
        <pt x="834" y="275" on="0"/>
        <pt x="745" y="283" on="0"/>
        <pt x="602" y="287" on="0"/>
        <pt x="488" y="283" on="1"/>
        <pt x="374" y="280" on="0"/>
        <pt x="213" y="229" on="0"/>
        <pt x="111" y="164" on="0"/>
        <pt x="64" y="98" on="0"/>
        <pt x="63" y="79" on="1"/>
        <pt x="61" y="40" on="0"/>
        <pt x="184" y="-13" on="0"/>
        <pt x="311" y="-13" on="1"/>
        <pt x="437" y="-13" on="0"/>
        <pt x="631" y="46" on="0"/>
        <pt x="692" y="120" on="1"/>
        <pt x="722" y="157" on="0"/>
        <pt x="764" y="248" on="0"/>
        <pt x="803" y="344" on="0"/>
        <pt x="848" y="442" on="0"/>
        <pt x="882" y="487" on="1"/>
        <pt x="916" y="531" on="0"/>
        <pt x="982" y="604" on="0"/>
        <pt x="1059" y="660" on="0"/>
        <pt x="1154" y="696" on="0"/>
        <pt x="1217" y="704" on="1"/>
        <pt x="1175" y="662" on="0"/>
        <pt x="1121" y="560" on="0"/>
        <pt x="1086" y="456" on="0"/>
        <pt x="1065" y="358" on="0"/>
        <pt x="1056" y="319" on="1"/>
        <pt x="1045" y="266" on="0"/>
        <pt x="1027" y="152" on="0"/>
        <pt x="999" y="35" on="0"/>
        <pt x="951" y="-81" on="0"/>
      </contour>
    </TTGlyph>
    <TTGlyph name="B" xMin="108" yMin="-24" xMax="919" yMax="710">
      <contour>
        <pt x="242" y="-1" on="1"/>
        <pt x="362" y="-3" on="0"/>
        <pt x="585" y="1" on="0"/>
        <pt x="672" y="-1" on="1"/>
        <pt x="715" y="-3" on="0"/>
        <pt x="798" y="6" on="0"/>
        <pt x="862" y="35" on="0"/>
        <pt x="902" y="91" on="0"/>
        <pt x="902" y="137" on="1"/>
        <pt x="902" y="183" on="0"/>
        <pt x="873" y="262" on="0"/>
        <pt x="791" y="319" on="0"/>
        <pt x="644" y="349" on="0"/>
        <pt x="526" y="348" on="1"/>
        <pt x="604" y="354" on="0"/>
        <pt x="746" y="381" on="0"/>
        <pt x="854" y="431" on="0"/>
        <pt x="919" y="504" on="0"/>
        <pt x="919" y="555" on="1"/>
        <pt x="919" y="606" on="0"/>
        <pt x="865" y="668" on="0"/>
        <pt x="784" y="701" on="0"/>
        <pt x="690" y="710" on="0"/>
        <pt x="650" y="709" on="1"/>
        <pt x="611" y="708" on="0"/>
        <pt x="508" y="697" on="0"/>
        <pt x="404" y="677" on="0"/>
        <pt x="307" y="646" on="0"/>
        <pt x="274" y="624" on="1"/>
        <pt x="257" y="613" on="0"/>
        <pt x="239" y="577" on="0"/>
        <pt x="233" y="533" on="0"/>
        <pt x="236" y="484" on="0"/>
        <pt x="240" y="460" on="1"/>
        <pt x="250" y="404" on="0"/>
        <pt x="272" y="340" on="1"/>
        <pt x="250" y="404" on="0"/>
        <pt x="240" y="460" on="1"/>
        <pt x="236" y="484" on="0"/>
        <pt x="233" y="533" on="0"/>
        <pt x="239" y="577" on="0"/>
        <pt x="257" y="613" on="0"/>
        <pt x="274" y="624" on="1"/>
        <pt x="307" y="646" on="0"/>
        <pt x="404" y="677" on="0"/>
        <pt x="508" y="697" on="0"/>
        <pt x="611" y="708" on="0"/>
        <pt x="650" y="709" on="1"/>
        <pt x="690" y="710" on="0"/>
        <pt x="784" y="701" on="0"/>
        <pt x="865" y="668" on="0"/>
        <pt x="919" y="606" on="0"/>
        <pt x="919" y="555" on="1"/>
        <pt x="919" y="504" on="0"/>
        <pt x="854" y="431" on="0"/>
        <pt x="746" y="381" on="0"/>
        <pt x="604" y="354" on="0"/>
        <pt x="526" y="348" on="1"/>
        <pt x="644" y="349" on="0"/>
        <pt x="791" y="319" on="0"/>
        <pt x="873" y="262" on="0"/>
        <pt x="902" y="183" on="0"/>
        <pt x="902" y="137" on="1"/>
        <pt x="902" y="91" on="0"/>
        <pt x="862" y="35" on="0"/>
        <pt x="798" y="6" on="0"/>
        <pt x="715" y="-3" on="0"/>
        <pt x="672" y="-1" on="1"/>
        <pt x="585" y="1" on="0"/>
        <pt x="362" y="-3" on="0"/>
      </contour>
      <contour>
        <pt x="108" y="-24" on="1"/>
        <pt x="131" y="-9" on="0"/>
        <pt x="202" y="-2" on="0"/>
        <pt x="240" y="0" on="1"/>
        <pt x="269" y="1" on="0"/>
        <pt x="328" y="39" on="0"/>
        <pt x="377" y="102" on="0"/>
        <pt x="412" y="184" on="0"/>
        <pt x="417" y="229" on="1"/>
        <pt x="427" y="326" on="0"/>
        <pt x="462" y="449" on="0"/>
        <pt x="510" y="528" on="0"/>
        <pt x="572" y="578" on="0"/>
        <pt x="608" y="601" on="1"/>
        <pt x="572" y="578" on="0"/>
        <pt x="510" y="528" on="0"/>
        <pt x="462" y="449" on="0"/>
        <pt x="427" y="326" on="0"/>
        <pt x="417" y="229" on="1"/>
        <pt x="412" y="184" on="0"/>
        <pt x="377" y="102" on="0"/>
        <pt x="328" y="39" on="0"/>
        <pt x="269" y="1" on="0"/>
        <pt x="240" y="0" on="1"/>
        <pt x="202" y="-2" on="0"/>
        <pt x="131" y="-9" on="0"/>
      </contour>
    </TTGlyph>
    <TTGlyph name="C" xMin="160" yMin="-16" xMax="707" yMax="705">
      <contour>
        <pt x="637" y="46" on="1"/>
        <pt x="582" y="11" on="0"/>
        <pt x="467" y="-16" on="0"/>
        <pt x="414" y="-16" on="1"/>
        <pt x="372" y="-16" on="0"/>
        <pt x="298" y="-4" on="0"/>
        <pt x="242" y="12" on="0"/>
        <pt x="206" y="28" on="0"/>
        <pt x="202" y="32" on="1"/>
        <pt x="197" y="36" on="0"/>
        <pt x="181" y="57" on="0"/>
        <pt x="167" y="91" on="0"/>
        <pt x="160" y="141" on="0"/>
        <pt x="168" y="210" on="0"/>
        <pt x="197" y="299" on="0"/>
        <pt x="226" y="355" on="1"/>
        <pt x="255" y="411" on="0"/>
        <pt x="332" y="507" on="0"/>
        <pt x="417" y="585" on="0"/>
        <pt x="505" y="645" on="0"/>
        <pt x="584" y="686" on="0"/>
        <pt x="649" y="705" on="0"/>
        <pt x="670" y="704" on="1"/>
        <pt x="696" y="702" on="0"/>
        <pt x="707" y="649" on="0"/>
        <pt x="697" y="606" on="1"/>
        <pt x="691" y="579" on="0"/>
        <pt x="667" y="514" on="0"/>
        <pt x="636" y="444" on="0"/>
        <pt x="598" y="371" on="0"/>
        <pt x="578" y="336" on="1"/>
        <pt x="598" y="371" on="0"/>
        <pt x="636" y="444" on="0"/>
        <pt x="667" y="514" on="0"/>
        <pt x="691" y="579" on="0"/>
        <pt x="697" y="606" on="1"/>
        <pt x="707" y="649" on="0"/>
        <pt x="696" y="702" on="0"/>
        <pt x="670" y="704" on="1"/>
        <pt x="649" y="705" on="0"/>
        <pt x="584" y="686" on="0"/>
        <pt x="505" y="645" on="0"/>
        <pt x="417" y="585" on="0"/>
        <pt x="332" y="507" on="0"/>
        <pt x="255" y="411" on="0"/>
        <pt x="226" y="355" on="1"/>
        <pt x="197" y="299" on="0"/>
        <pt x="168" y="210" on="0"/>
        <pt x="160" y="141" on="0"/>
        <pt x="167" y="91" on="0"/>
        <pt x="181" y="57" on="0"/>
        <pt x="197" y="36" on="0"/>
        <pt x="202" y="32" on="1"/>
        <pt x="206" y="28" on="0"/>
        <pt x="242" y="12" on="0"/>
        <pt x="298" y="-4" on="0"/>
        <pt x="372" y="-16" on="0"/>
        <pt x="414" y="-16" on="1"/>
        <pt x="467" y="-16" on="0"/>
        <pt x="582" y="11" on="0"/>
      </contour>
    </TTGlyph>
    <TTGlyph name="D" xMin="98" yMin="-4" xMax="974" yMax="741">
      <contour>
        <pt x="578" y="513" on="1"/>
        <pt x="533" y="480" on="0"/>
        <pt x="495" y="427" on="0"/>
        <pt x="487" y="407" on="1"/>
        <pt x="484" y="401" on="0"/>
        <pt x="473" y="366" on="0"/>
        <pt x="460" y="320" on="0"/>
        <pt x="446" y="269" on="0"/>
        <pt x="433" y="221" on="0"/>
        <pt x="422" y="183" on="0"/>
        <pt x="418" y="174" on="1"/>
        <pt x="413" y="160" on="0"/>
        <pt x="396" y="125" on="0"/>
        <pt x="363" y="89" on="0"/>
        <pt x="310" y="54" on="0"/>
        <pt x="268" y="41" on="1"/>
        <pt x="226" y="28" on="0"/>
        <pt x="178" y="14" on="0"/>
        <pt x="145" y="6" on="0"/>
        <pt x="118" y="1" on="0"/>
        <pt x="98" y="-3" on="1"/>
        <pt x="142" y="3" on="0"/>
        <pt x="250" y="9" on="0"/>
        <pt x="365" y="9" on="0"/>
        <pt x="481" y="6" on="0"/>
        <pt x="583" y="2" on="0"/>
        <pt x="666" y="-2" on="0"/>
        <pt x="691" y="-3" on="1"/>
        <pt x="729" y="-4" on="0"/>
        <pt x="808" y="7" on="0"/>
        <pt x="879" y="27" on="0"/>
        <pt x="933" y="56" on="0"/>
        <pt x="947" y="74" on="1"/>
        <pt x="960" y="92" on="0"/>
        <pt x="973" y="136" on="0"/>
        <pt x="974" y="182" on="0"/>
        <pt x="962" y="227" on="0"/>
        <pt x="952" y="247" on="1"/>
        <pt x="902" y="340" on="0"/>
        <pt x="777" y="515" on="0"/>
        <pt x="618" y="653" on="0"/>
        <pt x="425" y="738" on="0"/>
        <pt x="308" y="740" on="1"/>
        <pt x="258" y="741" on="0"/>
        <pt x="193" y="711" on="0"/>
        <pt x="156" y="658" on="0"/>
        <pt x="144" y="587" on="0"/>
        <pt x="148" y="506" on="0"/>
        <pt x="164" y="420" on="0"/>
        <pt x="174" y="379" on="1"/>
        <pt x="164" y="420" on="0"/>
        <pt x="148" y="506" on="0"/>
        <pt x="144" y="587" on="0"/>
        <pt x="156" y="658" on="0"/>
        <pt x="193" y="711" on="0"/>
        <pt x="257" y="741" on="0"/>
        <pt x="308" y="740" on="1"/>
        <pt x="425" y="738" on="0"/>
        <pt x="618" y="653" on="0"/>
        <pt x="777" y="515" on="0"/>
        <pt x="902" y="340" on="0"/>
        <pt x="952" y="247" on="1"/>
        <pt x="962" y="227" on="0"/>
        <pt x="974" y="182" on="0"/>
        <pt x="973" y="136" on="0"/>
        <pt x="960" y="92" on="0"/>
        <pt x="947" y="74" on="1"/>
        <pt x="933" y="56" on="0"/>
        <pt x="879" y="27" on="0"/>
        <pt x="808" y="7" on="0"/>
        <pt x="729" y="-4" on="0"/>
        <pt x="691" y="-3" on="1"/>
        <pt x="666" y="-2" on="0"/>
        <pt x="583" y="2" on="0"/>
        <pt x="481" y="6" on="0"/>
        <pt x="365" y="9" on="0"/>
        <pt x="250" y="9" on="0"/>
        <pt x="142" y="3" on="0"/>
        <pt x="98" y="-3" on="1"/>
        <pt x="118" y="1" on="0"/>
        <pt x="145" y="6" on="0"/>
        <pt x="178" y="14" on="0"/>
        <pt x="226" y="28" on="0"/>
        <pt x="268" y="41" on="1"/>
        <pt x="310" y="54" on="0"/>
        <pt x="363" y="89" on="0"/>
        <pt x="396" y="125" on="0"/>
        <pt x="413" y="160" on="0"/>
        <pt x="418" y="174" on="1"/>
        <pt x="422" y="183" on="0"/>
        <pt x="433" y="221" on="0"/>
        <pt x="446" y="269" on="0"/>
        <pt x="460" y="320" on="0"/>
        <pt x="473" y="366" on="0"/>
        <pt x="484" y="400" on="0"/>
        <pt x="487" y="407" on="1"/>
        <pt x="495" y="427" on="0"/>
        <pt x="533" y="480" on="0"/>
      </contour>
    </TTGlyph>
    <TTGlyph name="E" xMin="119" yMin="-10" xMax="743" yMax="719">
      <contour>
        <pt x="627" y="68" on="1"/>
        <pt x="586" y="39" on="0"/>
        <pt x="486" y="5" on="0"/>
        <pt x="381" y="-10" on="0"/>
        <pt x="280" y="-9" on="0"/>
        <pt x="199" y="2" on="0"/>
        <pt x="145" y="18" on="0"/>
        <pt x="140" y="27" on="1"/>
        <pt x="119" y="62" on="0"/>
        <pt x="127" y="130" on="0"/>
        <pt x="147" y="161" on="1"/>
        <pt x="170" y="196" on="0"/>
        <pt x="243" y="256" on="0"/>
        <pt x="280" y="279" on="1"/>
        <pt x="318" y="301" on="0"/>
        <pt x="407" y="341" on="0"/>
        <pt x="501" y="373" on="0"/>
        <pt x="596" y="397" on="0"/>
        <pt x="640" y="404" on="1"/>
        <pt x="621" y="401" on="0"/>
        <pt x="566" y="399" on="0"/>
        <pt x="503" y="401" on="0"/>
        <pt x="440" y="406" on="0"/>
        <pt x="385" y="414" on="0"/>
        <pt x="344" y="426" on="0"/>
        <pt x="336" y="433" on="1"/>
        <pt x="324" y="444" on="0"/>
        <pt x="304" y="477" on="0"/>
        <pt x="301" y="517" on="0"/>
        <pt x="322" y="563" on="0"/>
        <pt x="350" y="587" on="1"/>
        <pt x="369" y="603" on="0"/>
        <pt x="434" y="637" on="0"/>
        <pt x="511" y="669" on="0"/>
        <pt x="593" y="696" on="0"/>
        <pt x="664" y="713" on="0"/>
        <pt x="718" y="719" on="0"/>
        <pt x="729" y="714" on="1"/>
        <pt x="740" y="709" on="0"/>
        <pt x="743" y="688" on="0"/>
        <pt x="738" y="676" on="1"/>
        <pt x="730" y="656" on="0"/>
        <pt x="685" y="611" on="0"/>
        <pt x="666" y="597" on="1"/>
        <pt x="685" y="611" on="0"/>
        <pt x="730" y="656" on="0"/>
        <pt x="738" y="676" on="1"/>
        <pt x="743" y="688" on="0"/>
        <pt x="740" y="709" on="0"/>
        <pt x="729" y="714" on="1"/>
        <pt x="718" y="719" on="0"/>
        <pt x="664" y="713" on="0"/>
        <pt x="593" y="696" on="0"/>
        <pt x="511" y="669" on="0"/>
        <pt x="434" y="637" on="0"/>
        <pt x="369" y="603" on="0"/>
        <pt x="350" y="587" on="1"/>
        <pt x="322" y="563" on="0"/>
        <pt x="301" y="517" on="0"/>
        <pt x="304" y="477" on="0"/>
        <pt x="324" y="444" on="0"/>
        <pt x="336" y="433" on="1"/>
        <pt x="344" y="426" on="0"/>
        <pt x="385" y="414" on="0"/>
        <pt x="440" y="406" on="0"/>
        <pt x="503" y="401" on="0"/>
        <pt x="566" y="399" on="0"/>
        <pt x="621" y="401" on="0"/>
        <pt x="640" y="404" on="1"/>
        <pt x="596" y="397" on="0"/>
        <pt x="501" y="373" on="0"/>
        <pt x="407" y="341" on="0"/>
        <pt x="318" y="301" on="0"/>
        <pt x="280" y="279" on="1"/>
        <pt x="243" y="256" on="0"/>
        <pt x="170" y="196" on="0"/>
        <pt x="147" y="161" on="1"/>
        <pt x="127" y="130" on="0"/>
        <pt x="119" y="62" on="0"/>
        <pt x="140" y="27" on="1"/>
        <pt x="145" y="19" on="0"/>
        <pt x="199" y="2" on="0"/>
        <pt x="280" y="-9" on="0"/>
        <pt x="381" y="-10" on="0"/>
        <pt x="486" y="5" on="0"/>
        <pt x="586" y="39" on="0"/>
      </contour>
    </TTGlyph>
    <TTGlyph name="F" xMin="98" yMin="-178" xMax="1006" yMax="718">
      <contour>
        <pt x="584" y="348" on="1"/>
        <pt x="898" y="348" on="1"/>
      </contour>
      <contour>
        <pt x="216" y="-175" on="1"/>
        <pt x="228" y="-166" on="0"/>
        <pt x="267" y="-151" on="0"/>
        <pt x="313" y="-141" on="0"/>
        <pt x="361" y="-137" on="0"/>
        <pt x="381" y="-138" on="1"/>
        <pt x="402" y="-139" on="0"/>
        <pt x="440" y="-154" on="0"/>
        <pt x="478" y="-169" on="0"/>
        <pt x="518" y="-178" on="0"/>
        <pt x="539" y="-175" on="1"/>
        <pt x="560" y="-171" on="0"/>
        <pt x="591" y="-149" on="0"/>
        <pt x="614" y="-114" on="0"/>
        <pt x="633" y="-67" on="0"/>
        <pt x="644" y="-39" on="1"/>
        <pt x="651" y="-20" on="0"/>
        <pt x="669" y="48" on="0"/>
        <pt x="689" y="134" on="0"/>
        <pt x="711" y="230" on="0"/>
        <pt x="733" y="324" on="0"/>
        <pt x="755" y="408" on="0"/>
        <pt x="765" y="439" on="1"/>
        <pt x="780" y="485" on="0"/>
        <pt x="809" y="574" on="0"/>
        <pt x="860" y="649" on="0"/>
        <pt x="940" y="704" on="0"/>
        <pt x="1006" y="718" on="1"/>
        <pt x="986" y="714" on="0"/>
        <pt x="909" y="712" on="0"/>
        <pt x="802" y="712" on="0"/>
        <pt x="671" y="714" on="0"/>
        <pt x="596" y="714" on="1"/>
        <pt x="521" y="714" on="0"/>
        <pt x="388" y="702" on="0"/>
        <pt x="279" y="687" on="0"/>
        <pt x="200" y="670" on="0"/>
        <pt x="180" y="666" on="1"/>
        <pt x="138" y="658" on="0"/>
        <pt x="98" y="580" on="0"/>
        <pt x="116" y="518" on="1"/>
        <pt x="122" y="497" on="0"/>
        <pt x="153" y="454" on="0"/>
        <pt x="192" y="408" on="0"/>
        <pt x="236" y="361" on="0"/>
        <pt x="275" y="315" on="0"/>
        <pt x="302" y="269" on="0"/>
        <pt x="306" y="248" on="1"/>
        <pt x="302" y="269" on="0"/>
        <pt x="275" y="315" on="0"/>
        <pt x="236" y="361" on="0"/>
        <pt x="192" y="408" on="0"/>
        <pt x="153" y="453" on="0"/>
        <pt x="122" y="498" on="0"/>
        <pt x="116" y="518" on="1"/>
        <pt x="98" y="580" on="0"/>
        <pt x="138" y="658" on="0"/>
        <pt x="180" y="666" on="1"/>
        <pt x="200" y="670" on="0"/>
        <pt x="279" y="687" on="0"/>
        <pt x="388" y="702" on="0"/>
        <pt x="521" y="714" on="0"/>
        <pt x="596" y="714" on="1"/>
        <pt x="671" y="714" on="0"/>
        <pt x="802" y="712" on="0"/>
        <pt x="909" y="712" on="0"/>
        <pt x="986" y="714" on="0"/>
        <pt x="1006" y="718" on="1"/>
        <pt x="940" y="704" on="0"/>
        <pt x="860" y="649" on="0"/>
        <pt x="809" y="574" on="0"/>
        <pt x="780" y="485" on="0"/>
        <pt x="765" y="439" on="1"/>
        <pt x="755" y="408" on="0"/>
        <pt x="733" y="324" on="0"/>
        <pt x="711" y="230" on="0"/>
        <pt x="689" y="134" on="0"/>
        <pt x="669" y="48" on="0"/>
        <pt x="651" y="-20" on="0"/>
        <pt x="644" y="-39" on="1"/>
        <pt x="633" y="-67" on="0"/>
        <pt x="614" y="-114" on="0"/>
        <pt x="591" y="-149" on="0"/>
        <pt x="560" y="-171" on="0"/>
        <pt x="539" y="-175" on="1"/>
        <pt x="518" y="-178" on="0"/>
        <pt x="478" y="-169" on="0"/>
        <pt x="440" y="-154" on="0"/>
        <pt x="402" y="-139" on="0"/>
        <pt x="381" y="-138" on="1"/>
        <pt x="361" y="-137" on="0"/>
        <pt x="313" y="-141" on="0"/>
        <pt x="267" y="-151" on="0"/>
        <pt x="228" y="-166" on="0"/>
      </contour>
    </TTGlyph>
    <TTGlyph name="G" xMin="114" yMin="-172" xMax="955" yMax="737">
      <contour>
        <pt x="125" y="-172" on="1"/>
        <pt x="187" y="-153" on="0"/>
        <pt x="300" y="-146" on="0"/>
        <pt x="397" y="-152" on="0"/>
        <pt x="478" y="-161" on="0"/>
        <pt x="508" y="-157" on="1"/>
        <pt x="539" y="-153" on="0"/>
        <pt x="603" y="-130" on="0"/>
        <pt x="668" y="-79" on="0"/>
        <pt x="733" y="6" on="0"/>
        <pt x="765" y="73" on="1"/>
        <pt x="778" y="99" on="0"/>
        <pt x="855" y="259" on="0"/>
        <pt x="929" y="384" on="1"/>
        <pt x="827" y="302" on="0"/>
        <pt x="642" y="209" on="0"/>
        <pt x="483" y="164" on="0"/>
        <pt x="352" y="159" on="0"/>
        <pt x="256" y="171" on="0"/>
        <pt x="199" y="191" on="0"/>
        <pt x="192" y="194" on="1"/>
        <pt x="185" y="197" on="0"/>
        <pt x="159" y="212" on="0"/>
        <pt x="133" y="238" on="0"/>
        <pt x="114" y="277" on="0"/>
        <pt x="115" y="304" on="1"/>
        <pt x="115" y="331" on="0"/>
        <pt x="148" y="407" on="0"/>
        <pt x="186" y="457" on="1"/>
        <pt x="242" y="530" on="0"/>
        <pt x="401" y="634" on="0"/>
        <pt x="567" y="702" on="0"/>
        <pt x="720" y="735" on="0"/>
        <pt x="771" y="736" on="1"/>
        <pt x="822" y="737" on="0"/>
        <pt x="890" y="722" on="0"/>
        <pt x="932" y="696" on="0"/>
        <pt x="951" y="666" on="0"/>
        <pt x="952" y="652" on="1"/>
        <pt x="955" y="623" on="0"/>
        <pt x="927" y="562" on="0"/>
        <pt x="899" y="532" on="1"/>
        <pt x="869" y="500" on="0"/>
        <pt x="785" y="439" on="0"/>
        <pt x="688" y="388" on="0"/>
        <pt x="585" y="348" on="0"/>
        <pt x="489" y="323" on="0"/>
        <pt x="405" y="318" on="0"/>
        <pt x="376" y="327" on="1"/>
        <pt x="405" y="318" on="0"/>
        <pt x="489" y="323" on="0"/>
        <pt x="585" y="348" on="0"/>
        <pt x="688" y="388" on="0"/>
        <pt x="785" y="439" on="0"/>
        <pt x="869" y="500" on="0"/>
        <pt x="899" y="532" on="1"/>
        <pt x="927" y="562" on="0"/>
        <pt x="955" y="623" on="0"/>
        <pt x="952" y="652" on="1"/>
        <pt x="951" y="666" on="0"/>
        <pt x="932" y="696" on="0"/>
        <pt x="890" y="722" on="0"/>
        <pt x="822" y="737" on="0"/>
        <pt x="771" y="736" on="1"/>
        <pt x="720" y="735" on="0"/>
        <pt x="567" y="702" on="0"/>
        <pt x="401" y="634" on="0"/>
        <pt x="242" y="530" on="0"/>
        <pt x="186" y="457" on="1"/>
        <pt x="148" y="407" on="0"/>
        <pt x="115" y="331" on="0"/>
        <pt x="115" y="304" on="1"/>
        <pt x="114" y="277" on="0"/>
        <pt x="133" y="238" on="0"/>
        <pt x="159" y="212" on="0"/>
        <pt x="185" y="197" on="0"/>
        <pt x="192" y="194" on="1"/>
        <pt x="198" y="190" on="0"/>
        <pt x="256" y="171" on="0"/>
        <pt x="352" y="159" on="0"/>
        <pt x="483" y="164" on="0"/>
        <pt x="642" y="209" on="0"/>
        <pt x="827" y="303" on="0"/>
        <pt x="929" y="384" on="1"/>
        <pt x="855" y="259" on="0"/>
        <pt x="778" y="99" on="0"/>
        <pt x="765" y="73" on="1"/>
        <pt x="733" y="6" on="0"/>
        <pt x="668" y="-79" on="0"/>
        <pt x="603" y="-130" on="0"/>
        <pt x="539" y="-153" on="0"/>
        <pt x="508" y="-157" on="1"/>
        <pt x="478" y="-161" on="0"/>
        <pt x="397" y="-152" on="0"/>
        <pt x="300" y="-146" on="0"/>
        <pt x="187" y="-153" on="0"/>
      </contour>
    </TTGlyph>
    <TTGlyph name="H" xMin="71" yMin="-20" xMax="1184" yMax="815">
      <contour>
        <pt x="1184" y="364" on="1"/>
        <pt x="1167" y="349" on="0"/>
        <pt x="1065" y="333" on="0"/>
        <pt x="932" y="327" on="0"/>
        <pt x="786" y="327" on="0"/>
        <pt x="725" y="328" on="1"/>
        <pt x="658" y="329" on="0"/>
        <pt x="522" y="319" on="0"/>
        <pt x="388" y="292" on="0"/>
        <pt x="260" y="248" on="0"/>
        <pt x="201" y="216" on="1"/>
        <pt x="175" y="201" on="0"/>
        <pt x="126" y="166" on="0"/>
        <pt x="89" y="129" on="0"/>
        <pt x="71" y="89" on="0"/>
        <pt x="76" y="70" on="1"/>
        <pt x="80" y="54" on="0"/>
        <pt x="99" y="19" on="0"/>
        <pt x="115" y="9" on="1"/>
        <pt x="143" y="-8" on="0"/>
        <pt x="227" y="-19" on="0"/>
        <pt x="321" y="-15" on="0"/>
        <pt x="420" y="2" on="0"/>
        <pt x="463" y="14" on="1"/>
        <pt x="518" y="31" on="0"/>
        <pt x="611" y="99" on="0"/>
        <pt x="682" y="179" on="0"/>
        <pt x="729" y="262" on="0"/>
        <pt x="738" y="294" on="1"/>
        <pt x="747" y="326" on="0"/>
        <pt x="757" y="426" on="0"/>
        <pt x="761" y="545" on="0"/>
        <pt x="760" y="673" on="0"/>
        <pt x="758" y="733" on="1"/>
        <pt x="760" y="673" on="0"/>
        <pt x="761" y="545" on="0"/>
        <pt x="757" y="426" on="0"/>
        <pt x="747" y="326" on="0"/>
        <pt x="738" y="294" on="1"/>
        <pt x="729" y="262" on="0"/>
        <pt x="682" y="179" on="0"/>
        <pt x="611" y="99" on="0"/>
        <pt x="518" y="31" on="0"/>
        <pt x="463" y="14" on="1"/>
        <pt x="420" y="2" on="0"/>
        <pt x="321" y="-15" on="0"/>
        <pt x="227" y="-19" on="0"/>
        <pt x="143" y="-8" on="0"/>
        <pt x="115" y="9" on="1"/>
        <pt x="99" y="19" on="0"/>
        <pt x="80" y="54" on="0"/>
        <pt x="76" y="70" on="1"/>
        <pt x="71" y="89" on="0"/>
        <pt x="89" y="129" on="0"/>
        <pt x="126" y="166" on="0"/>
        <pt x="175" y="201" on="0"/>
        <pt x="201" y="216" on="1"/>
        <pt x="260" y="248" on="0"/>
        <pt x="388" y="292" on="0"/>
        <pt x="522" y="319" on="0"/>
        <pt x="658" y="329" on="0"/>
        <pt x="725" y="328" on="1"/>
        <pt x="786" y="327" on="0"/>
        <pt x="932" y="327" on="0"/>
        <pt x="1065" y="333" on="0"/>
        <pt x="1167" y="349" on="0"/>
      </contour>
      <contour>
        <pt x="939" y="-20" on="1"/>
        <pt x="963" y="33" on="0"/>
        <pt x="993" y="149" on="0"/>
        <pt x="1012" y="265" on="0"/>
        <pt x="1023" y="377" on="0"/>
        <pt x="1030" y="474" on="0"/>
        <pt x="1038" y="552" on="0"/>
        <pt x="1045" y="577" on="1"/>
        <pt x="1055" y="613" on="0"/>
        <pt x="1076" y="677" on="0"/>
        <pt x="1102" y="735" on="0"/>
        <pt x="1133" y="789" on="0"/>
        <pt x="1153" y="815" on="1"/>
        <pt x="1133" y="789" on="0"/>
        <pt x="1102" y="735" on="0"/>
        <pt x="1076" y="677" on="0"/>
        <pt x="1055" y="613" on="0"/>
        <pt x="1045" y="577" on="1"/>
        <pt x="1038" y="552" on="0"/>
        <pt x="1030" y="474" on="0"/>
        <pt x="1023" y="377" on="0"/>
        <pt x="1012" y="265" on="0"/>
        <pt x="993" y="149" on="0"/>
        <pt x="963" y="33" on="0"/>
      </contour>
    </TTGlyph>
    <TTGlyph name="I" xMin="48" yMin="-7" xMax="749" yMax="704">
      <contour>
        <pt x="48" y="-7" on="1"/>
        <pt x="110" y="3" on="0"/>
        <pt x="227" y="4" on="0"/>
        <pt x="325" y="0" on="0"/>
        <pt x="397" y="-2" on="0"/>
        <pt x="414" y="6" on="1"/>
        <pt x="431" y="14" on="0"/>
        <pt x="468" y="37" on="0"/>
        <pt x="504" y="73" on="0"/>
        <pt x="535" y="123" on="0"/>
        <pt x="547" y="159" on="1"/>
        <pt x="558" y="194" on="0"/>
        <pt x="582" y="291" on="0"/>
        <pt x="604" y="392" on="0"/>
        <pt x="624" y="485" on="0"/>
        <pt x="632" y="515" on="1"/>
        <pt x="660" y="634" on="0"/>
        <pt x="749" y="704" on="1"/>
        <pt x="664" y="695" on="0"/>
        <pt x="522" y="652" on="0"/>
        <pt x="466" y="617" on="1"/>
        <pt x="392" y="571" on="0"/>
        <pt x="295" y="482" on="0"/>
        <pt x="240" y="382" on="0"/>
        <pt x="219" y="261" on="0"/>
        <pt x="221" y="182" on="1"/>
        <pt x="219" y="261" on="0"/>
        <pt x="240" y="382" on="0"/>
        <pt x="295" y="482" on="0"/>
        <pt x="392" y="571" on="0"/>
        <pt x="466" y="617" on="1"/>
        <pt x="522" y="652" on="0"/>
        <pt x="664" y="695" on="0"/>
        <pt x="749" y="704" on="1"/>
        <pt x="660" y="634" on="0"/>
        <pt x="632" y="515" on="1"/>
        <pt x="624" y="485" on="0"/>
        <pt x="604" y="392" on="0"/>
        <pt x="582" y="291" on="0"/>
        <pt x="558" y="194" on="0"/>
        <pt x="547" y="159" on="1"/>
        <pt x="535" y="123" on="0"/>
        <pt x="504" y="73" on="0"/>
        <pt x="468" y="37" on="0"/>
        <pt x="431" y="14" on="0"/>
        <pt x="414" y="6" on="1"/>
        <pt x="397" y="-2" on="0"/>
        <pt x="325" y="0" on="0"/>
        <pt x="227" y="4" on="0"/>
        <pt x="110" y="3" on="0"/>
      </contour>
    </TTGlyph>
    <TTGlyph name="J" xMin="87" yMin="-341" xMax="792" yMax="705">
      <contour>
        <pt x="720" y="32" on="1"/>
        <pt x="687" y="12" on="0"/>
        <pt x="605" y="1" on="0"/>
        <pt x="511" y="1" on="0"/>
        <pt x="410" y="3" on="0"/>
        <pt x="358" y="-5" on="1"/>
        <pt x="312" y="-12" on="0"/>
        <pt x="214" y="-51" on="0"/>
        <pt x="135" y="-108" on="0"/>
        <pt x="87" y="-181" on="0"/>
        <pt x="92" y="-223" on="1"/>
        <pt x="98" y="-268" on="0"/>
        <pt x="140" y="-320" on="0"/>
        <pt x="200" y="-341" on="0"/>
        <pt x="270" y="-332" on="0"/>
        <pt x="304" y="-316" on="1"/>
        <pt x="385" y="-276" on="0"/>
        <pt x="482" y="-180" on="0"/>
        <pt x="537" y="-80" on="0"/>
        <pt x="565" y="21" on="0"/>
        <pt x="578" y="67" on="1"/>
        <pt x="696" y="495" on="1"/>
        <pt x="705" y="529" on="0"/>
        <pt x="728" y="597" on="0"/>
        <pt x="753" y="654" on="0"/>
        <pt x="779" y="697" on="0"/>
        <pt x="792" y="705" on="1"/>
        <pt x="664" y="701" on="0"/>
        <pt x="488" y="641" on="0"/>
        <pt x="372" y="550" on="0"/>
        <pt x="309" y="437" on="0"/>
        <pt x="293" y="380" on="1"/>
        <pt x="309" y="437" on="0"/>
        <pt x="372" y="550" on="0"/>
        <pt x="488" y="641" on="0"/>
        <pt x="664" y="701" on="0"/>
        <pt x="792" y="705" on="1"/>
        <pt x="779" y="697" on="0"/>
        <pt x="753" y="654" on="0"/>
        <pt x="728" y="597" on="0"/>
        <pt x="705" y="529" on="0"/>
        <pt x="696" y="495" on="1"/>
        <pt x="578" y="67" on="1"/>
        <pt x="565" y="21" on="0"/>
        <pt x="537" y="-80" on="0"/>
        <pt x="482" y="-180" on="0"/>
        <pt x="385" y="-276" on="0"/>
        <pt x="304" y="-316" on="1"/>
        <pt x="270" y="-332" on="0"/>
        <pt x="200" y="-341" on="0"/>
        <pt x="140" y="-320" on="0"/>
        <pt x="98" y="-268" on="0"/>
        <pt x="92" y="-223" on="1"/>
        <pt x="87" y="-181" on="0"/>
        <pt x="135" y="-108" on="0"/>
        <pt x="214" y="-51" on="0"/>
        <pt x="312" y="-12" on="0"/>
        <pt x="358" y="-5" on="1"/>
        <pt x="410" y="3" on="0"/>
        <pt x="511" y="1" on="0"/>
        <pt x="605" y="1" on="0"/>
        <pt x="687" y="12" on="0"/>
      </contour>
    </TTGlyph>
    <TTGlyph name="K" xMin="56" yMin="-168" xMax="1151" yMax="721">
      <contour>
        <pt x="56" y="3" on="1"/>
        <pt x="82" y="10" on="0"/>
        <pt x="140" y="11" on="0"/>
        <pt x="195" y="7" on="0"/>
        <pt x="244" y="0" on="0"/>
        <pt x="261" y="-1" on="1"/>
        <pt x="278" y="-3" on="0"/>
        <pt x="332" y="1" on="0"/>
        <pt x="390" y="9" on="0"/>
        <pt x="443" y="21" on="0"/>
        <pt x="459" y="28" on="1"/>
        <pt x="474" y="35" on="0"/>
        <pt x="508" y="61" on="0"/>
        <pt x="539" y="99" on="0"/>
        <pt x="563" y="149" on="0"/>
        <pt x="569" y="180" on="1"/>
        <pt x="637" y="536" on="1"/>
        <pt x="642" y="563" on="0"/>
        <pt x="665" y="616" on="0"/>
        <pt x="696" y="663" on="0"/>
        <pt x="731" y="702" on="0"/>
        <pt x="748" y="717" on="1"/>
        <pt x="641" y="721" on="0"/>
        <pt x="479" y="702" on="0"/>
        <pt x="364" y="673" on="0"/>
        <pt x="296" y="643" on="0"/>
        <pt x="283" y="636" on="1"/>
        <pt x="270" y="628" on="0"/>
        <pt x="263" y="603" on="0"/>
        <pt x="265" y="573" on="0"/>
        <pt x="273" y="543" on="0"/>
        <pt x="276" y="532" on="1"/>
        <pt x="279" y="521" on="0"/>
        <pt x="290" y="490" on="0"/>
        <pt x="296" y="443" on="0"/>
        <pt x="292" y="379" on="0"/>
        <pt x="280" y="335" on="1"/>
        <pt x="292" y="379" on="0"/>
        <pt x="296" y="443" on="0"/>
        <pt x="290" y="490" on="0"/>
        <pt x="279" y="521" on="0"/>
        <pt x="276" y="532" on="1"/>
        <pt x="273" y="543" on="0"/>
        <pt x="265" y="573" on="0"/>
        <pt x="263" y="603" on="0"/>
        <pt x="270" y="628" on="0"/>
        <pt x="283" y="636" on="1"/>
        <pt x="296" y="643" on="0"/>
        <pt x="364" y="673" on="0"/>
        <pt x="479" y="702" on="0"/>
        <pt x="641" y="721" on="0"/>
        <pt x="748" y="717" on="1"/>
        <pt x="731" y="702" on="0"/>
        <pt x="696" y="663" on="0"/>
        <pt x="665" y="616" on="0"/>
        <pt x="642" y="563" on="0"/>
        <pt x="637" y="536" on="1"/>
        <pt x="569" y="180" on="1"/>
        <pt x="563" y="149" on="0"/>
        <pt x="539" y="99" on="0"/>
        <pt x="508" y="61" on="0"/>
        <pt x="474" y="35" on="0"/>
        <pt x="459" y="28" on="1"/>
        <pt x="443" y="21" on="0"/>
        <pt x="390" y="9" on="0"/>
        <pt x="332" y="1" on="0"/>
        <pt x="278" y="-3" on="0"/>
        <pt x="261" y="-1" on="1"/>
        <pt x="244" y="0" on="0"/>
        <pt x="195" y="7" on="0"/>
        <pt x="140" y="11" on="0"/>
        <pt x="82" y="10" on="0"/>
      </contour>
      <contour>
        <pt x="1151" y="706" on="1"/>
        <pt x="1100" y="695" on="0"/>
        <pt x="1029" y="660" on="0"/>
        <pt x="983" y="622" on="0"/>
        <pt x="956" y="587" on="0"/>
        <pt x="947" y="578" on="1"/>
        <pt x="941" y="572" on="0"/>
        <pt x="906" y="529" on="0"/>
        <pt x="855" y="472" on="0"/>
        <pt x="789" y="409" on="0"/>
        <pt x="716" y="358" on="0"/>
        <pt x="639" y="326" on="0"/>
        <pt x="601" y="329" on="1"/>
        <pt x="639" y="326" on="0"/>
        <pt x="716" y="358" on="0"/>
        <pt x="789" y="409" on="0"/>
        <pt x="855" y="472" on="0"/>
        <pt x="906" y="529" on="0"/>
        <pt x="941" y="572" on="0"/>
        <pt x="947" y="578" on="1"/>
        <pt x="956" y="587" on="0"/>
        <pt x="983" y="622" on="0"/>
        <pt x="1029" y="660" on="0"/>
        <pt x="1100" y="695" on="0"/>
      </contour>
      <contour>
        <pt x="928" y="-168" on="1"/>
        <pt x="889" y="-103" on="0"/>
        <pt x="850" y="23" on="0"/>
        <pt x="828" y="132" on="0"/>
        <pt x="808" y="219" on="0"/>
        <pt x="788" y="245" on="1"/>
        <pt x="778" y="258" on="0"/>
        <pt x="758" y="283" on="0"/>
        <pt x="729" y="305" on="0"/>
        <pt x="689" y="326" on="0"/>
        <pt x="658" y="336" on="1"/>
        <pt x="689" y="326" on="0"/>
        <pt x="729" y="305" on="0"/>
        <pt x="758" y="283" on="0"/>
        <pt x="778" y="258" on="0"/>
        <pt x="788" y="245" on="1"/>
        <pt x="808" y="219" on="0"/>
        <pt x="828" y="132" on="0"/>
        <pt x="850" y="23" on="0"/>
        <pt x="889" y="-103" on="0"/>
      </contour>
    </TTGlyph>
    <TTGlyph name="L" xMin="54" yMin="-1" xMax="880" yMax="711">
      <contour>
        <pt x="191" y="22" on="1"/>
        <pt x="242" y="32" on="0"/>
        <pt x="315" y="68" on="0"/>
        <pt x="368" y="113" on="0"/>
        <pt x="402" y="162" on="0"/>
        <pt x="414" y="185" on="1"/>
        <pt x="459" y="270" on="0"/>
        <pt x="531" y="417" on="0"/>
        <pt x="593" y="535" on="0"/>
        <pt x="650" y="622" on="0"/>
        <pt x="679" y="647" on="1"/>
        <pt x="686" y="653" on="0"/>
        <pt x="712" y="676" on="0"/>
        <pt x="748" y="697" on="0"/>
        <pt x="794" y="711" on="0"/>
        <pt x="821" y="708" on="1"/>
        <pt x="848" y="704" on="0"/>
        <pt x="874" y="676" on="0"/>
        <pt x="880" y="634" on="0"/>
        <pt x="869" y="584" on="0"/>
        <pt x="850" y="534" on="0"/>
        <pt x="827" y="488" on="0"/>
        <pt x="818" y="471" on="1"/>
        <pt x="827" y="488" on="0"/>
        <pt x="850" y="534" on="0"/>
        <pt x="869" y="584" on="0"/>
        <pt x="880" y="634" on="0"/>
        <pt x="874" y="676" on="0"/>
        <pt x="848" y="704" on="0"/>
        <pt x="821" y="708" on="1"/>
        <pt x="794" y="711" on="0"/>
        <pt x="748" y="697" on="0"/>
        <pt x="712" y="676" on="0"/>
        <pt x="686" y="653" on="0"/>
        <pt x="679" y="647" on="1"/>
        <pt x="650" y="622" on="0"/>
        <pt x="593" y="535" on="0"/>
        <pt x="531" y="417" on="0"/>
        <pt x="459" y="270" on="0"/>
        <pt x="414" y="185" on="1"/>
        <pt x="402" y="162" on="0"/>
        <pt x="368" y="113" on="0"/>
        <pt x="315" y="68" on="0"/>
        <pt x="242" y="32" on="0"/>
      </contour>
      <contour>
        <pt x="774" y="68" on="1"/>
        <pt x="759" y="47" on="0"/>
        <pt x="739" y="32" on="1"/>
        <pt x="721" y="18" on="0"/>
        <pt x="668" y="-1" on="0"/>
        <pt x="633" y="1" on="1"/>
        <pt x="611" y="3" on="0"/>
        <pt x="538" y="11" on="0"/>
        <pt x="452" y="19" on="0"/>
        <pt x="365" y="25" on="0"/>
        <pt x="329" y="25" on="1"/>
        <pt x="294" y="25" on="0"/>
        <pt x="233" y="25" on="0"/>
        <pt x="170" y="21" on="0"/>
        <pt x="99" y="10" on="0"/>
        <pt x="54" y="-1" on="1"/>
        <pt x="99" y="10" on="0"/>
        <pt x="170" y="21" on="0"/>
        <pt x="233" y="25" on="0"/>
        <pt x="294" y="25" on="0"/>
        <pt x="329" y="25" on="1"/>
        <pt x="365" y="25" on="0"/>
        <pt x="452" y="19" on="0"/>
        <pt x="538" y="11" on="0"/>
        <pt x="611" y="3" on="0"/>
        <pt x="633" y="1" on="1"/>
        <pt x="668" y="-1" on="0"/>
        <pt x="721" y="18" on="0"/>
        <pt x="739" y="32" on="1"/>
        <pt x="759" y="47" on="0"/>
      </contour>
    </TTGlyph>
    <TTGlyph name="M" xMin="101" yMin="-84" xMax="1408" yMax="711">
      <contour>
        <pt x="1383" y="-84" on="1"/>
        <pt x="1364" y="-77" on="0"/>
        <pt x="1350" y="-54" on="1"/>
        <pt x="1338" y="-34" on="0"/>
        <pt x="1318" y="43" on="0"/>
        <pt x="1320" y="111" on="1"/>
        <pt x="1321" y="178" on="0"/>
        <pt x="1339" y="342" on="0"/>
        <pt x="1364" y="505" on="0"/>
        <pt x="1394" y="654" on="0"/>
        <pt x="1408" y="708" on="1"/>
        <pt x="1351" y="654" on="0"/>
        <pt x="1266" y="537" on="0"/>
        <pt x="1195" y="412" on="0"/>
        <pt x="1130" y="280" on="0"/>
        <pt x="1094" y="212" on="1"/>
        <pt x="1065" y="156" on="0"/>
        <pt x="1014" y="46" on="0"/>
        <pt x="999" y="-8" on="1"/>
        <pt x="982" y="48" on="0"/>
        <pt x="975" y="173" on="0"/>
        <pt x="983" y="303" on="0"/>
        <pt x="1003" y="434" on="0"/>
        <pt x="1025" y="557" on="0"/>
        <pt x="1045" y="667" on="0"/>
        <pt x="1049" y="711" on="1"/>
        <pt x="1011" y="689" on="0"/>
        <pt x="942" y="597" on="0"/>
        <pt x="881" y="483" on="0"/>
        <pt x="830" y="361" on="0"/>
        <pt x="793" y="256" on="0"/>
        <pt x="769" y="180" on="0"/>
        <pt x="766" y="171" on="1"/>
        <pt x="761" y="157" on="0"/>
        <pt x="735" y="111" on="0"/>
        <pt x="684" y="63" on="0"/>
        <pt x="602" y="19" on="0"/>
        <pt x="541" y="6" on="1"/>
        <pt x="479" y="-7" on="0"/>
        <pt x="349" y="-11" on="0"/>
        <pt x="234" y="-4" on="0"/>
        <pt x="146" y="10" on="0"/>
        <pt x="128" y="16" on="1"/>
        <pt x="105" y="23" on="0"/>
        <pt x="101" y="69" on="0"/>
        <pt x="122" y="92" on="1"/>
        <pt x="151" y="126" on="0"/>
        <pt x="235" y="172" on="0"/>
        <pt x="327" y="203" on="0"/>
        <pt x="420" y="223" on="0"/>
        <pt x="459" y="230" on="1"/>
        <pt x="493" y="236" on="0"/>
        <pt x="563" y="251" on="0"/>
        <pt x="633" y="272" on="0"/>
        <pt x="702" y="303" on="0"/>
        <pt x="735" y="325" on="1"/>
        <pt x="702" y="303" on="0"/>
        <pt x="633" y="272" on="0"/>
        <pt x="563" y="251" on="0"/>
        <pt x="493" y="236" on="0"/>
        <pt x="459" y="230" on="1"/>
        <pt x="420" y="223" on="0"/>
        <pt x="327" y="203" on="0"/>
        <pt x="235" y="172" on="0"/>
        <pt x="151" y="126" on="0"/>
        <pt x="122" y="92" on="1"/>
        <pt x="101" y="69" on="0"/>
        <pt x="105" y="23" on="0"/>
        <pt x="128" y="16" on="1"/>
        <pt x="146" y="10" on="0"/>
        <pt x="234" y="-4" on="0"/>
        <pt x="349" y="-11" on="0"/>
        <pt x="479" y="-7" on="0"/>
        <pt x="541" y="6" on="1"/>
        <pt x="602" y="19" on="0"/>
        <pt x="684" y="63" on="0"/>
        <pt x="735" y="111" on="0"/>
        <pt x="761" y="157" on="0"/>
        <pt x="766" y="171" on="1"/>
        <pt x="769" y="180" on="0"/>
        <pt x="793" y="256" on="0"/>
        <pt x="830" y="361" on="0"/>
        <pt x="881" y="483" on="0"/>
        <pt x="942" y="597" on="0"/>
        <pt x="1011" y="689" on="0"/>
        <pt x="1049" y="711" on="1"/>
        <pt x="1045" y="667" on="0"/>
        <pt x="1025" y="557" on="0"/>
        <pt x="1003" y="434" on="0"/>
        <pt x="983" y="303" on="0"/>
        <pt x="975" y="173" on="0"/>
        <pt x="982" y="48" on="0"/>
        <pt x="999" y="-8" on="1"/>
        <pt x="1014" y="46" on="0"/>
        <pt x="1065" y="156" on="0"/>
        <pt x="1094" y="212" on="1"/>
        <pt x="1130" y="280" on="0"/>
        <pt x="1195" y="412" on="0"/>
        <pt x="1266" y="537" on="0"/>
        <pt x="1351" y="654" on="0"/>
        <pt x="1408" y="708" on="1"/>
        <pt x="1394" y="654" on="0"/>
        <pt x="1364" y="505" on="0"/>
        <pt x="1339" y="342" on="0"/>
        <pt x="1321" y="178" on="0"/>
        <pt x="1320" y="111" on="1"/>
        <pt x="1318" y="43" on="0"/>
        <pt x="1338" y="-34" on="0"/>
        <pt x="1350" y="-54" on="1"/>
        <pt x="1364" y="-77" on="0"/>
      </contour>
    </TTGlyph>
    <TTGlyph name="N" xMin="104" yMin="-14" xMax="1466" yMax="705">
      <contour>
        <pt x="1466" y="705" on="1"/>
        <pt x="1453" y="697" on="0"/>
        <pt x="1423" y="679" on="0"/>
        <pt x="1387" y="643" on="0"/>
        <pt x="1341" y="582" on="0"/>
        <pt x="1311" y="531" on="1"/>
        <pt x="1292" y="497" on="0"/>
        <pt x="1255" y="407" on="0"/>
        <pt x="1221" y="306" on="0"/>
        <pt x="1192" y="201" on="0"/>
        <pt x="1167" y="102" on="0"/>
        <pt x="1147" y="16" on="0"/>
        <pt x="1141" y="-14" on="1"/>
        <pt x="1101" y="58" on="0"/>
        <pt x="1054" y="244" on="0"/>
        <pt x="1023" y="441" on="0"/>
        <pt x="1001" y="630" on="0"/>
        <pt x="988" y="705" on="1"/>
        <pt x="966" y="692" on="0"/>
        <pt x="943" y="659" on="1"/>
        <pt x="923" y="630" on="0"/>
        <pt x="874" y="524" on="0"/>
        <pt x="849" y="433" on="1"/>
        <pt x="824" y="343" on="0"/>
        <pt x="768" y="210" on="0"/>
        <pt x="707" y="114" on="0"/>
        <pt x="642" y="50" on="0"/>
        <pt x="608" y="29" on="1"/>
        <pt x="585" y="15" on="0"/>
        <pt x="517" y="-2" on="0"/>
        <pt x="440" y="-11" on="0"/>
        <pt x="358" y="-13" on="0"/>
        <pt x="286" y="-10" on="0"/>
        <pt x="229" y="-4" on="0"/>
        <pt x="214" y="-1" on="1"/>
        <pt x="169" y="7" on="0"/>
        <pt x="104" y="42" on="0"/>
        <pt x="104" y="63" on="1"/>
        <pt x="104" y="74" on="0"/>
        <pt x="121" y="104" on="0"/>
        <pt x="158" y="137" on="0"/>
        <pt x="215" y="169" on="0"/>
        <pt x="255" y="181" on="1"/>
        <pt x="295" y="193" on="0"/>
        <pt x="422" y="226" on="0"/>
        <pt x="557" y="267" on="0"/>
        <pt x="684" y="315" on="0"/>
        <pt x="724" y="342" on="1"/>
        <pt x="684" y="315" on="0"/>
        <pt x="557" y="267" on="0"/>
        <pt x="422" y="226" on="0"/>
        <pt x="295" y="193" on="0"/>
        <pt x="255" y="181" on="1"/>
        <pt x="215" y="169" on="0"/>
        <pt x="158" y="137" on="0"/>
        <pt x="121" y="104" on="0"/>
        <pt x="104" y="74" on="0"/>
        <pt x="104" y="63" on="1"/>
        <pt x="104" y="42" on="0"/>
        <pt x="169" y="7" on="0"/>
        <pt x="214" y="-1" on="1"/>
        <pt x="229" y="-4" on="0"/>
        <pt x="286" y="-10" on="0"/>
        <pt x="358" y="-13" on="0"/>
        <pt x="440" y="-11" on="0"/>
        <pt x="517" y="-2" on="0"/>
        <pt x="585" y="15" on="0"/>
        <pt x="608" y="29" on="1"/>
        <pt x="642" y="50" on="0"/>
        <pt x="707" y="114" on="0"/>
        <pt x="768" y="210" on="0"/>
        <pt x="824" y="343" on="0"/>
        <pt x="849" y="433" on="1"/>
        <pt x="874" y="524" on="0"/>
        <pt x="923" y="630" on="0"/>
        <pt x="943" y="659" on="1"/>
        <pt x="966" y="692" on="0"/>
        <pt x="988" y="705" on="1"/>
        <pt x="1001" y="630" on="0"/>
        <pt x="1023" y="441" on="0"/>
        <pt x="1054" y="244" on="0"/>
        <pt x="1101" y="58" on="0"/>
        <pt x="1141" y="-14" on="1"/>
        <pt x="1147" y="17" on="0"/>
        <pt x="1167" y="102" on="0"/>
        <pt x="1192" y="201" on="0"/>
        <pt x="1221" y="306" on="0"/>
        <pt x="1255" y="407" on="0"/>
        <pt x="1291" y="497" on="0"/>
        <pt x="1311" y="531" on="1"/>
        <pt x="1341" y="582" on="0"/>
        <pt x="1387" y="643" on="0"/>
        <pt x="1423" y="679" on="0"/>
        <pt x="1453" y="697" on="0"/>
      </contour>
    </TTGlyph>
    <TTGlyph name="O" xMin="113" yMin="-11" xMax="806" yMax="709">
      <contour>
        <pt x="331" y="231" on="1"/>
        <pt x="337" y="249" on="0"/>
        <pt x="339" y="313" on="0"/>
        <pt x="333" y="388" on="0"/>
        <pt x="324" y="462" on="0"/>
        <pt x="320" y="490" on="1"/>
        <pt x="316" y="517" on="0"/>
        <pt x="332" y="593" on="0"/>
        <pt x="379" y="661" on="0"/>
        <pt x="461" y="709" on="0"/>
        <pt x="522" y="709" on="1"/>
        <pt x="583" y="709" on="0"/>
        <pt x="689" y="659" on="0"/>
        <pt x="766" y="571" on="0"/>
        <pt x="806" y="453" on="0"/>
        <pt x="802" y="384" on="1"/>
        <pt x="798" y="316" on="0"/>
        <pt x="762" y="175" on="0"/>
        <pt x="680" y="61" on="0"/>
        <pt x="544" y="-11" on="0"/>
        <pt x="439" y="-11" on="1"/>
        <pt x="345" y="-11" on="0"/>
        <pt x="223" y="13" on="0"/>
        <pt x="150" y="63" on="0"/>
        <pt x="118" y="139" on="0"/>
        <pt x="115" y="191" on="1"/>
        <pt x="113" y="224" on="0"/>
        <pt x="121" y="310" on="0"/>
        <pt x="140" y="391" on="0"/>
        <pt x="172" y="455" on="0"/>
        <pt x="193" y="464" on="1"/>
        <pt x="172" y="455" on="0"/>
        <pt x="140" y="391" on="0"/>
        <pt x="121" y="310" on="0"/>
        <pt x="113" y="224" on="0"/>
        <pt x="115" y="191" on="1"/>
        <pt x="118" y="139" on="0"/>
        <pt x="150" y="63" on="0"/>
        <pt x="223" y="13" on="0"/>
        <pt x="345" y="-11" on="0"/>
        <pt x="439" y="-11" on="1"/>
        <pt x="544" y="-11" on="0"/>
        <pt x="680" y="61" on="0"/>
        <pt x="762" y="175" on="0"/>
        <pt x="798" y="316" on="0"/>
        <pt x="802" y="384" on="1"/>
        <pt x="806" y="453" on="0"/>
        <pt x="766" y="571" on="0"/>
        <pt x="689" y="659" on="0"/>
        <pt x="583" y="709" on="0"/>
        <pt x="522" y="709" on="1"/>
        <pt x="461" y="709" on="0"/>
        <pt x="379" y="661" on="0"/>
        <pt x="332" y="593" on="0"/>
        <pt x="316" y="517" on="0"/>
        <pt x="320" y="490" on="1"/>
        <pt x="324" y="462" on="0"/>
        <pt x="333" y="388" on="0"/>
        <pt x="339" y="313" on="0"/>
        <pt x="337" y="249" on="0"/>
      </contour>
    </TTGlyph>
    <TTGlyph name="P" xMin="71" yMin="-6" xMax="1010" yMax="722">
      <contour>
        <pt x="622" y="239" on="1"/>
        <pt x="655" y="251" on="0"/>
        <pt x="695" y="255" on="0"/>
        <pt x="734" y="252" on="0"/>
        <pt x="782" y="248" on="0"/>
        <pt x="822" y="252" on="1"/>
        <pt x="846" y="255" on="0"/>
        <pt x="913" y="295" on="0"/>
        <pt x="972" y="360" on="0"/>
        <pt x="1010" y="445" on="0"/>
        <pt x="1006" y="493" on="1"/>
        <pt x="995" y="616" on="0"/>
        <pt x="798" y="722" on="0"/>
        <pt x="612" y="701" on="1"/>
        <pt x="520" y="690" on="0"/>
        <pt x="361" y="644" on="0"/>
        <pt x="238" y="591" on="0"/>
        <pt x="155" y="541" on="0"/>
        <pt x="137" y="526" on="1"/>
        <pt x="119" y="511" on="0"/>
        <pt x="105" y="463" on="0"/>
        <pt x="105" y="413" on="0"/>
        <pt x="116" y="369" on="0"/>
        <pt x="122" y="358" on="1"/>
        <pt x="129" y="347" on="0"/>
        <pt x="152" y="318" on="0"/>
        <pt x="172" y="278" on="0"/>
        <pt x="184" y="227" on="0"/>
        <pt x="180" y="195" on="1"/>
        <pt x="184" y="227" on="0"/>
        <pt x="172" y="278" on="0"/>
        <pt x="152" y="318" on="0"/>
        <pt x="129" y="347" on="0"/>
        <pt x="122" y="358" on="1"/>
        <pt x="116" y="369" on="0"/>
        <pt x="105" y="413" on="0"/>
        <pt x="105" y="463" on="0"/>
        <pt x="119" y="511" on="0"/>
        <pt x="137" y="526" on="1"/>
        <pt x="155" y="541" on="0"/>
        <pt x="238" y="591" on="0"/>
        <pt x="361" y="644" on="0"/>
        <pt x="520" y="690" on="0"/>
        <pt x="612" y="701" on="1"/>
        <pt x="798" y="722" on="0"/>
        <pt x="995" y="616" on="0"/>
        <pt x="1006" y="493" on="1"/>
        <pt x="1010" y="445" on="0"/>
        <pt x="972" y="360" on="0"/>
        <pt x="913" y="295" on="0"/>
        <pt x="846" y="255" on="0"/>
        <pt x="822" y="252" on="1"/>
        <pt x="782" y="248" on="0"/>
        <pt x="734" y="252" on="0"/>
        <pt x="695" y="255" on="0"/>
        <pt x="655" y="251" on="0"/>
      </contour>
      <contour>
        <pt x="71" y="-1" on="1"/>
        <pt x="101" y="11" on="0"/>
        <pt x="179" y="14" on="0"/>
        <pt x="257" y="8" on="0"/>
        <pt x="324" y="-3" on="0"/>
        <pt x="343" y="-4" on="1"/>
        <pt x="362" y="-6" on="0"/>
        <pt x="402" y="0" on="0"/>
        <pt x="440" y="25" on="0"/>
        <pt x="474" y="75" on="0"/>
        <pt x="488" y="118" on="1"/>
        <pt x="502" y="160" on="0"/>
        <pt x="519" y="264" on="0"/>
        <pt x="547" y="378" on="0"/>
        <pt x="595" y="496" on="0"/>
        <pt x="640" y="552" on="1"/>
        <pt x="595" y="496" on="0"/>
        <pt x="547" y="378" on="0"/>
        <pt x="519" y="264" on="0"/>
        <pt x="502" y="160" on="0"/>
        <pt x="488" y="118" on="1"/>
        <pt x="474" y="75" on="0"/>
        <pt x="440" y="25" on="0"/>
        <pt x="402" y="0" on="0"/>
        <pt x="362" y="-6" on="0"/>
        <pt x="343" y="-4" on="1"/>
        <pt x="324" y="-3" on="0"/>
        <pt x="257" y="8" on="0"/>
        <pt x="179" y="14" on="0"/>
        <pt x="101" y="11" on="0"/>
      </contour>
    </TTGlyph>
    <TTGlyph name="Q" xMin="67" yMin="-50" xMax="845" yMax="704">
      <contour>
        <pt x="845" y="-36" on="1"/>
        <pt x="832" y="-41" on="0"/>
        <pt x="776" y="-47" on="0"/>
        <pt x="712" y="-50" on="0"/>
        <pt x="648" y="-49" on="0"/>
        <pt x="627" y="-46" on="1"/>
        <pt x="605" y="-42" on="0"/>
        <pt x="524" y="-21" on="0"/>
        <pt x="434" y="1" on="0"/>
        <pt x="347" y="18" on="0"/>
        <pt x="319" y="18" on="1"/>
        <pt x="291" y="18" on="0"/>
        <pt x="236" y="11" on="0"/>
        <pt x="176" y="-3" on="0"/>
        <pt x="107" y="-24" on="0"/>
        <pt x="67" y="-39" on="1"/>
        <pt x="107" y="-24" on="0"/>
        <pt x="176" y="-3" on="0"/>
        <pt x="236" y="11" on="0"/>
        <pt x="291" y="18" on="0"/>
        <pt x="319" y="18" on="1"/>
        <pt x="347" y="18" on="0"/>
        <pt x="434" y="1" on="0"/>
        <pt x="524" y="-21" on="0"/>
        <pt x="605" y="-42" on="0"/>
        <pt x="627" y="-46" on="1"/>
        <pt x="648" y="-49" on="0"/>
        <pt x="712" y="-50" on="0"/>
        <pt x="776" y="-47" on="0"/>
        <pt x="832" y="-41" on="0"/>
      </contour>
      <contour>
        <pt x="381" y="12" on="1"/>
        <pt x="475" y="55" on="0"/>
        <pt x="616" y="149" on="0"/>
        <pt x="717" y="242" on="0"/>
        <pt x="783" y="329" on="0"/>
        <pt x="802" y="364" on="1"/>
        <pt x="815" y="388" on="0"/>
        <pt x="835" y="457" on="0"/>
        <pt x="842" y="532" on="0"/>
        <pt x="830" y="607" on="0"/>
        <pt x="791" y="667" on="0"/>
        <pt x="721" y="704" on="0"/>
        <pt x="665" y="704" on="1"/>
        <pt x="582" y="704" on="0"/>
        <pt x="449" y="661" on="0"/>
        <pt x="346" y="588" on="0"/>
        <pt x="271" y="493" on="0"/>
        <pt x="246" y="442" on="1"/>
        <pt x="232" y="413" on="0"/>
        <pt x="216" y="331" on="0"/>
        <pt x="219" y="247" on="0"/>
        <pt x="244" y="171" on="0"/>
        <pt x="271" y="149" on="1"/>
        <pt x="289" y="134" on="0"/>
        <pt x="334" y="133" on="0"/>
        <pt x="386" y="150" on="0"/>
        <pt x="442" y="179" on="0"/>
        <pt x="502" y="206" on="0"/>
        <pt x="563" y="227" on="0"/>
        <pt x="593" y="228" on="1"/>
        <pt x="563" y="227" on="0"/>
        <pt x="502" y="206" on="0"/>
        <pt x="442" y="179" on="0"/>
        <pt x="386" y="150" on="0"/>
        <pt x="334" y="133" on="0"/>
        <pt x="289" y="134" on="0"/>
        <pt x="271" y="149" on="1"/>
        <pt x="244" y="171" on="0"/>
        <pt x="219" y="247" on="0"/>
        <pt x="216" y="332" on="0"/>
        <pt x="232" y="414" on="0"/>
        <pt x="246" y="442" on="1"/>
        <pt x="271" y="493" on="0"/>
        <pt x="346" y="588" on="0"/>
        <pt x="449" y="661" on="0"/>
        <pt x="582" y="704" on="0"/>
        <pt x="665" y="704" on="1"/>
        <pt x="721" y="704" on="0"/>
        <pt x="791" y="667" on="0"/>
        <pt x="830" y="607" on="0"/>
        <pt x="842" y="532" on="0"/>
        <pt x="835" y="457" on="0"/>
        <pt x="815" y="388" on="0"/>
        <pt x="802" y="364" on="1"/>
        <pt x="783" y="329" on="0"/>
        <pt x="717" y="242" on="0"/>
        <pt x="616" y="149" on="0"/>
        <pt x="475" y="55" on="0"/>
      </contour>
    </TTGlyph>
    <TTGlyph name="R" xMin="108" yMin="-119" xMax="1350" yMax="706">
      <contour>
        <pt x="1135" y="-119" on="1"/>
        <pt x="1126" y="-110" on="0"/>
        <pt x="1101" y="-91" on="0"/>
        <pt x="1077" y="-64" on="0"/>
        <pt x="1058" y="-24" on="0"/>
        <pt x="1055" y="6" on="1"/>
        <pt x="1052" y="37" on="0"/>
        <pt x="1030" y="128" on="0"/>
        <pt x="992" y="228" on="0"/>
        <pt x="936" y="327" on="0"/>
        <pt x="900" y="366" on="1"/>
        <pt x="936" y="326" on="0"/>
        <pt x="1023" y="295" on="0"/>
        <pt x="1110" y="300" on="0"/>
        <pt x="1193" y="333" on="0"/>
        <pt x="1226" y="357" on="1"/>
        <pt x="1248" y="373" on="0"/>
        <pt x="1296" y="438" on="0"/>
        <pt x="1333" y="516" on="0"/>
        <pt x="1350" y="597" on="0"/>
        <pt x="1333" y="664" on="0"/>
        <pt x="1272" y="706" on="0"/>
        <pt x="1213" y="705" on="1"/>
        <pt x="1148" y="704" on="0"/>
        <pt x="1031" y="671" on="0"/>
        <pt x="936" y="615" on="0"/>
        <pt x="869" y="538" on="0"/>
        <pt x="854" y="492" on="1"/>
        <pt x="848" y="474" on="0"/>
        <pt x="828" y="404" on="0"/>
        <pt x="797" y="317" on="0"/>
        <pt x="758" y="219" on="0"/>
        <pt x="708" y="127" on="0"/>
        <pt x="649" y="49" on="0"/>
        <pt x="614" y="25" on="1"/>
        <pt x="579" y="1" on="0"/>
        <pt x="477" y="-25" on="0"/>
        <pt x="364" y="-30" on="0"/>
        <pt x="253" y="-18" on="0"/>
        <pt x="164" y="10" on="0"/>
        <pt x="108" y="50" on="0"/>
        <pt x="108" y="76" on="1"/>
        <pt x="108" y="93" on="0"/>
        <pt x="153" y="134" on="0"/>
        <pt x="230" y="175" on="0"/>
        <pt x="332" y="214" on="0"/>
        <pt x="444" y="244" on="0"/>
        <pt x="561" y="264" on="0"/>
        <pt x="614" y="265" on="1"/>
        <pt x="561" y="264" on="0"/>
        <pt x="444" y="244" on="0"/>
        <pt x="332" y="214" on="0"/>
        <pt x="230" y="175" on="0"/>
        <pt x="153" y="134" on="0"/>
        <pt x="108" y="93" on="0"/>
        <pt x="108" y="76" on="1"/>
        <pt x="108" y="51" on="0"/>
        <pt x="164" y="10" on="0"/>
        <pt x="253" y="-18" on="0"/>
        <pt x="364" y="-30" on="0"/>
        <pt x="477" y="-25" on="0"/>
        <pt x="579" y="1" on="0"/>
        <pt x="614" y="25" on="1"/>
        <pt x="649" y="49" on="0"/>
        <pt x="708" y="127" on="0"/>
        <pt x="758" y="219" on="0"/>
        <pt x="797" y="317" on="0"/>
        <pt x="828" y="404" on="0"/>
        <pt x="848" y="474" on="0"/>
        <pt x="854" y="492" on="1"/>
        <pt x="869" y="538" on="0"/>
        <pt x="936" y="615" on="0"/>
        <pt x="1031" y="671" on="0"/>
        <pt x="1148" y="704" on="0"/>
        <pt x="1213" y="705" on="1"/>
        <pt x="1272" y="706" on="0"/>
        <pt x="1333" y="664" on="0"/>
        <pt x="1350" y="597" on="0"/>
        <pt x="1333" y="516" on="0"/>
        <pt x="1296" y="438" on="0"/>
        <pt x="1248" y="373" on="0"/>
        <pt x="1226" y="357" on="1"/>
        <pt x="1193" y="333" on="0"/>
        <pt x="1110" y="300" on="0"/>
        <pt x="1023" y="295" on="0"/>
        <pt x="936" y="326" on="0"/>
        <pt x="900" y="366" on="1"/>
        <pt x="936" y="327" on="0"/>
        <pt x="992" y="228" on="0"/>
        <pt x="1030" y="128" on="0"/>
        <pt x="1052" y="37" on="0"/>
        <pt x="1055" y="6" on="1"/>
        <pt x="1058" y="-24" on="0"/>
        <pt x="1077" y="-64" on="0"/>
        <pt x="1101" y="-91" on="0"/>
        <pt x="1126" y="-110" on="0"/>
      </contour>
    </TTGlyph>
    <TTGlyph name="S" xMin="104" yMin="-3" xMax="926" yMax="718">
      <contour>
        <pt x="926" y="616" on="1"/>
        <pt x="926" y="631" on="0"/>
        <pt x="922" y="665" on="0"/>
        <pt x="900" y="695" on="0"/>
        <pt x="850" y="716" on="0"/>
        <pt x="805" y="717" on="1"/>
        <pt x="759" y="718" on="0"/>
        <pt x="669" y="699" on="0"/>
        <pt x="598" y="664" on="0"/>
        <pt x="555" y="618" on="0"/>
        <pt x="556" y="591" on="1"/>
        <pt x="557" y="565" on="0"/>
        <pt x="599" y="498" on="0"/>
        <pt x="661" y="423" on="0"/>
        <pt x="730" y="346" on="0"/>
        <pt x="759" y="309" on="1"/>
        <pt x="787" y="273" on="0"/>
        <pt x="829" y="206" on="0"/>
        <pt x="845" y="143" on="0"/>
        <pt x="831" y="83" on="0"/>
        <pt x="805" y="53" on="1"/>
        <pt x="792" y="38" on="0"/>
        <pt x="718" y="17" on="0"/>
        <pt x="615" y="3" on="0"/>
        <pt x="492" y="-3" on="0"/>
        <pt x="368" y="0" on="0"/>
        <pt x="251" y="10" on="0"/>
        <pt x="161" y="29" on="0"/>
        <pt x="106" y="57" on="0"/>
        <pt x="105" y="75" on="1"/>
        <pt x="104" y="99" on="0"/>
        <pt x="170" y="145" on="0"/>
        <pt x="275" y="183" on="0"/>
        <pt x="404" y="214" on="0"/>
        <pt x="529" y="233" on="0"/>
        <pt x="635" y="241" on="0"/>
        <pt x="665" y="237" on="1"/>
        <pt x="636" y="241" on="0"/>
        <pt x="529" y="233" on="0"/>
        <pt x="404" y="214" on="0"/>
        <pt x="275" y="183" on="0"/>
        <pt x="170" y="145" on="0"/>
        <pt x="104" y="99" on="0"/>
        <pt x="105" y="75" on="1"/>
        <pt x="106" y="57" on="0"/>
        <pt x="161" y="29" on="0"/>
        <pt x="251" y="10" on="0"/>
        <pt x="368" y="0" on="0"/>
        <pt x="492" y="-3" on="0"/>
        <pt x="615" y="3" on="0"/>
        <pt x="718" y="17" on="0"/>
        <pt x="792" y="38" on="0"/>
        <pt x="805" y="53" on="1"/>
        <pt x="831" y="83" on="0"/>
        <pt x="845" y="143" on="0"/>
        <pt x="829" y="206" on="0"/>
        <pt x="787" y="273" on="0"/>
        <pt x="759" y="309" on="1"/>
        <pt x="730" y="346" on="0"/>
        <pt x="661" y="423" on="0"/>
        <pt x="599" y="498" on="0"/>
        <pt x="557" y="565" on="0"/>
        <pt x="556" y="591" on="1"/>
        <pt x="555" y="618" on="0"/>
        <pt x="598" y="664" on="0"/>
        <pt x="669" y="699" on="0"/>
        <pt x="759" y="718" on="0"/>
        <pt x="805" y="717" on="1"/>
        <pt x="850" y="716" on="0"/>
        <pt x="900" y="695" on="0"/>
        <pt x="922" y="665" on="0"/>
        <pt x="926" y="631" on="0"/>
      </contour>
    </TTGlyph>
    <TTGlyph name="T" xMin="108" yMin="-13" xMax="932" yMax="695">
      <contour>
        <pt x="126" y="-13" on="1"/>
        <pt x="146" y="-3" on="0"/>
        <pt x="208" y="6" on="0"/>
        <pt x="278" y="7" on="0"/>
        <pt x="354" y="4" on="0"/>
        <pt x="422" y="-1" on="0"/>
        <pt x="480" y="-5" on="0"/>
        <pt x="497" y="-5" on="1"/>
        <pt x="523" y="-5" on="0"/>
        <pt x="570" y="1" on="0"/>
        <pt x="613" y="21" on="0"/>
        <pt x="655" y="60" on="0"/>
        <pt x="677" y="92" on="1"/>
        <pt x="688" y="107" on="0"/>
        <pt x="710" y="190" on="0"/>
        <pt x="738" y="299" on="0"/>
        <pt x="774" y="421" on="0"/>
        <pt x="824" y="531" on="0"/>
        <pt x="889" y="615" on="0"/>
        <pt x="932" y="632" on="1"/>
        <pt x="915" y="634" on="0"/>
        <pt x="838" y="643" on="0"/>
        <pt x="735" y="656" on="0"/>
        <pt x="612" y="670" on="0"/>
        <pt x="486" y="682" on="0"/>
        <pt x="363" y="691" on="0"/>
        <pt x="261" y="695" on="0"/>
        <pt x="185" y="690" on="0"/>
        <pt x="168" y="683" on="1"/>
        <pt x="146" y="673" on="0"/>
        <pt x="120" y="628" on="0"/>
        <pt x="108" y="570" on="0"/>
        <pt x="108" y="502" on="0"/>
        <pt x="116" y="436" on="0"/>
        <pt x="129" y="376" on="0"/>
        <pt x="136" y="354" on="1"/>
        <pt x="129" y="376" on="0"/>
        <pt x="116" y="436" on="0"/>
        <pt x="108" y="502" on="0"/>
        <pt x="108" y="570" on="0"/>
        <pt x="120" y="628" on="0"/>
        <pt x="146" y="673" on="0"/>
        <pt x="168" y="683" on="1"/>
        <pt x="185" y="690" on="0"/>
        <pt x="261" y="695" on="0"/>
        <pt x="363" y="691" on="0"/>
        <pt x="486" y="682" on="0"/>
        <pt x="612" y="670" on="0"/>
        <pt x="735" y="656" on="0"/>
        <pt x="838" y="643" on="0"/>
        <pt x="915" y="634" on="0"/>
        <pt x="932" y="632" on="1"/>
        <pt x="889" y="615" on="0"/>
        <pt x="824" y="531" on="0"/>
        <pt x="774" y="421" on="0"/>
        <pt x="738" y="299" on="0"/>
        <pt x="710" y="190" on="0"/>
        <pt x="688" y="108" on="0"/>
        <pt x="677" y="92" on="1"/>
        <pt x="655" y="59" on="0"/>
        <pt x="613" y="21" on="0"/>
        <pt x="570" y="1" on="0"/>
        <pt x="523" y="-5" on="0"/>
        <pt x="497" y="-5" on="1"/>
        <pt x="479" y="-5" on="0"/>
        <pt x="422" y="-1" on="0"/>
        <pt x="354" y="4" on="0"/>
        <pt x="278" y="7" on="0"/>
        <pt x="208" y="6" on="0"/>
        <pt x="146" y="-3" on="0"/>
      </contour>
    </TTGlyph>
    <TTGlyph name="U" xMin="101" yMin="-11" xMax="981" yMax="711">
      <contour>
        <pt x="840" y="306" on="1"/>
        <pt x="813" y="224" on="0"/>
        <pt x="708" y="99" on="0"/>
        <pt x="589" y="20" on="0"/>
        <pt x="472" y="-11" on="0"/>
        <pt x="433" y="1" on="1"/>
        <pt x="413" y="7" on="0"/>
        <pt x="402" y="61" on="0"/>
        <pt x="410" y="142" on="0"/>
        <pt x="434" y="243" on="0"/>
        <pt x="466" y="349" on="0"/>
        <pt x="502" y="451" on="0"/>
        <pt x="533" y="535" on="0"/>
        <pt x="555" y="594" on="0"/>
        <pt x="557" y="602" on="1"/>
        <pt x="562" y="619" on="0"/>
        <pt x="553" y="657" on="0"/>
        <pt x="519" y="690" on="0"/>
        <pt x="456" y="711" on="0"/>
        <pt x="407" y="711" on="1"/>
        <pt x="308" y="711" on="0"/>
        <pt x="173" y="658" on="0"/>
        <pt x="128" y="611" on="1"/>
        <pt x="105" y="588" on="0"/>
        <pt x="101" y="511" on="0"/>
        <pt x="118" y="422" on="0"/>
        <pt x="147" y="331" on="0"/>
        <pt x="159" y="295" on="1"/>
        <pt x="147" y="331" on="0"/>
        <pt x="118" y="422" on="0"/>
        <pt x="101" y="511" on="0"/>
        <pt x="105" y="588" on="0"/>
        <pt x="128" y="611" on="1"/>
        <pt x="173" y="658" on="0"/>
        <pt x="308" y="711" on="0"/>
        <pt x="407" y="711" on="1"/>
        <pt x="456" y="711" on="0"/>
        <pt x="519" y="690" on="0"/>
        <pt x="553" y="657" on="0"/>
        <pt x="562" y="619" on="0"/>
        <pt x="557" y="602" on="1"/>
        <pt x="555" y="594" on="0"/>
        <pt x="533" y="535" on="0"/>
        <pt x="502" y="451" on="0"/>
        <pt x="466" y="349" on="0"/>
        <pt x="434" y="243" on="0"/>
        <pt x="410" y="142" on="0"/>
        <pt x="402" y="61" on="0"/>
        <pt x="413" y="7" on="0"/>
        <pt x="433" y="1" on="1"/>
        <pt x="472" y="-11" on="0"/>
        <pt x="589" y="20" on="0"/>
        <pt x="708" y="99" on="0"/>
        <pt x="813" y="224" on="0"/>
      </contour>
      <contour>
        <pt x="981" y="42" on="1"/>
        <pt x="922" y="10" on="0"/>
        <pt x="879" y="3" on="1"/>
        <pt x="860" y="0" on="0"/>
        <pt x="826" y="4" on="0"/>
        <pt x="802" y="25" on="0"/>
        <pt x="791" y="66" on="0"/>
        <pt x="796" y="100" on="1"/>
        <pt x="806" y="169" on="0"/>
        <pt x="840" y="315" on="0"/>
        <pt x="887" y="454" on="0"/>
        <pt x="943" y="580" on="0"/>
        <pt x="974" y="628" on="1"/>
        <pt x="943" y="580" on="0"/>
        <pt x="887" y="454" on="0"/>
        <pt x="840" y="315" on="0"/>
        <pt x="806" y="169" on="0"/>
        <pt x="796" y="100" on="1"/>
        <pt x="791" y="66" on="0"/>
        <pt x="802" y="25" on="0"/>
        <pt x="826" y="4" on="0"/>
        <pt x="860" y="0" on="0"/>
        <pt x="879" y="3" on="1"/>
        <pt x="922" y="10" on="0"/>
      </contour>
    </TTGlyph>
    <TTGlyph name="V" xMin="101" yMin="-46" xMax="964" yMax="698">
      <contour>
        <pt x="963" y="665" on="1"/>
        <pt x="964" y="651" on="0"/>
        <pt x="955" y="605" on="0"/>
        <pt x="940" y="551" on="0"/>
        <pt x="920" y="496" on="0"/>
        <pt x="908" y="473" on="1"/>
        <pt x="883" y="425" on="0"/>
        <pt x="818" y="320" on="0"/>
        <pt x="746" y="217" on="0"/>
        <pt x="671" y="120" on="0"/>
        <pt x="603" y="37" on="0"/>
        <pt x="548" y="-28" on="0"/>
        <pt x="531" y="-46" on="1"/>
        <pt x="514" y="-18" on="0"/>
        <pt x="508" y="99" on="0"/>
        <pt x="518" y="241" on="0"/>
        <pt x="539" y="393" on="0"/>
        <pt x="560" y="520" on="0"/>
        <pt x="576" y="605" on="0"/>
        <pt x="576" y="610" on="1"/>
        <pt x="576" y="617" on="0"/>
        <pt x="577" y="647" on="0"/>
        <pt x="559" y="676" on="0"/>
        <pt x="514" y="698" on="0"/>
        <pt x="468" y="698" on="1"/>
        <pt x="422" y="698" on="0"/>
        <pt x="333" y="660" on="0"/>
        <pt x="249" y="597" on="0"/>
        <pt x="172" y="514" on="0"/>
        <pt x="139" y="470" on="1"/>
        <pt x="106" y="426" on="0"/>
        <pt x="101" y="337" on="0"/>
        <pt x="130" y="258" on="0"/>
        <pt x="179" y="195" on="0"/>
        <pt x="200" y="179" on="1"/>
        <pt x="179" y="195" on="0"/>
        <pt x="130" y="258" on="0"/>
        <pt x="101" y="337" on="0"/>
        <pt x="106" y="426" on="0"/>
        <pt x="139" y="470" on="1"/>
        <pt x="172" y="514" on="0"/>
        <pt x="249" y="597" on="0"/>
        <pt x="333" y="660" on="0"/>
        <pt x="422" y="698" on="0"/>
        <pt x="468" y="698" on="1"/>
        <pt x="514" y="698" on="0"/>
        <pt x="559" y="676" on="0"/>
        <pt x="577" y="647" on="0"/>
        <pt x="576" y="617" on="0"/>
        <pt x="576" y="610" on="1"/>
        <pt x="576" y="605" on="0"/>
        <pt x="560" y="520" on="0"/>
        <pt x="539" y="393" on="0"/>
        <pt x="518" y="241" on="0"/>
        <pt x="508" y="99" on="0"/>
        <pt x="514" y="-18" on="0"/>
        <pt x="531" y="-46" on="1"/>
        <pt x="548" y="-28" on="0"/>
        <pt x="603" y="37" on="0"/>
        <pt x="671" y="120" on="0"/>
        <pt x="746" y="217" on="0"/>
        <pt x="818" y="320" on="0"/>
        <pt x="883" y="425" on="0"/>
        <pt x="908" y="473" on="1"/>
        <pt x="920" y="496" on="0"/>
        <pt x="940" y="551" on="0"/>
        <pt x="955" y="605" on="0"/>
        <pt x="964" y="651" on="0"/>
      </contour>
    </TTGlyph>
    <TTGlyph name="W" xMin="104" yMin="-7" xMax="1226" yMax="699">
      <contour>
        <pt x="1226" y="689" on="1"/>
        <pt x="1224" y="670" on="0"/>
        <pt x="1211" y="581" on="0"/>
        <pt x="1190" y="531" on="1"/>
        <pt x="1171" y="486" on="0"/>
        <pt x="1121" y="386" on="0"/>
        <pt x="1066" y="282" on="0"/>
        <pt x="1009" y="181" on="0"/>
        <pt x="956" y="91" on="0"/>
        <pt x="910" y="17" on="0"/>
        <pt x="894" y="-7" on="1"/>
        <pt x="885" y="15" on="0"/>
        <pt x="878" y="101" on="0"/>
        <pt x="878" y="212" on="0"/>
        <pt x="883" y="339" on="0"/>
        <pt x="890" y="465" on="0"/>
        <pt x="897" y="582" on="0"/>
        <pt x="899" y="626" on="1"/>
        <pt x="866" y="587" on="0"/>
        <pt x="804" y="481" on="0"/>
        <pt x="746" y="362" on="0"/>
        <pt x="694" y="239" on="0"/>
        <pt x="649" y="124" on="0"/>
        <pt x="612" y="26" on="0"/>
        <pt x="598" y="-7" on="1"/>
        <pt x="582" y="27" on="0"/>
        <pt x="568" y="143" on="0"/>
        <pt x="567" y="278" on="0"/>
        <pt x="573" y="420" on="0"/>
        <pt x="582" y="540" on="0"/>
        <pt x="590" y="625" on="0"/>
        <pt x="590" y="637" on="1"/>
        <pt x="590" y="654" on="0"/>
        <pt x="586" y="678" on="0"/>
        <pt x="570" y="693" on="0"/>
        <pt x="539" y="699" on="0"/>
        <pt x="512" y="699" on="1"/>
        <pt x="466" y="699" on="0"/>
        <pt x="357" y="658" on="0"/>
        <pt x="252" y="598" on="0"/>
        <pt x="163" y="530" on="0"/>
        <pt x="136" y="503" on="1"/>
        <pt x="109" y="476" on="0"/>
        <pt x="104" y="405" on="0"/>
        <pt x="128" y="330" on="0"/>
        <pt x="169" y="255" on="0"/>
        <pt x="188" y="223" on="1"/>
        <pt x="169" y="255" on="0"/>
        <pt x="128" y="330" on="0"/>
        <pt x="104" y="405" on="0"/>
        <pt x="109" y="476" on="0"/>
        <pt x="136" y="503" on="1"/>
        <pt x="163" y="530" on="0"/>
        <pt x="252" y="598" on="0"/>
        <pt x="357" y="658" on="0"/>
        <pt x="466" y="699" on="0"/>
        <pt x="512" y="699" on="1"/>
        <pt x="539" y="699" on="0"/>
        <pt x="570" y="693" on="0"/>
        <pt x="586" y="678" on="0"/>
        <pt x="590" y="654" on="0"/>
        <pt x="590" y="637" on="1"/>
        <pt x="590" y="625" on="0"/>
        <pt x="582" y="540" on="0"/>
        <pt x="573" y="420" on="0"/>
        <pt x="567" y="278" on="0"/>
        <pt x="568" y="143" on="0"/>
        <pt x="582" y="27" on="0"/>
        <pt x="598" y="-7" on="1"/>
        <pt x="611" y="26" on="0"/>
        <pt x="649" y="124" on="0"/>
        <pt x="694" y="239" on="0"/>
        <pt x="746" y="362" on="0"/>
        <pt x="804" y="481" on="0"/>
        <pt x="867" y="587" on="0"/>
        <pt x="899" y="626" on="1"/>
        <pt x="897" y="581" on="0"/>
        <pt x="890" y="465" on="0"/>
        <pt x="883" y="339" on="0"/>
        <pt x="878" y="212" on="0"/>
        <pt x="878" y="101" on="0"/>
        <pt x="885" y="15" on="0"/>
        <pt x="894" y="-7" on="1"/>
        <pt x="910" y="17" on="0"/>
        <pt x="956" y="91" on="0"/>
        <pt x="1009" y="181" on="0"/>
        <pt x="1066" y="282" on="0"/>
        <pt x="1121" y="386" on="0"/>
        <pt x="1171" y="487" on="0"/>
        <pt x="1190" y="531" on="1"/>
        <pt x="1211" y="581" on="0"/>
        <pt x="1224" y="670" on="0"/>
      </contour>
    </TTGlyph>
    <TTGlyph name="X" xMin="54" yMin="-140" xMax="1014" yMax="699">
      <contour>
        <pt x="54" y="-18" on="1"/>
        <pt x="98" y="-3" on="0"/>
        <pt x="238" y="2" on="0"/>
        <pt x="347" y="-3" on="1"/>
        <pt x="374" y="-4" on="0"/>
        <pt x="455" y="43" on="0"/>
        <pt x="551" y="124" on="0"/>
        <pt x="658" y="232" on="0"/>
        <pt x="764" y="350" on="0"/>
        <pt x="863" y="471" on="0"/>
        <pt x="944" y="579" on="0"/>
        <pt x="1002" y="666" on="0"/>
        <pt x="1014" y="692" on="1"/>
        <pt x="1002" y="666" on="0"/>
        <pt x="944" y="579" on="0"/>
        <pt x="863" y="471" on="0"/>
        <pt x="764" y="350" on="0"/>
        <pt x="658" y="232" on="0"/>
        <pt x="551" y="124" on="0"/>
        <pt x="455" y="43" on="0"/>
        <pt x="374" y="-4" on="0"/>
        <pt x="347" y="-3" on="1"/>
        <pt x="238" y="2" on="0"/>
        <pt x="98" y="-3" on="0"/>
      </contour>
      <contour>
        <pt x="893" y="-140" on="1"/>
        <pt x="872" y="-117" on="0"/>
        <pt x="825" y="-32" on="0"/>
        <pt x="779" y="76" on="0"/>
        <pt x="733" y="199" on="0"/>
        <pt x="692" y="322" on="0"/>
        <pt x="656" y="437" on="0"/>
        <pt x="628" y="529" on="0"/>
        <pt x="610" y="590" on="0"/>
        <pt x="608" y="598" on="1"/>
        <pt x="603" y="613" on="0"/>
        <pt x="585" y="648" on="0"/>
        <pt x="554" y="679" on="0"/>
        <pt x="508" y="699" on="0"/>
        <pt x="475" y="699" on="1"/>
        <pt x="426" y="699" on="0"/>
        <pt x="327" y="666" on="0"/>
        <pt x="242" y="617" on="0"/>
        <pt x="179" y="559" on="0"/>
        <pt x="167" y="534" on="1"/>
        <pt x="155" y="509" on="0"/>
        <pt x="172" y="444" on="0"/>
        <pt x="200" y="379" on="0"/>
        <pt x="225" y="322" on="0"/>
        <pt x="222" y="306" on="1"/>
        <pt x="225" y="322" on="0"/>
        <pt x="200" y="379" on="0"/>
        <pt x="172" y="444" on="0"/>
        <pt x="155" y="509" on="0"/>
        <pt x="167" y="534" on="1"/>
        <pt x="179" y="559" on="0"/>
        <pt x="242" y="617" on="0"/>
        <pt x="327" y="666" on="0"/>
        <pt x="426" y="699" on="0"/>
        <pt x="475" y="699" on="1"/>
        <pt x="508" y="699" on="0"/>
        <pt x="554" y="679" on="0"/>
        <pt x="585" y="648" on="0"/>
        <pt x="603" y="613" on="0"/>
        <pt x="608" y="598" on="1"/>
        <pt x="610" y="590" on="0"/>
        <pt x="628" y="529" on="0"/>
        <pt x="656" y="437" on="0"/>
        <pt x="692" y="322" on="0"/>
        <pt x="733" y="199" on="0"/>
        <pt x="779" y="76" on="0"/>
        <pt x="825" y="-32" on="0"/>
        <pt x="872" y="-117" on="0"/>
      </contour>
    </TTGlyph>
    <TTGlyph name="Y" xMin="107" yMin="-288" xMax="1009" yMax="698">
      <contour>
        <pt x="872" y="300" on="1"/>
        <pt x="861" y="264" on="0"/>
        <pt x="801" y="180" on="0"/>
        <pt x="722" y="99" on="0"/>
        <pt x="632" y="30" on="0"/>
        <pt x="550" y="-13" on="0"/>
        <pt x="484" y="-21" on="0"/>
        <pt x="469" y="0" on="1"/>
        <pt x="451" y="23" on="0"/>
        <pt x="449" y="108" on="0"/>
        <pt x="468" y="216" on="0"/>
        <pt x="499" y="337" on="0"/>
        <pt x="531" y="456" on="0"/>
        <pt x="557" y="565" on="0"/>
        <pt x="563" y="649" on="0"/>
        <pt x="543" y="698" on="0"/>
        <pt x="513" y="697" on="1"/>
        <pt x="427" y="695" on="0"/>
        <pt x="298" y="654" on="0"/>
        <pt x="204" y="598" on="0"/>
        <pt x="143" y="537" on="0"/>
        <pt x="125" y="516" on="1"/>
        <pt x="107" y="494" on="0"/>
        <pt x="114" y="422" on="0"/>
        <pt x="146" y="342" on="0"/>
        <pt x="194" y="263" on="0"/>
        <pt x="216" y="235" on="1"/>
        <pt x="194" y="263" on="0"/>
        <pt x="146" y="342" on="0"/>
        <pt x="114" y="422" on="0"/>
        <pt x="107" y="494" on="0"/>
        <pt x="125" y="516" on="1"/>
        <pt x="143" y="537" on="0"/>
        <pt x="204" y="598" on="0"/>
        <pt x="298" y="654" on="0"/>
        <pt x="427" y="695" on="0"/>
        <pt x="513" y="697" on="1"/>
        <pt x="543" y="698" on="0"/>
        <pt x="563" y="649" on="0"/>
        <pt x="557" y="565" on="0"/>
        <pt x="532" y="456" on="0"/>
        <pt x="500" y="337" on="0"/>
        <pt x="468" y="216" on="0"/>
        <pt x="450" y="108" on="0"/>
        <pt x="452" y="23" on="0"/>
        <pt x="469" y="0" on="1"/>
        <pt x="484" y="-21" on="0"/>
        <pt x="550" y="-13" on="0"/>
        <pt x="632" y="30" on="0"/>
        <pt x="722" y="99" on="0"/>
        <pt x="801" y="180" on="0"/>
        <pt x="861" y="264" on="0"/>
      </contour>
      <contour>
        <pt x="349" y="-270" on="1"/>
        <pt x="433" y="-288" on="0"/>
        <pt x="593" y="-270" on="0"/>
        <pt x="719" y="-210" on="0"/>
        <pt x="798" y="-116" on="0"/>
        <pt x="802" y="-58" on="1"/>
        <pt x="805" y="-20" on="0"/>
        <pt x="823" y="91" on="0"/>
        <pt x="852" y="220" on="0"/>
        <pt x="889" y="357" on="0"/>
        <pt x="933" y="485" on="0"/>
        <pt x="983" y="595" on="0"/>
        <pt x="1009" y="632" on="1"/>
        <pt x="982" y="595" on="0"/>
        <pt x="933" y="485" on="0"/>
        <pt x="889" y="357" on="0"/>
        <pt x="852" y="220" on="0"/>
        <pt x="823" y="91" on="0"/>
        <pt x="805" y="-20" on="0"/>
        <pt x="802" y="-58" on="1"/>
        <pt x="798" y="-116" on="0"/>
        <pt x="719" y="-210" on="0"/>
        <pt x="593" y="-270" on="0"/>
        <pt x="433" y="-288" on="0"/>
      </contour>
    </TTGlyph>
    <TTGlyph name="Z" xMin="72" yMin="-14" xMax="873" yMax="701">
      <contour>
        <pt x="218" y="19" on="1"/>
        <pt x="249" y="26" on="0"/>
        <pt x="320" y="83" on="0"/>
        <pt x="397" y="168" on="0"/>
        <pt x="480" y="274" on="0"/>
        <pt x="566" y="386" on="0"/>
        <pt x="654" y="497" on="0"/>
        <pt x="742" y="592" on="0"/>
        <pt x="830" y="665" on="0"/>
        <pt x="873" y="683" on="1"/>
        <pt x="789" y="701" on="0"/>
        <pt x="613" y="701" on="0"/>
        <pt x="455" y="676" on="0"/>
        <pt x="328" y="632" on="0"/>
        <pt x="293" y="606" on="1"/>
        <pt x="258" y="580" on="0"/>
        <pt x="245" y="515" on="0"/>
        <pt x="269" y="443" on="0"/>
        <pt x="319" y="370" on="0"/>
        <pt x="348" y="337" on="1"/>
        <pt x="319" y="370" on="0"/>
        <pt x="269" y="443" on="0"/>
        <pt x="245" y="515" on="0"/>
        <pt x="258" y="580" on="0"/>
        <pt x="293" y="606" on="1"/>
        <pt x="328" y="632" on="0"/>
        <pt x="455" y="676" on="0"/>
        <pt x="613" y="701" on="0"/>
        <pt x="789" y="701" on="0"/>
        <pt x="873" y="683" on="1"/>
        <pt x="830" y="665" on="0"/>
        <pt x="742" y="592" on="0"/>
        <pt x="654" y="497" on="0"/>
        <pt x="566" y="386" on="0"/>
        <pt x="480" y="274" on="0"/>
        <pt x="397" y="168" on="0"/>
        <pt x="320" y="83" on="0"/>
        <pt x="249" y="26" on="0"/>
      </contour>
      <contour>
        <pt x="728" y="28" on="1"/>
        <pt x="710" y="1" on="0"/>
        <pt x="617" y="-14" on="0"/>
        <pt x="494" y="-7" on="0"/>
        <pt x="352" y="12" on="0"/>
        <pt x="219" y="22" on="0"/>
        <pt x="105" y="15" on="0"/>
        <pt x="72" y="-6" on="1"/>
        <pt x="106" y="16" on="0"/>
        <pt x="219" y="22" on="0"/>
        <pt x="352" y="12" on="0"/>
        <pt x="494" y="-7" on="0"/>
        <pt x="617" y="-14" on="0"/>
        <pt x="710" y="1" on="0"/>
      </contour>
    </TTGlyph>
    <TTGlyph name="a" xMin="108" yMin="-7" xMax="468" yMax="280">
      <contour>
        <pt x="468" y="17" on="1"/>
        <pt x="451" y="4" on="0"/>
        <pt x="405" y="-7" on="0"/>
        <pt x="367" y="1" on="0"/>
        <pt x="346" y="28" on="0"/>
        <pt x="355" y="52" on="1"/>
        <pt x="364" y="77" on="0"/>
        <pt x="383" y="131" on="0"/>
        <pt x="399" y="182" on="0"/>
        <pt x="408" y="225" on="0"/>
        <pt x="407" y="239" on="1"/>
        <pt x="405" y="250" on="0"/>
        <pt x="399" y="259" on="1"/>
        <pt x="393" y="267" on="0"/>
        <pt x="370" y="278" on="0"/>
        <pt x="350" y="279" on="1"/>
        <pt x="303" y="280" on="0"/>
        <pt x="226" y="248" on="0"/>
        <pt x="168" y="197" on="0"/>
        <pt x="128" y="134" on="0"/>
        <pt x="108" y="74" on="0"/>
        <pt x="108" y="24" on="0"/>
        <pt x="118" y="12" on="1"/>
        <pt x="132" y="-7" on="0"/>
        <pt x="201" y="-5" on="0"/>
        <pt x="243" y="14" on="1"/>
        <pt x="284" y="34" on="0"/>
        <pt x="347" y="96" on="0"/>
        <pt x="388" y="149" on="1"/>
        <pt x="347" y="96" on="0"/>
        <pt x="284" y="34" on="0"/>
        <pt x="243" y="14" on="1"/>
        <pt x="201" y="-5" on="0"/>
        <pt x="132" y="-7" on="0"/>
        <pt x="118" y="12" on="1"/>
        <pt x="108" y="24" on="0"/>
        <pt x="108" y="74" on="0"/>
        <pt x="128" y="134" on="0"/>
        <pt x="168" y="197" on="0"/>
        <pt x="226" y="248" on="0"/>
        <pt x="303" y="280" on="0"/>
        <pt x="350" y="279" on="1"/>
        <pt x="370" y="278" on="0"/>
        <pt x="393" y="267" on="0"/>
        <pt x="399" y="259" on="1"/>
        <pt x="405" y="250" on="0"/>
        <pt x="407" y="239" on="1"/>
        <pt x="408" y="225" on="0"/>
        <pt x="399" y="182" on="0"/>
        <pt x="383" y="131" on="0"/>
        <pt x="364" y="77" on="0"/>
        <pt x="355" y="52" on="1"/>
        <pt x="346" y="28" on="0"/>
        <pt x="367" y="1" on="0"/>
        <pt x="405" y="-7" on="0"/>
        <pt x="451" y="4" on="0"/>
      </contour>
    </TTGlyph>
    <TTGlyph name="ampersand" xMin="92" yMin="-10" xMax="822" yMax="656">
      <contour>
        <pt x="822" y="325" on="1"/>
        <pt x="796" y="308" on="0"/>
        <pt x="745" y="303" on="0"/>
        <pt x="691" y="308" on="0"/>
        <pt x="629" y="312" on="0"/>
        <pt x="592" y="304" on="1"/>
        <pt x="611" y="305" on="0"/>
        <pt x="651" y="293" on="0"/>
        <pt x="680" y="266" on="0"/>
        <pt x="695" y="225" on="0"/>
        <pt x="682" y="173" on="0"/>
        <pt x="637" y="111" on="0"/>
        <pt x="592" y="75" on="1"/>
        <pt x="547" y="39" on="0"/>
        <pt x="432" y="1" on="0"/>
        <pt x="315" y="-10" on="0"/>
        <pt x="207" y="4" on="0"/>
        <pt x="128" y="37" on="0"/>
        <pt x="92" y="86" on="0"/>
        <pt x="105" y="116" on="1"/>
        <pt x="127" y="166" on="0"/>
        <pt x="220" y="261" on="0"/>
        <pt x="338" y="337" on="0"/>
        <pt x="467" y="387" on="0"/>
        <pt x="524" y="392" on="1"/>
        <pt x="511" y="390" on="0"/>
        <pt x="463" y="386" on="0"/>
        <pt x="406" y="385" on="0"/>
        <pt x="350" y="392" on="0"/>
        <pt x="308" y="410" on="0"/>
        <pt x="288" y="442" on="0"/>
        <pt x="296" y="469" on="1"/>
        <pt x="304" y="495" on="0"/>
        <pt x="350" y="542" on="0"/>
        <pt x="413" y="582" on="0"/>
        <pt x="486" y="615" on="0"/>
        <pt x="557" y="639" on="0"/>
        <pt x="618" y="653" on="0"/>
        <pt x="638" y="654" on="1"/>
        <pt x="668" y="656" on="0"/>
        <pt x="686" y="637" on="0"/>
        <pt x="672" y="604" on="0"/>
        <pt x="629" y="561" on="0"/>
        <pt x="597" y="540" on="1"/>
        <pt x="629" y="561" on="0"/>
        <pt x="672" y="604" on="0"/>
        <pt x="686" y="637" on="0"/>
        <pt x="668" y="656" on="0"/>
        <pt x="638" y="654" on="1"/>
        <pt x="618" y="652" on="0"/>
        <pt x="557" y="639" on="0"/>
        <pt x="486" y="615" on="0"/>
        <pt x="413" y="582" on="0"/>
        <pt x="350" y="542" on="0"/>
        <pt x="304" y="495" on="0"/>
        <pt x="296" y="469" on="1"/>
        <pt x="288" y="442" on="0"/>
        <pt x="308" y="410" on="0"/>
        <pt x="350" y="392" on="0"/>
        <pt x="406" y="385" on="0"/>
        <pt x="463" y="386" on="0"/>
        <pt x="511" y="390" on="0"/>
        <pt x="524" y="392" on="1"/>
        <pt x="467" y="387" on="0"/>
        <pt x="338" y="337" on="0"/>
        <pt x="220" y="261" on="0"/>
        <pt x="127" y="166" on="0"/>
        <pt x="105" y="116" on="1"/>
        <pt x="92" y="86" on="0"/>
        <pt x="128" y="37" on="0"/>
        <pt x="207" y="4" on="0"/>
        <pt x="315" y="-10" on="0"/>
        <pt x="432" y="1" on="0"/>
        <pt x="547" y="40" on="0"/>
        <pt x="592" y="75" on="1"/>
        <pt x="637" y="111" on="0"/>
        <pt x="682" y="173" on="0"/>
        <pt x="695" y="225" on="0"/>
        <pt x="680" y="266" on="0"/>
        <pt x="651" y="293" on="0"/>
        <pt x="611" y="305" on="0"/>
        <pt x="592" y="304" on="1"/>
        <pt x="629" y="312" on="0"/>
        <pt x="691" y="308" on="0"/>
        <pt x="745" y="303" on="0"/>
        <pt x="796" y="308" on="0"/>
      </contour>
    </TTGlyph>
    <TTGlyph name="b" xMin="87" yMin="-6" xMax="476" yMax="731">
      <contour>
        <pt x="87" y="-6" on="1"/>
        <pt x="106" y="1" on="0"/>
        <pt x="139" y="6" on="0"/>
        <pt x="172" y="6" on="0"/>
        <pt x="208" y="2" on="0"/>
        <pt x="229" y="0" on="1"/>
        <pt x="251" y="-3" on="0"/>
        <pt x="308" y="11" on="0"/>
        <pt x="359" y="52" on="0"/>
        <pt x="396" y="123" on="0"/>
        <pt x="399" y="177" on="1"/>
        <pt x="401" y="212" on="0"/>
        <pt x="354" y="259" on="0"/>
        <pt x="310" y="263" on="1"/>
        <pt x="330" y="264" on="0"/>
        <pt x="375" y="257" on="0"/>
        <pt x="419" y="253" on="0"/>
        <pt x="460" y="255" on="0"/>
        <pt x="476" y="264" on="1"/>
        <pt x="460" y="255" on="0"/>
        <pt x="419" y="253" on="0"/>
        <pt x="375" y="257" on="0"/>
        <pt x="330" y="264" on="0"/>
        <pt x="310" y="263" on="1"/>
        <pt x="354" y="259" on="0"/>
        <pt x="401" y="212" on="0"/>
        <pt x="399" y="177" on="1"/>
        <pt x="396" y="123" on="0"/>
        <pt x="359" y="52" on="0"/>
        <pt x="308" y="11" on="0"/>
        <pt x="251" y="-3" on="0"/>
        <pt x="229" y="0" on="1"/>
        <pt x="208" y="2" on="0"/>
        <pt x="172" y="6" on="0"/>
        <pt x="139" y="6" on="0"/>
        <pt x="106" y="1" on="0"/>
      </contour>
      <contour>
        <pt x="116" y="3" on="1"/>
        <pt x="131" y="32" on="0"/>
        <pt x="159" y="127" on="0"/>
        <pt x="186" y="244" on="0"/>
        <pt x="213" y="374" on="0"/>
        <pt x="242" y="502" on="0"/>
        <pt x="273" y="618" on="0"/>
        <pt x="291" y="663" on="1"/>
        <pt x="303" y="694" on="0"/>
        <pt x="347" y="731" on="0"/>
        <pt x="394" y="731" on="1"/>
        <pt x="418" y="731" on="0"/>
        <pt x="441" y="710" on="0"/>
        <pt x="444" y="676" on="0"/>
        <pt x="431" y="634" on="0"/>
        <pt x="409" y="591" on="0"/>
        <pt x="382" y="552" on="0"/>
        <pt x="370" y="539" on="1"/>
        <pt x="382" y="552" on="0"/>
        <pt x="409" y="591" on="0"/>
        <pt x="431" y="634" on="0"/>
        <pt x="444" y="676" on="0"/>
        <pt x="441" y="710" on="0"/>
        <pt x="418" y="731" on="0"/>
        <pt x="394" y="731" on="1"/>
        <pt x="347" y="731" on="0"/>
        <pt x="303" y="694" on="0"/>
        <pt x="291" y="663" on="1"/>
        <pt x="273" y="618" on="0"/>
        <pt x="242" y="502" on="0"/>
        <pt x="213" y="374" on="0"/>
        <pt x="186" y="244" on="0"/>
        <pt x="159" y="127" on="0"/>
        <pt x="131" y="32" on="0"/>
      </contour>
    </TTGlyph>
    <TTGlyph name="backslash" xMin="108" yMin="-326" xMax="753" yMax="704">
      <contour>
        <pt x="108" y="704" on="1"/>
        <pt x="753" y="-326" on="1"/>
      </contour>
    </TTGlyph>
    <TTGlyph name="c" xMin="102" yMin="-4" xMax="355" yMax="281">
      <contour>
        <pt x="345" y="25" on="1"/>
        <pt x="330" y="10" on="0"/>
        <pt x="262" y="-4" on="0"/>
        <pt x="189" y="-4" on="0"/>
        <pt x="128" y="8" on="0"/>
        <pt x="120" y="19" on="1"/>
        <pt x="109" y="36" on="0"/>
        <pt x="102" y="99" on="0"/>
        <pt x="116" y="135" on="1"/>
        <pt x="129" y="167" on="0"/>
        <pt x="178" y="220" on="0"/>
        <pt x="235" y="258" on="0"/>
        <pt x="293" y="279" on="0"/>
        <pt x="316" y="280" on="1"/>
        <pt x="339" y="281" on="0"/>
        <pt x="355" y="252" on="0"/>
        <pt x="352" y="208" on="0"/>
        <pt x="335" y="157" on="0"/>
        <pt x="324" y="137" on="1"/>
        <pt x="335" y="157" on="0"/>
        <pt x="352" y="208" on="0"/>
        <pt x="355" y="252" on="0"/>
        <pt x="339" y="281" on="0"/>
        <pt x="316" y="280" on="1"/>
        <pt x="293" y="279" on="0"/>
        <pt x="235" y="258" on="0"/>
        <pt x="178" y="220" on="0"/>
        <pt x="129" y="167" on="0"/>
        <pt x="116" y="135" on="1"/>
        <pt x="102" y="99" on="0"/>
        <pt x="109" y="36" on="0"/>
        <pt x="120" y="19" on="1"/>
        <pt x="128" y="8" on="0"/>
        <pt x="189" y="-4" on="0"/>
        <pt x="262" y="-4" on="0"/>
        <pt x="330" y="10" on="0"/>
      </contour>
    </TTGlyph>
    <TTGlyph name="colon" xMin="208" yMin="1" xMax="265" yMax="320">
      <contour>
        <pt x="265" y="320" on="1"/>
        <pt x="260" y="280" on="1"/>
      </contour>
      <contour>
        <pt x="214" y="42" on="1"/>
        <pt x="208" y="1" on="1"/>
      </contour>
    </TTGlyph>
    <TTGlyph name="comma" xMin="211" yMin="-116" xMax="294" yMax="42">
      <contour>
        <pt x="211" y="-116" on="1"/>
        <pt x="238" y="-98" on="0"/>
        <pt x="278" y="-50" on="0"/>
        <pt x="294" y="-4" on="0"/>
        <pt x="282" y="34" on="0"/>
        <pt x="258" y="42" on="1"/>
        <pt x="282" y="34" on="0"/>
        <pt x="294" y="-4" on="0"/>
        <pt x="278" y="-50" on="0"/>
        <pt x="238" y="-98" on="0"/>
      </contour>
    </TTGlyph>
    <TTGlyph name="d" xMin="102" yMin="-6" xMax="538" yMax="737">
      <contour>
        <pt x="381" y="227" on="1"/>
        <pt x="357" y="140" on="0"/>
        <pt x="294" y="45" on="0"/>
        <pt x="231" y="1" on="0"/>
        <pt x="176" y="-6" on="0"/>
        <pt x="160" y="-6" on="1"/>
        <pt x="128" y="-6" on="0"/>
        <pt x="102" y="45" on="0"/>
        <pt x="112" y="95" on="1"/>
        <pt x="123" y="147" on="0"/>
        <pt x="182" y="220" on="0"/>
        <pt x="249" y="266" on="0"/>
        <pt x="311" y="286" on="0"/>
        <pt x="324" y="286" on="1"/>
        <pt x="337" y="286" on="0"/>
        <pt x="362" y="282" on="0"/>
        <pt x="380" y="270" on="0"/>
        <pt x="387" y="247" on="0"/>
      </contour>
      <contour>
        <pt x="470" y="38" on="1"/>
        <pt x="457" y="17" on="0"/>
        <pt x="430" y="0" on="0"/>
        <pt x="407" y="0" on="1"/>
        <pt x="372" y="0" on="0"/>
        <pt x="354" y="36" on="0"/>
        <pt x="358" y="70" on="1"/>
        <pt x="364" y="125" on="0"/>
        <pt x="384" y="251" on="0"/>
        <pt x="411" y="380" on="0"/>
        <pt x="443" y="508" on="0"/>
        <pt x="478" y="619" on="0"/>
        <pt x="517" y="709" on="0"/>
        <pt x="538" y="737" on="1"/>
        <pt x="518" y="709" on="0"/>
        <pt x="478" y="619" on="0"/>
        <pt x="443" y="508" on="0"/>
        <pt x="411" y="380" on="0"/>
        <pt x="384" y="251" on="0"/>
        <pt x="364" y="125" on="0"/>
        <pt x="358" y="70" on="1"/>
        <pt x="354" y="36" on="0"/>
        <pt x="372" y="0" on="0"/>
        <pt x="407" y="0" on="1"/>
        <pt x="430" y="0" on="0"/>
        <pt x="457" y="17" on="0"/>
      </contour>
      <contour>
        <pt x="381" y="227" on="1"/>
        <pt x="357" y="140" on="0"/>
        <pt x="294" y="45" on="0"/>
        <pt x="231" y="1" on="0"/>
        <pt x="176" y="-6" on="0"/>
        <pt x="160" y="-6" on="1"/>
        <pt x="128" y="-6" on="0"/>
        <pt x="102" y="45" on="0"/>
        <pt x="112" y="95" on="1"/>
        <pt x="123" y="147" on="0"/>
        <pt x="182" y="220" on="0"/>
        <pt x="249" y="265" on="0"/>
        <pt x="311" y="286" on="0"/>
        <pt x="324" y="286" on="1"/>
        <pt x="337" y="286" on="0"/>
        <pt x="362" y="282" on="0"/>
        <pt x="380" y="270" on="0"/>
        <pt x="386" y="247" on="0"/>
      </contour>
    </TTGlyph>
    <TTGlyph name="dollar" xMin="107" yMin="-207" xMax="546" yMax="702">
      <contour>
        <pt x="214" y="151" on="1"/>
        <pt x="174" y="127" on="0"/>
        <pt x="127" y="84" on="0"/>
        <pt x="107" y="48" on="0"/>
        <pt x="111" y="20" on="0"/>
        <pt x="123" y="10" on="1"/>
        <pt x="131" y="4" on="0"/>
        <pt x="174" y="-3" on="0"/>
        <pt x="230" y="-5" on="0"/>
        <pt x="294" y="-4" on="0"/>
        <pt x="351" y="-1" on="0"/>
        <pt x="395" y="3" on="0"/>
        <pt x="404" y="4" on="1"/>
        <pt x="419" y="6" on="0"/>
        <pt x="447" y="16" on="0"/>
        <pt x="471" y="36" on="0"/>
        <pt x="488" y="68" on="0"/>
        <pt x="490" y="92" on="1"/>
        <pt x="492" y="117" on="0"/>
        <pt x="456" y="187" on="0"/>
        <pt x="400" y="263" on="0"/>
        <pt x="333" y="341" on="0"/>
        <pt x="276" y="410" on="0"/>
        <pt x="237" y="462" on="0"/>
        <pt x="238" y="475" on="1"/>
        <pt x="240" y="542" on="0"/>
        <pt x="328" y="596" on="0"/>
        <pt x="417" y="596" on="1"/>
        <pt x="461" y="596" on="0"/>
        <pt x="519" y="578" on="0"/>
        <pt x="546" y="547" on="0"/>
        <pt x="543" y="506" on="0"/>
        <pt x="527" y="484" on="1"/>
        <pt x="543" y="506" on="0"/>
        <pt x="546" y="547" on="0"/>
        <pt x="519" y="578" on="0"/>
        <pt x="461" y="596" on="0"/>
        <pt x="417" y="596" on="1"/>
        <pt x="328" y="596" on="0"/>
        <pt x="240" y="542" on="0"/>
        <pt x="238" y="475" on="1"/>
        <pt x="237" y="462" on="0"/>
        <pt x="276" y="410" on="0"/>
        <pt x="333" y="341" on="0"/>
        <pt x="400" y="263" on="0"/>
        <pt x="456" y="187" on="0"/>
        <pt x="492" y="117" on="0"/>
        <pt x="490" y="92" on="1"/>
        <pt x="488" y="68" on="0"/>
        <pt x="471" y="36" on="0"/>
        <pt x="447" y="16" on="0"/>
        <pt x="419" y="6" on="0"/>
        <pt x="404" y="4" on="1"/>
        <pt x="395" y="3" on="0"/>
        <pt x="351" y="-1" on="0"/>
        <pt x="294" y="-4" on="0"/>
        <pt x="230" y="-5" on="0"/>
        <pt x="174" y="-3" on="0"/>
        <pt x="131" y="3" on="0"/>
        <pt x="123" y="10" on="1"/>
        <pt x="111" y="20" on="0"/>
        <pt x="107" y="48" on="0"/>
        <pt x="127" y="84" on="0"/>
        <pt x="174" y="127" on="0"/>
      </contour>
      <contour>
        <pt x="252" y="-207" on="1"/>
        <pt x="271" y="-154" on="0"/>
        <pt x="306" y="-2" on="0"/>
        <pt x="340" y="171" on="0"/>
        <pt x="373" y="354" on="0"/>
        <pt x="405" y="521" on="0"/>
        <pt x="437" y="659" on="0"/>
        <pt x="454" y="702" on="1"/>
        <pt x="437" y="659" on="0"/>
        <pt x="405" y="521" on="0"/>
        <pt x="373" y="354" on="0"/>
        <pt x="340" y="171" on="0"/>
        <pt x="306" y="-2" on="0"/>
        <pt x="271" y="-154" on="0"/>
      </contour>
    </TTGlyph>
    <TTGlyph name="e" xMin="104" yMin="-14" xMax="367" yMax="283">
      <contour>
        <pt x="367" y="53" on="1"/>
        <pt x="354" y="39" on="0"/>
        <pt x="343" y="28" on="1"/>
        <pt x="332" y="18" on="0"/>
        <pt x="310" y="0" on="0"/>
        <pt x="299" y="-3" on="1"/>
        <pt x="288" y="-7" on="0"/>
        <pt x="240" y="-13" on="0"/>
        <pt x="186" y="-14" on="0"/>
        <pt x="139" y="-8" on="0"/>
        <pt x="130" y="1" on="1"/>
        <pt x="121" y="10" on="0"/>
        <pt x="111" y="24" on="0"/>
        <pt x="105" y="39" on="0"/>
        <pt x="104" y="56" on="0"/>
        <pt x="105" y="67" on="1"/>
        <pt x="106" y="78" on="0"/>
        <pt x="132" y="112" on="0"/>
        <pt x="179" y="143" on="0"/>
        <pt x="242" y="166" on="0"/>
        <pt x="280" y="166" on="1"/>
        <pt x="233" y="166" on="0"/>
        <pt x="173" y="172" on="0"/>
        <pt x="159" y="184" on="1"/>
        <pt x="143" y="197" on="0"/>
        <pt x="145" y="234" on="0"/>
        <pt x="166" y="265" on="0"/>
        <pt x="198" y="283" on="0"/>
        <pt x="212" y="279" on="1"/>
        <pt x="253" y="266" on="0"/>
        <pt x="331" y="258" on="0"/>
        <pt x="363" y="279" on="1"/>
        <pt x="331" y="258" on="0"/>
        <pt x="253" y="266" on="0"/>
        <pt x="212" y="279" on="1"/>
        <pt x="198" y="283" on="0"/>
        <pt x="166" y="265" on="0"/>
        <pt x="145" y="234" on="0"/>
        <pt x="143" y="197" on="0"/>
        <pt x="159" y="184" on="1"/>
        <pt x="173" y="172" on="0"/>
        <pt x="233" y="166" on="0"/>
        <pt x="280" y="166" on="1"/>
        <pt x="242" y="166" on="0"/>
        <pt x="179" y="143" on="0"/>
        <pt x="132" y="112" on="0"/>
        <pt x="106" y="78" on="0"/>
        <pt x="105" y="67" on="1"/>
        <pt x="104" y="56" on="0"/>
        <pt x="105" y="39" on="0"/>
        <pt x="111" y="24" on="0"/>
        <pt x="121" y="10" on="0"/>
        <pt x="130" y="1" on="1"/>
        <pt x="139" y="-8" on="0"/>
        <pt x="186" y="-14" on="0"/>
        <pt x="240" y="-13" on="0"/>
        <pt x="288" y="-7" on="0"/>
        <pt x="299" y="-3" on="1"/>
        <pt x="310" y="0" on="0"/>
        <pt x="332" y="18" on="0"/>
        <pt x="343" y="28" on="1"/>
        <pt x="354" y="39" on="0"/>
      </contour>
    </TTGlyph>
    <TTGlyph name="eight" xMin="106" yMin="3" xMax="481" yMax="542">
      <contour>
        <pt x="438" y="337" on="1"/>
        <pt x="390" y="317" on="0"/>
        <pt x="296" y="263" on="0"/>
        <pt x="216" y="208" on="0"/>
        <pt x="156" y="158" on="0"/>
        <pt x="142" y="141" on="1"/>
        <pt x="128" y="124" on="0"/>
        <pt x="111" y="88" on="0"/>
        <pt x="106" y="55" on="0"/>
        <pt x="118" y="27" on="0"/>
        <pt x="133" y="18" on="1"/>
        <pt x="148" y="10" on="0"/>
        <pt x="213" y="3" on="0"/>
        <pt x="282" y="3" on="0"/>
        <pt x="342" y="10" on="0"/>
        <pt x="353" y="16" on="1"/>
        <pt x="363" y="23" on="0"/>
        <pt x="391" y="46" on="0"/>
        <pt x="415" y="78" on="0"/>
        <pt x="428" y="115" on="0"/>
        <pt x="425" y="136" on="1"/>
        <pt x="419" y="174" on="0"/>
        <pt x="385" y="241" on="0"/>
        <pt x="341" y="298" on="0"/>
        <pt x="293" y="346" on="0"/>
        <pt x="255" y="386" on="0"/>
        <pt x="233" y="418" on="0"/>
        <pt x="236" y="430" on="1"/>
        <pt x="241" y="448" on="0"/>
        <pt x="282" y="487" on="0"/>
        <pt x="337" y="519" on="0"/>
        <pt x="396" y="540" on="0"/>
        <pt x="419" y="541" on="1"/>
        <pt x="441" y="542" on="0"/>
        <pt x="469" y="534" on="0"/>
        <pt x="481" y="512" on="0"/>
        <pt x="480" y="472" on="0"/>
        <pt x="474" y="441" on="1"/>
        <pt x="480" y="472" on="0"/>
        <pt x="481" y="512" on="0"/>
        <pt x="469" y="534" on="0"/>
        <pt x="441" y="542" on="0"/>
        <pt x="419" y="541" on="1"/>
        <pt x="396" y="540" on="0"/>
        <pt x="337" y="519" on="0"/>
        <pt x="282" y="487" on="0"/>
        <pt x="241" y="448" on="0"/>
        <pt x="236" y="430" on="1"/>
        <pt x="233" y="418" on="0"/>
        <pt x="255" y="386" on="0"/>
        <pt x="293" y="347" on="0"/>
        <pt x="341" y="299" on="0"/>
        <pt x="385" y="242" on="0"/>
        <pt x="419" y="175" on="0"/>
        <pt x="425" y="136" on="1"/>
        <pt x="428" y="115" on="0"/>
        <pt x="415" y="78" on="0"/>
        <pt x="391" y="46" on="0"/>
        <pt x="363" y="23" on="0"/>
        <pt x="353" y="16" on="1"/>
        <pt x="342" y="10" on="0"/>
        <pt x="282" y="3" on="0"/>
        <pt x="213" y="3" on="0"/>
        <pt x="148" y="10" on="0"/>
        <pt x="133" y="18" on="1"/>
        <pt x="118" y="27" on="0"/>
        <pt x="106" y="55" on="0"/>
        <pt x="111" y="88" on="0"/>
        <pt x="128" y="124" on="0"/>
        <pt x="142" y="141" on="1"/>
        <pt x="156" y="158" on="0"/>
        <pt x="216" y="208" on="0"/>
        <pt x="296" y="263" on="0"/>
        <pt x="390" y="317" on="0"/>
      </contour>
    </TTGlyph>
    <TTGlyph name="exclam" xMin="105" yMin="1" xMax="263" yMax="707">
      <contour>
        <pt x="118" y="172" on="1"/>
        <pt x="125" y="232" on="0"/>
        <pt x="147" y="369" on="0"/>
        <pt x="181" y="508" on="0"/>
        <pt x="229" y="645" on="0"/>
        <pt x="263" y="707" on="1"/>
        <pt x="229" y="645" on="0"/>
        <pt x="181" y="508" on="0"/>
        <pt x="147" y="369" on="0"/>
        <pt x="125" y="232" on="0"/>
      </contour>
      <contour>
        <pt x="108" y="36" on="1"/>
        <pt x="105" y="1" on="1"/>
      </contour>
    </TTGlyph>
    <TTGlyph name="f" xMin="82" yMin="-363" xMax="491" yMax="712">
      <contour>
        <pt x="82" y="-363" on="1"/>
        <pt x="86" y="-352" on="0"/>
        <pt x="109" y="-267" on="0"/>
        <pt x="142" y="-140" on="0"/>
        <pt x="182" y="16" on="0"/>
        <pt x="224" y="181" on="0"/>
        <pt x="266" y="343" on="0"/>
        <pt x="302" y="481" on="0"/>
        <pt x="330" y="583" on="0"/>
        <pt x="337" y="605" on="1"/>
        <pt x="352" y="650" on="0"/>
        <pt x="396" y="695" on="0"/>
        <pt x="441" y="712" on="0"/>
        <pt x="481" y="710" on="0"/>
        <pt x="491" y="707" on="1"/>
        <pt x="481" y="710" on="0"/>
        <pt x="441" y="712" on="0"/>
        <pt x="396" y="695" on="0"/>
        <pt x="352" y="650" on="0"/>
        <pt x="337" y="605" on="1"/>
        <pt x="330" y="583" on="0"/>
        <pt x="302" y="481" on="0"/>
        <pt x="266" y="343" on="0"/>
        <pt x="224" y="181" on="0"/>
        <pt x="182" y="16" on="0"/>
        <pt x="142" y="-140" on="0"/>
        <pt x="109" y="-267" on="0"/>
        <pt x="86" y="-352" on="0"/>
      </contour>
      <contour>
        <pt x="361" y="249" on="1"/>
        <pt x="344" y="246" on="0"/>
        <pt x="297" y="246" on="0"/>
        <pt x="244" y="246" on="0"/>
        <pt x="190" y="247" on="0"/>
        <pt x="167" y="246" on="1"/>
        <pt x="190" y="247" on="0"/>
        <pt x="244" y="246" on="0"/>
        <pt x="297" y="246" on="0"/>
        <pt x="344" y="246" on="0"/>
      </contour>
    </TTGlyph>
    <TTGlyph name="five" xMin="71" yMin="-128" xMax="479" yMax="399">
      <contour>
        <pt x="71" y="-123" on="1"/>
        <pt x="130" y="-128" on="0"/>
        <pt x="245" y="-89" on="0"/>
        <pt x="338" y="-14" on="0"/>
        <pt x="402" y="91" on="0"/>
        <pt x="410" y="154" on="1"/>
        <pt x="415" y="194" on="0"/>
        <pt x="389" y="244" on="0"/>
        <pt x="340" y="266" on="0"/>
        <pt x="276" y="261" on="0"/>
        <pt x="209" y="232" on="0"/>
        <pt x="145" y="180" on="0"/>
        <pt x="121" y="143" on="1"/>
        <pt x="134" y="174" on="0"/>
        <pt x="172" y="248" on="0"/>
        <pt x="207" y="317" on="0"/>
        <pt x="235" y="373" on="0"/>
        <pt x="239" y="386" on="1"/>
        <pt x="277" y="392" on="0"/>
        <pt x="346" y="387" on="0"/>
        <pt x="406" y="383" on="0"/>
        <pt x="458" y="386" on="0"/>
        <pt x="479" y="399" on="1"/>
        <pt x="458" y="386" on="0"/>
        <pt x="406" y="383" on="0"/>
        <pt x="346" y="387" on="0"/>
        <pt x="277" y="392" on="0"/>
        <pt x="239" y="386" on="1"/>
        <pt x="235" y="373" on="0"/>
        <pt x="207" y="317" on="0"/>
        <pt x="172" y="248" on="0"/>
        <pt x="134" y="174" on="0"/>
        <pt x="121" y="143" on="1"/>
        <pt x="145" y="180" on="0"/>
        <pt x="209" y="232" on="0"/>
        <pt x="276" y="261" on="0"/>
        <pt x="340" y="266" on="0"/>
        <pt x="389" y="244" on="0"/>
        <pt x="415" y="194" on="0"/>
        <pt x="410" y="154" on="1"/>
        <pt x="402" y="91" on="0"/>
        <pt x="338" y="-14" on="0"/>
        <pt x="245" y="-89" on="0"/>
        <pt x="130" y="-128" on="0"/>
      </contour>
    </TTGlyph>
    <TTGlyph name="four" xMin="110" yMin="-215" xMax="499" yMax="391">
      <contour>
        <pt x="302" y="-215" on="1"/>
        <pt x="321" y="-179" on="0"/>
        <pt x="354" y="-82" on="0"/>
        <pt x="383" y="28" on="0"/>
        <pt x="409" y="144" on="0"/>
        <pt x="435" y="254" on="0"/>
        <pt x="462" y="353" on="0"/>
        <pt x="477" y="391" on="1"/>
        <pt x="413" y="370" on="0"/>
        <pt x="297" y="280" on="0"/>
        <pt x="201" y="169" on="0"/>
        <pt x="129" y="51" on="0"/>
        <pt x="110" y="2" on="1"/>
        <pt x="155" y="8" on="0"/>
        <pt x="244" y="1" on="0"/>
        <pt x="338" y="-3" on="0"/>
        <pt x="440" y="9" on="0"/>
        <pt x="499" y="34" on="1"/>
        <pt x="440" y="9" on="0"/>
        <pt x="338" y="-3" on="0"/>
        <pt x="244" y="1" on="0"/>
        <pt x="155" y="8" on="0"/>
        <pt x="110" y="2" on="1"/>
        <pt x="129" y="51" on="0"/>
        <pt x="201" y="169" on="0"/>
        <pt x="297" y="280" on="0"/>
        <pt x="413" y="370" on="0"/>
        <pt x="477" y="391" on="1"/>
        <pt x="462" y="353" on="0"/>
        <pt x="435" y="254" on="0"/>
        <pt x="409" y="144" on="0"/>
        <pt x="383" y="28" on="0"/>
        <pt x="354" y="-82" on="0"/>
        <pt x="321" y="-179" on="0"/>
      </contour>
    </TTGlyph>
    <TTGlyph name="g" xMin="43" yMin="-371" xMax="394" yMax="287">
      <contour>
        <pt x="378" y="272" on="1"/>
        <pt x="393" y="264" on="0"/>
        <pt x="394" y="217" on="0"/>
        <pt x="373" y="155" on="0"/>
        <pt x="333" y="87" on="0"/>
        <pt x="279" y="29" on="0"/>
        <pt x="215" y="-8" on="0"/>
        <pt x="181" y="-8" on="1"/>
        <pt x="145" y="-8" on="0"/>
        <pt x="112" y="23" on="0"/>
        <pt x="102" y="64" on="0"/>
        <pt x="108" y="105" on="0"/>
        <pt x="112" y="115" on="1"/>
        <pt x="117" y="128" on="0"/>
        <pt x="145" y="169" on="0"/>
        <pt x="184" y="214" on="0"/>
        <pt x="234" y="255" on="0"/>
        <pt x="290" y="282" on="0"/>
        <pt x="349" y="287" on="0"/>
      </contour>
      <contour>
        <pt x="378" y="272" on="1"/>
        <pt x="393" y="264" on="0"/>
        <pt x="394" y="217" on="0"/>
        <pt x="373" y="155" on="0"/>
        <pt x="333" y="87" on="0"/>
        <pt x="279" y="29" on="0"/>
        <pt x="215" y="-8" on="0"/>
        <pt x="181" y="-8" on="1"/>
        <pt x="145" y="-8" on="0"/>
        <pt x="112" y="23" on="0"/>
        <pt x="102" y="64" on="0"/>
        <pt x="108" y="105" on="0"/>
        <pt x="112" y="115" on="1"/>
        <pt x="117" y="128" on="0"/>
        <pt x="145" y="169" on="0"/>
        <pt x="184" y="214" on="0"/>
        <pt x="234" y="255" on="0"/>
        <pt x="290" y="282" on="0"/>
        <pt x="349" y="287" on="0"/>
      </contour>
      <contour>
        <pt x="68" y="-257" on="1"/>
        <pt x="61" y="-267" on="0"/>
        <pt x="51" y="-282" on="0"/>
        <pt x="45" y="-297" on="0"/>
        <pt x="43" y="-316" on="0"/>
        <pt x="43" y="-330" on="1"/>
        <pt x="43" y="-350" on="0"/>
        <pt x="89" y="-371" on="0"/>
        <pt x="151" y="-371" on="0"/>
        <pt x="214" y="-348" on="0"/>
        <pt x="232" y="-323" on="1"/>
        <pt x="266" y="-275" on="0"/>
        <pt x="316" y="-155" on="0"/>
        <pt x="352" y="-20" on="0"/>
        <pt x="379" y="130" on="0"/>
        <pt x="391" y="208" on="1"/>
        <pt x="379" y="130" on="0"/>
        <pt x="352" y="-20" on="0"/>
        <pt x="316" y="-155" on="0"/>
        <pt x="266" y="-275" on="0"/>
        <pt x="232" y="-323" on="1"/>
        <pt x="214" y="-348" on="0"/>
        <pt x="151" y="-371" on="0"/>
        <pt x="89" y="-371" on="0"/>
        <pt x="43" y="-350" on="0"/>
        <pt x="43" y="-330" on="1"/>
        <pt x="43" y="-316" on="0"/>
        <pt x="45" y="-297" on="0"/>
        <pt x="51" y="-282" on="0"/>
        <pt x="61" y="-267" on="0"/>
      </contour>
    </TTGlyph>
    <TTGlyph name="h" xMin="101" yMin="-2" xMax="428" yMax="749">
      <contour>
        <pt x="428" y="16" on="1"/>
        <pt x="411" y="5" on="0"/>
        <pt x="386" y="0" on="0"/>
        <pt x="365" y="3" on="0"/>
        <pt x="346" y="11" on="0"/>
        <pt x="323" y="14" on="0"/>
        <pt x="292" y="9" on="0"/>
        <pt x="271" y="-2" on="1"/>
        <pt x="331" y="76" on="0"/>
        <pt x="391" y="183" on="0"/>
        <pt x="402" y="249" on="0"/>
        <pt x="370" y="278" on="0"/>
        <pt x="337" y="278" on="1"/>
        <pt x="303" y="278" on="0"/>
        <pt x="251" y="248" on="0"/>
        <pt x="199" y="182" on="0"/>
        <pt x="140" y="75" on="0"/>
        <pt x="101" y="-2" on="1"/>
        <pt x="114" y="34" on="0"/>
        <pt x="147" y="153" on="0"/>
        <pt x="181" y="293" on="0"/>
        <pt x="212" y="441" on="0"/>
        <pt x="224" y="506" on="1"/>
        <pt x="236" y="570" on="0"/>
        <pt x="270" y="660" on="0"/>
        <pt x="311" y="717" on="0"/>
        <pt x="358" y="745" on="0"/>
        <pt x="383" y="747" on="1"/>
        <pt x="408" y="749" on="0"/>
        <pt x="424" y="708" on="0"/>
        <pt x="413" y="646" on="0"/>
        <pt x="378" y="575" on="0"/>
        <pt x="352" y="548" on="1"/>
        <pt x="378" y="575" on="0"/>
        <pt x="413" y="646" on="0"/>
        <pt x="424" y="708" on="0"/>
        <pt x="408" y="749" on="0"/>
        <pt x="383" y="747" on="1"/>
        <pt x="358" y="745" on="0"/>
        <pt x="311" y="717" on="0"/>
        <pt x="270" y="660" on="0"/>
        <pt x="236" y="570" on="0"/>
        <pt x="224" y="506" on="1"/>
        <pt x="212" y="441" on="0"/>
        <pt x="181" y="293" on="0"/>
        <pt x="147" y="153" on="0"/>
        <pt x="114" y="34" on="0"/>
        <pt x="101" y="-2" on="1"/>
        <pt x="140" y="75" on="0"/>
        <pt x="199" y="182" on="0"/>
        <pt x="251" y="248" on="0"/>
        <pt x="303" y="278" on="0"/>
        <pt x="337" y="278" on="1"/>
        <pt x="370" y="278" on="0"/>
        <pt x="402" y="249" on="0"/>
        <pt x="391" y="183" on="0"/>
        <pt x="331" y="76" on="0"/>
        <pt x="271" y="-2" on="1"/>
        <pt x="292" y="9" on="0"/>
        <pt x="323" y="14" on="0"/>
        <pt x="346" y="11" on="0"/>
        <pt x="365" y="3" on="0"/>
        <pt x="386" y="0" on="0"/>
        <pt x="411" y="5" on="0"/>
      </contour>
    </TTGlyph>
    <TTGlyph name="hyphen" xMin="110" yMin="219" xMax="341" yMax="219">
      <contour>
        <pt x="110" y="219" on="1"/>
        <pt x="341" y="219" on="1"/>
      </contour>
    </TTGlyph>
    <TTGlyph name="i" xMin="105" yMin="-8" xMax="246" yMax="467">
      <contour>
        <pt x="237" y="467" on="1"/>
        <pt x="225" y="433" on="1"/>
      </contour>
      <contour>
        <pt x="246" y="30" on="1"/>
        <pt x="235" y="13" on="0"/>
        <pt x="193" y="-7" on="0"/>
        <pt x="150" y="-8" on="0"/>
        <pt x="115" y="12" on="0"/>
        <pt x="110" y="33" on="1"/>
        <pt x="105" y="55" on="0"/>
        <pt x="111" y="114" on="0"/>
        <pt x="129" y="180" on="0"/>
        <pt x="156" y="247" on="0"/>
        <pt x="171" y="278" on="1"/>
        <pt x="156" y="247" on="0"/>
        <pt x="129" y="180" on="0"/>
        <pt x="111" y="114" on="0"/>
        <pt x="105" y="55" on="0"/>
        <pt x="110" y="33" on="1"/>
        <pt x="115" y="12" on="0"/>
        <pt x="150" y="-8" on="0"/>
        <pt x="193" y="-7" on="0"/>
        <pt x="235" y="13" on="0"/>
      </contour>
    </TTGlyph>
    <TTGlyph name="j" xMin="-29" yMin="-354" xMax="230" yMax="467">
      <contour>
        <pt x="-29" y="-354" on="1"/>
        <pt x="-15" y="-341" on="0"/>
        <pt x="24" y="-259" on="0"/>
        <pt x="66" y="-145" on="0"/>
        <pt x="109" y="-9" on="0"/>
        <pt x="146" y="123" on="0"/>
        <pt x="175" y="239" on="0"/>
        <pt x="183" y="278" on="1"/>
        <pt x="176" y="239" on="0"/>
        <pt x="146" y="123" on="0"/>
        <pt x="109" y="-9" on="0"/>
        <pt x="66" y="-145" on="0"/>
        <pt x="24" y="-259" on="0"/>
        <pt x="-15" y="-341" on="0"/>
      </contour>
      <contour>
        <pt x="230" y="467" on="1"/>
        <pt x="221" y="433" on="1"/>
      </contour>
    </TTGlyph>
    <TTGlyph name="k" xMin="94" yMin="-9" xMax="441" yMax="736">
      <contour>
        <pt x="438" y="19" on="1"/>
        <pt x="432" y="10" on="0"/>
        <pt x="391" y="-5" on="0"/>
        <pt x="346" y="-9" on="0"/>
        <pt x="309" y="3" on="0"/>
        <pt x="308" y="21" on="1"/>
        <pt x="305" y="47" on="0"/>
        <pt x="299" y="86" on="0"/>
        <pt x="287" y="115" on="0"/>
        <pt x="267" y="136" on="0"/>
        <pt x="249" y="144" on="1"/>
        <pt x="294" y="130" on="0"/>
        <pt x="361" y="140" on="0"/>
        <pt x="404" y="172" on="0"/>
        <pt x="423" y="216" on="0"/>
        <pt x="416" y="256" on="0"/>
        <pt x="384" y="284" on="0"/>
        <pt x="355" y="283" on="1"/>
        <pt x="311" y="282" on="0"/>
        <pt x="255" y="260" on="0"/>
        <pt x="211" y="216" on="0"/>
        <pt x="172" y="150" on="0"/>
        <pt x="146" y="105" on="1"/>
        <pt x="172" y="150" on="0"/>
        <pt x="211" y="216" on="0"/>
        <pt x="255" y="260" on="0"/>
        <pt x="311" y="282" on="0"/>
        <pt x="355" y="283" on="1"/>
        <pt x="384" y="284" on="0"/>
        <pt x="416" y="256" on="0"/>
        <pt x="423" y="216" on="0"/>
        <pt x="404" y="172" on="0"/>
        <pt x="361" y="140" on="0"/>
        <pt x="294" y="130" on="0"/>
        <pt x="249" y="144" on="1"/>
        <pt x="267" y="136" on="0"/>
        <pt x="287" y="115" on="0"/>
        <pt x="299" y="86" on="0"/>
        <pt x="305" y="47" on="0"/>
        <pt x="308" y="21" on="1"/>
        <pt x="309" y="3" on="0"/>
        <pt x="346" y="-9" on="0"/>
        <pt x="391" y="-5" on="0"/>
        <pt x="432" y="10" on="0"/>
      </contour>
      <contour>
        <pt x="94" y="-4" on="1"/>
        <pt x="114" y="26" on="0"/>
        <pt x="151" y="123" on="0"/>
        <pt x="183" y="236" on="0"/>
        <pt x="210" y="356" on="0"/>
        <pt x="232" y="462" on="0"/>
        <pt x="248" y="545" on="0"/>
        <pt x="253" y="565" on="1"/>
        <pt x="265" y="616" on="0"/>
        <pt x="292" y="682" on="0"/>
        <pt x="326" y="721" on="0"/>
        <pt x="368" y="736" on="0"/>
        <pt x="396" y="736" on="1"/>
        <pt x="426" y="736" on="0"/>
        <pt x="441" y="694" on="0"/>
        <pt x="426" y="635" on="0"/>
        <pt x="389" y="570" on="0"/>
        <pt x="367" y="547" on="1"/>
        <pt x="389" y="570" on="0"/>
        <pt x="426" y="635" on="0"/>
        <pt x="441" y="694" on="0"/>
        <pt x="426" y="736" on="0"/>
        <pt x="396" y="736" on="1"/>
        <pt x="368" y="736" on="0"/>
        <pt x="326" y="721" on="0"/>
        <pt x="292" y="682" on="0"/>
        <pt x="265" y="616" on="0"/>
        <pt x="253" y="565" on="1"/>
        <pt x="248" y="545" on="0"/>
        <pt x="232" y="462" on="0"/>
        <pt x="210" y="356" on="0"/>
        <pt x="183" y="236" on="0"/>
        <pt x="151" y="123" on="0"/>
        <pt x="114" y="26" on="0"/>
      </contour>
    </TTGlyph>
    <TTGlyph name="l" xMin="99" yMin="-6" xMax="448" yMax="733">
      <contour>
        <pt x="305" y="37" on="1"/>
        <pt x="282" y="8" on="0"/>
        <pt x="224" y="-6" on="0"/>
        <pt x="167" y="-2" on="0"/>
        <pt x="115" y="5" on="0"/>
        <pt x="99" y="-3" on="1"/>
        <pt x="119" y="27" on="0"/>
        <pt x="157" y="124" on="0"/>
        <pt x="190" y="236" on="0"/>
        <pt x="218" y="355" on="0"/>
        <pt x="241" y="460" on="0"/>
        <pt x="258" y="542" on="0"/>
        <pt x="263" y="562" on="1"/>
        <pt x="275" y="613" on="0"/>
        <pt x="302" y="679" on="0"/>
        <pt x="335" y="718" on="0"/>
        <pt x="377" y="733" on="0"/>
        <pt x="404" y="733" on="1"/>
        <pt x="434" y="733" on="0"/>
        <pt x="448" y="692" on="0"/>
        <pt x="432" y="633" on="0"/>
        <pt x="395" y="569" on="0"/>
        <pt x="374" y="547" on="1"/>
        <pt x="395" y="569" on="0"/>
        <pt x="432" y="633" on="0"/>
        <pt x="448" y="692" on="0"/>
        <pt x="434" y="733" on="0"/>
        <pt x="404" y="733" on="1"/>
        <pt x="377" y="733" on="0"/>
        <pt x="335" y="718" on="0"/>
        <pt x="302" y="679" on="0"/>
        <pt x="275" y="613" on="0"/>
        <pt x="263" y="562" on="1"/>
        <pt x="258" y="542" on="0"/>
        <pt x="241" y="460" on="0"/>
        <pt x="218" y="355" on="0"/>
        <pt x="190" y="236" on="0"/>
        <pt x="157" y="124" on="0"/>
        <pt x="119" y="27" on="0"/>
        <pt x="99" y="-3" on="1"/>
        <pt x="115" y="5" on="0"/>
        <pt x="167" y="-2" on="0"/>
        <pt x="224" y="-6" on="0"/>
        <pt x="282" y="8" on="0"/>
      </contour>
    </TTGlyph>
    <TTGlyph name="m" xMin="103" yMin="-4" xMax="644" yMax="311">
      <contour>
        <pt x="644" y="30" on="1"/>
        <pt x="627" y="6" on="0"/>
        <pt x="581" y="-4" on="0"/>
        <pt x="533" y="-1" on="0"/>
        <pt x="487" y="4" on="0"/>
        <pt x="469" y="-3" on="1"/>
        <pt x="490" y="14" on="0"/>
        <pt x="533" y="69" on="0"/>
        <pt x="569" y="132" on="0"/>
        <pt x="593" y="196" on="0"/>
        <pt x="595" y="248" on="0"/>
        <pt x="571" y="280" on="0"/>
        <pt x="542" y="280" on="1"/>
        <pt x="498" y="280" on="0"/>
        <pt x="429" y="231" on="0"/>
        <pt x="372" y="151" on="0"/>
        <pt x="327" y="49" on="0"/>
        <pt x="307" y="-4" on="1"/>
        <pt x="311" y="11" on="0"/>
        <pt x="329" y="64" on="0"/>
        <pt x="346" y="127" on="0"/>
        <pt x="359" y="193" on="0"/>
        <pt x="358" y="246" on="0"/>
        <pt x="340" y="280" on="0"/>
        <pt x="318" y="280" on="1"/>
        <pt x="291" y="280" on="0"/>
        <pt x="242" y="257" on="0"/>
        <pt x="191" y="194" on="0"/>
        <pt x="136" y="84" on="0"/>
        <pt x="103" y="-4" on="1"/>
        <pt x="109" y="14" on="0"/>
        <pt x="132" y="74" on="0"/>
        <pt x="153" y="153" on="0"/>
        <pt x="166" y="252" on="0"/>
        <pt x="161" y="311" on="1"/>
        <pt x="166" y="252" on="0"/>
        <pt x="153" y="153" on="0"/>
        <pt x="132" y="74" on="0"/>
        <pt x="109" y="14" on="0"/>
        <pt x="103" y="-4" on="1"/>
        <pt x="136" y="84" on="0"/>
        <pt x="191" y="194" on="0"/>
        <pt x="242" y="257" on="0"/>
        <pt x="291" y="280" on="0"/>
        <pt x="318" y="280" on="1"/>
        <pt x="340" y="280" on="0"/>
        <pt x="358" y="246" on="0"/>
        <pt x="359" y="193" on="0"/>
        <pt x="346" y="127" on="0"/>
        <pt x="329" y="64" on="0"/>
        <pt x="311" y="11" on="0"/>
        <pt x="307" y="-4" on="1"/>
        <pt x="327" y="49" on="0"/>
        <pt x="372" y="151" on="0"/>
        <pt x="429" y="231" on="0"/>
        <pt x="498" y="280" on="0"/>
        <pt x="542" y="280" on="1"/>
        <pt x="572" y="280" on="0"/>
        <pt x="595" y="248" on="0"/>
        <pt x="593" y="196" on="0"/>
        <pt x="569" y="132" on="0"/>
        <pt x="533" y="69" on="0"/>
        <pt x="490" y="14" on="0"/>
        <pt x="469" y="-3" on="1"/>
        <pt x="487" y="4" on="0"/>
        <pt x="533" y="-1" on="0"/>
        <pt x="581" y="-4" on="0"/>
        <pt x="627" y="6" on="0"/>
      </contour>
    </TTGlyph>
    <TTGlyph name="n" xMin="99" yMin="-6" xMax="428" yMax="288">
      <contour>
        <pt x="428" y="11" on="1"/>
        <pt x="410" y="-2" on="0"/>
        <pt x="373" y="-6" on="0"/>
        <pt x="334" y="-3" on="0"/>
        <pt x="294" y="1" on="0"/>
        <pt x="274" y="-3" on="1"/>
        <pt x="291" y="12" on="0"/>
        <pt x="335" y="65" on="0"/>
        <pt x="376" y="128" on="0"/>
        <pt x="407" y="193" on="0"/>
        <pt x="415" y="246" on="0"/>
        <pt x="391" y="280" on="0"/>
        <pt x="358" y="280" on="1"/>
        <pt x="308" y="280" on="0"/>
        <pt x="236" y="242" on="0"/>
        <pt x="178" y="168" on="0"/>
        <pt x="127" y="62" on="0"/>
        <pt x="99" y="-5" on="1"/>
        <pt x="109" y="25" on="0"/>
        <pt x="135" y="96" on="0"/>
        <pt x="157" y="172" on="0"/>
        <pt x="168" y="251" on="0"/>
        <pt x="164" y="288" on="1"/>
        <pt x="168" y="251" on="0"/>
        <pt x="157" y="172" on="0"/>
        <pt x="135" y="96" on="0"/>
        <pt x="109" y="25" on="0"/>
        <pt x="99" y="-5" on="1"/>
        <pt x="127" y="62" on="0"/>
        <pt x="178" y="168" on="0"/>
        <pt x="236" y="242" on="0"/>
        <pt x="308" y="280" on="0"/>
        <pt x="358" y="280" on="1"/>
        <pt x="391" y="280" on="0"/>
        <pt x="415" y="246" on="0"/>
        <pt x="407" y="193" on="0"/>
        <pt x="376" y="128" on="0"/>
        <pt x="335" y="65" on="0"/>
        <pt x="291" y="12" on="0"/>
        <pt x="274" y="-3" on="1"/>
        <pt x="294" y="1" on="0"/>
        <pt x="334" y="-3" on="0"/>
        <pt x="373" y="-6" on="0"/>
        <pt x="410" y="-2" on="0"/>
      </contour>
    </TTGlyph>
    <TTGlyph name="nine" xMin="109" yMin="-195" xMax="448" yMax="400">
      <contour>
        <pt x="151" y="-195" on="1"/>
        <pt x="207" y="-149" on="0"/>
        <pt x="318" y="-32" on="0"/>
        <pt x="402" y="98" on="0"/>
        <pt x="448" y="236" on="0"/>
        <pt x="441" y="304" on="1"/>
        <pt x="439" y="324" on="0"/>
        <pt x="416" y="359" on="0"/>
        <pt x="381" y="385" on="0"/>
        <pt x="334" y="400" on="0"/>
        <pt x="308" y="399" on="1"/>
        <pt x="277" y="398" on="0"/>
        <pt x="207" y="363" on="0"/>
        <pt x="148" y="300" on="0"/>
        <pt x="109" y="209" on="0"/>
        <pt x="110" y="152" on="1"/>
        <pt x="111" y="98" on="0"/>
        <pt x="135" y="37" on="0"/>
        <pt x="172" y="7" on="0"/>
        <pt x="216" y="0" on="0"/>
        <pt x="237" y="0" on="1"/>
        <pt x="258" y="0" on="0"/>
        <pt x="314" y="25" on="0"/>
        <pt x="370" y="71" on="0"/>
        <pt x="418" y="137" on="0"/>
        <pt x="430" y="179" on="1"/>
        <pt x="418" y="137" on="0"/>
        <pt x="370" y="71" on="0"/>
        <pt x="314" y="25" on="0"/>
        <pt x="258" y="0" on="0"/>
        <pt x="237" y="0" on="1"/>
        <pt x="216" y="0" on="0"/>
        <pt x="172" y="7" on="0"/>
        <pt x="135" y="37" on="0"/>
        <pt x="111" y="98" on="0"/>
        <pt x="110" y="152" on="1"/>
        <pt x="109" y="209" on="0"/>
        <pt x="148" y="300" on="0"/>
        <pt x="207" y="363" on="0"/>
        <pt x="277" y="398" on="0"/>
        <pt x="308" y="399" on="1"/>
        <pt x="334" y="400" on="0"/>
        <pt x="381" y="385" on="0"/>
        <pt x="416" y="359" on="0"/>
        <pt x="439" y="324" on="0"/>
        <pt x="441" y="304" on="1"/>
        <pt x="448" y="236" on="0"/>
        <pt x="402" y="98" on="0"/>
        <pt x="318" y="-32" on="0"/>
        <pt x="207" y="-149" on="0"/>
      </contour>
    </TTGlyph>
    <TTGlyph name="o" xMin="95" yMin="-6" xMax="425" yMax="283">
      <contour>
        <pt x="272" y="274" on="1"/>
        <pt x="313" y="283" on="0"/>
        <pt x="367" y="273" on="0"/>
        <pt x="400" y="250" on="0"/>
        <pt x="415" y="222" on="0"/>
        <pt x="417" y="213" on="1"/>
        <pt x="425" y="172" on="0"/>
        <pt x="398" y="82" on="0"/>
        <pt x="363" y="46" on="1"/>
        <pt x="348" y="31" on="0"/>
        <pt x="302" y="8" on="0"/>
        <pt x="249" y="-4" on="0"/>
        <pt x="194" y="-6" on="0"/>
        <pt x="147" y="5" on="0"/>
        <pt x="113" y="30" on="0"/>
        <pt x="107" y="50" on="1"/>
        <pt x="95" y="93" on="0"/>
        <pt x="122" y="168" on="0"/>
        <pt x="175" y="228" on="0"/>
        <pt x="242" y="267" on="0"/>
      </contour>
      <contour>
        <pt x="272" y="274" on="1"/>
        <pt x="313" y="283" on="0"/>
        <pt x="367" y="273" on="0"/>
        <pt x="400" y="250" on="0"/>
        <pt x="415" y="222" on="0"/>
        <pt x="417" y="213" on="1"/>
        <pt x="425" y="172" on="0"/>
        <pt x="398" y="82" on="0"/>
        <pt x="363" y="46" on="1"/>
        <pt x="348" y="31" on="0"/>
        <pt x="302" y="8" on="0"/>
        <pt x="249" y="-4" on="0"/>
        <pt x="194" y="-6" on="0"/>
        <pt x="147" y="5" on="0"/>
        <pt x="113" y="30" on="0"/>
        <pt x="107" y="50" on="1"/>
        <pt x="95" y="93" on="0"/>
        <pt x="122" y="169" on="0"/>
        <pt x="175" y="228" on="0"/>
        <pt x="242" y="267" on="0"/>
      </contour>
    </TTGlyph>
    <TTGlyph name="one" xMin="105" yMin="-51" xMax="279" yMax="366">
      <contour>
        <pt x="105" y="-51" on="1"/>
        <pt x="133" y="-14" on="0"/>
        <pt x="173" y="94" on="0"/>
        <pt x="209" y="212" on="0"/>
        <pt x="250" y="325" on="0"/>
        <pt x="279" y="366" on="1"/>
        <pt x="259" y="350" on="0"/>
        <pt x="183" y="321" on="0"/>
        <pt x="136" y="307" on="1"/>
        <pt x="183" y="321" on="0"/>
        <pt x="259" y="350" on="0"/>
        <pt x="279" y="366" on="1"/>
        <pt x="250" y="325" on="0"/>
        <pt x="209" y="212" on="0"/>
        <pt x="173" y="94" on="0"/>
        <pt x="133" y="-14" on="0"/>
      </contour>
    </TTGlyph>
    <TTGlyph name="p" xMin="38" yMin="-369" xMax="480" yMax="482">
      <contour>
        <pt x="38" y="-369" on="1"/>
        <pt x="61" y="-327" on="0"/>
        <pt x="98" y="-191" on="0"/>
        <pt x="132" y="-31" on="0"/>
        <pt x="166" y="142" on="0"/>
        <pt x="208" y="303" on="0"/>
        <pt x="261" y="439" on="0"/>
        <pt x="296" y="482" on="1"/>
        <pt x="260" y="439" on="0"/>
        <pt x="208" y="303" on="0"/>
        <pt x="166" y="142" on="0"/>
        <pt x="132" y="-31" on="0"/>
        <pt x="98" y="-191" on="0"/>
        <pt x="61" y="-327" on="0"/>
      </contour>
      <contour>
        <pt x="480" y="25" on="1"/>
        <pt x="453" y="5" on="0"/>
        <pt x="397" y="1" on="0"/>
        <pt x="333" y="8" on="0"/>
        <pt x="258" y="10" on="0"/>
        <pt x="213" y="-4" on="1"/>
        <pt x="278" y="13" on="0"/>
        <pt x="371" y="55" on="0"/>
        <pt x="398" y="80" on="1"/>
        <pt x="423" y="104" on="0"/>
        <pt x="445" y="172" on="0"/>
        <pt x="433" y="235" on="0"/>
        <pt x="388" y="280" on="0"/>
        <pt x="348" y="281" on="1"/>
        <pt x="307" y="282" on="0"/>
        <pt x="250" y="252" on="0"/>
        <pt x="205" y="191" on="0"/>
        <pt x="167" y="98" on="0"/>
        <pt x="146" y="37" on="1"/>
        <pt x="167" y="98" on="0"/>
        <pt x="205" y="191" on="0"/>
        <pt x="250" y="252" on="0"/>
        <pt x="307" y="282" on="0"/>
        <pt x="348" y="281" on="1"/>
        <pt x="388" y="280" on="0"/>
        <pt x="433" y="235" on="0"/>
        <pt x="445" y="172" on="0"/>
        <pt x="423" y="104" on="0"/>
        <pt x="398" y="80" on="1"/>
        <pt x="371" y="55" on="0"/>
        <pt x="278" y="13" on="0"/>
        <pt x="213" y="-4" on="1"/>
        <pt x="258" y="10" on="0"/>
        <pt x="333" y="8" on="0"/>
        <pt x="397" y="1" on="0"/>
        <pt x="453" y="5" on="0"/>
      </contour>
    </TTGlyph>
    <TTGlyph name="parenleft" xMin="98" yMin="-297" xMax="460" yMax="733">
      <contour>
        <pt x="252" y="-297" on="1"/>
        <pt x="172" y="-209" on="0"/>
        <pt x="101" y="-15" on="0"/>
        <pt x="98" y="181" on="0"/>
        <pt x="156" y="371" on="0"/>
        <pt x="255" y="541" on="0"/>
        <pt x="387" y="683" on="0"/>
        <pt x="460" y="733" on="1"/>
        <pt x="387" y="683" on="0"/>
        <pt x="255" y="541" on="0"/>
        <pt x="156" y="371" on="0"/>
        <pt x="98" y="181" on="0"/>
        <pt x="101" y="-15" on="0"/>
        <pt x="173" y="-209" on="0"/>
      </contour>
    </TTGlyph>
    <TTGlyph name="parenright" xMin="18" yMin="-307" xMax="381" yMax="724">
      <contour>
        <pt x="226" y="724" on="1"/>
        <pt x="306" y="635" on="0"/>
        <pt x="378" y="441" on="0"/>
        <pt x="381" y="245" on="0"/>
        <pt x="323" y="55" on="0"/>
        <pt x="223" y="-115" on="0"/>
        <pt x="91" y="-257" on="0"/>
        <pt x="18" y="-307" on="1"/>
        <pt x="91" y="-257" on="0"/>
        <pt x="223" y="-115" on="0"/>
        <pt x="323" y="55" on="0"/>
        <pt x="381" y="245" on="0"/>
        <pt x="378" y="441" on="0"/>
        <pt x="306" y="635" on="0"/>
      </contour>
    </TTGlyph>
    <TTGlyph name="period" xMin="215" yMin="0" xMax="220" yMax="40">
      <contour>
        <pt x="220" y="40" on="1"/>
        <pt x="215" y="0" on="1"/>
      </contour>
    </TTGlyph>
    <TTGlyph name="plus" xMin="110" yMin="82" xMax="341" yMax="338">
      <contour>
        <pt x="110" y="219" on="1"/>
        <pt x="341" y="219" on="1"/>
      </contour>
      <contour>
        <pt x="241" y="338" on="1"/>
        <pt x="196" y="82" on="1"/>
      </contour>
    </TTGlyph>
    <TTGlyph name="q" xMin="103" yMin="-356" xMax="376" yMax="281">
      <contour>
        <pt x="310" y="281" on="1"/>
        <pt x="332" y="281" on="0"/>
        <pt x="347" y="271" on="1"/>
        <pt x="360" y="263" on="0"/>
        <pt x="376" y="224" on="0"/>
        <pt x="368" y="187" on="1"/>
        <pt x="358" y="142" on="0"/>
        <pt x="321" y="76" on="0"/>
        <pt x="282" y="32" on="0"/>
        <pt x="247" y="7" on="0"/>
        <pt x="239" y="3" on="1"/>
        <pt x="231" y="-1" on="0"/>
        <pt x="204" y="-9" on="0"/>
        <pt x="175" y="-12" on="0"/>
        <pt x="146" y="-9" on="0"/>
        <pt x="136" y="-1" on="1"/>
        <pt x="125" y="6" on="0"/>
        <pt x="109" y="26" on="0"/>
        <pt x="103" y="59" on="0"/>
        <pt x="112" y="109" on="0"/>
        <pt x="127" y="145" on="1"/>
        <pt x="142" y="181" on="0"/>
        <pt x="185" y="232" on="0"/>
        <pt x="233" y="265" on="0"/>
        <pt x="285" y="280" on="0"/>
      </contour>
      <contour>
        <pt x="310" y="281" on="1"/>
        <pt x="332" y="281" on="0"/>
        <pt x="347" y="271" on="1"/>
        <pt x="360" y="263" on="0"/>
        <pt x="376" y="224" on="0"/>
        <pt x="368" y="187" on="1"/>
        <pt x="358" y="142" on="0"/>
        <pt x="321" y="76" on="0"/>
        <pt x="282" y="32" on="0"/>
        <pt x="247" y="7" on="0"/>
        <pt x="239" y="3" on="1"/>
        <pt x="231" y="-1" on="0"/>
        <pt x="204" y="-9" on="0"/>
        <pt x="175" y="-12" on="0"/>
        <pt x="146" y="-9" on="0"/>
        <pt x="136" y="-1" on="1"/>
        <pt x="125" y="6" on="0"/>
        <pt x="109" y="26" on="0"/>
        <pt x="103" y="59" on="0"/>
        <pt x="112" y="109" on="0"/>
        <pt x="127" y="145" on="1"/>
        <pt x="142" y="181" on="0"/>
        <pt x="185" y="232" on="0"/>
        <pt x="233" y="265" on="0"/>
        <pt x="285" y="280" on="0"/>
      </contour>
      <contour>
        <pt x="277" y="-356" on="1"/>
        <pt x="277" y="-313" on="0"/>
        <pt x="284" y="-213" on="0"/>
        <pt x="303" y="-88" on="0"/>
        <pt x="336" y="66" on="0"/>
        <pt x="362" y="163" on="1"/>
        <pt x="336" y="66" on="0"/>
        <pt x="303" y="-88" on="0"/>
        <pt x="284" y="-213" on="0"/>
        <pt x="277" y="-313" on="0"/>
      </contour>
    </TTGlyph>
    <TTGlyph name="question" xMin="102" yMin="1" xMax="403" yMax="695">
      <contour>
        <pt x="135" y="201" on="1"/>
        <pt x="142" y="254" on="0"/>
        <pt x="202" y="331" on="0"/>
        <pt x="277" y="389" on="0"/>
        <pt x="348" y="437" on="0"/>
        <pt x="366" y="461" on="1"/>
        <pt x="378" y="477" on="0"/>
        <pt x="396" y="525" on="0"/>
        <pt x="402" y="578" on="0"/>
        <pt x="393" y="631" on="0"/>
        <pt x="361" y="672" on="0"/>
        <pt x="303" y="695" on="0"/>
        <pt x="258" y="692" on="1"/>
        <pt x="190" y="687" on="0"/>
        <pt x="124" y="638" on="0"/>
        <pt x="102" y="572" on="0"/>
        <pt x="113" y="504" on="0"/>
        <pt x="123" y="481" on="1"/>
        <pt x="113" y="504" on="0"/>
        <pt x="102" y="572" on="0"/>
        <pt x="124" y="638" on="0"/>
        <pt x="190" y="687" on="0"/>
        <pt x="258" y="692" on="1"/>
        <pt x="303" y="695" on="0"/>
        <pt x="361" y="672" on="0"/>
        <pt x="393" y="631" on="0"/>
        <pt x="403" y="578" on="0"/>
        <pt x="396" y="525" on="0"/>
        <pt x="378" y="477" on="0"/>
        <pt x="366" y="461" on="1"/>
        <pt x="348" y="437" on="0"/>
        <pt x="277" y="389" on="0"/>
        <pt x="202" y="331" on="0"/>
        <pt x="142" y="254" on="0"/>
      </contour>
      <contour>
        <pt x="115" y="33" on="1"/>
        <pt x="112" y="1" on="1"/>
      </contour>
    </TTGlyph>
    <TTGlyph name="quotedbl" xMin="211" yMin="637" xMax="316" yMax="711">
      <contour>
        <pt x="220" y="711" on="1"/>
        <pt x="211" y="637" on="1"/>
      </contour>
      <contour>
        <pt x="316" y="711" on="1"/>
        <pt x="306" y="637" on="1"/>
      </contour>
    </TTGlyph>
    <TTGlyph name="quotesingle" xMin="216" yMin="637" xMax="225" yMax="712">
      <contour>
        <pt x="225" y="712" on="1"/>
        <pt x="216" y="637" on="1"/>
      </contour>
    </TTGlyph>
    <TTGlyph name="r" xMin="94" yMin="-4" xMax="355" yMax="330">
      <contour>
        <pt x="355" y="45" on="1"/>
        <pt x="341" y="20" on="0"/>
        <pt x="286" y="-4" on="0"/>
        <pt x="232" y="-3" on="0"/>
        <pt x="196" y="25" on="0"/>
        <pt x="202" y="53" on="1"/>
        <pt x="207" y="81" on="0"/>
        <pt x="233" y="145" on="0"/>
        <pt x="265" y="206" on="0"/>
        <pt x="297" y="260" on="0"/>
        <pt x="309" y="278" on="1"/>
        <pt x="279" y="269" on="0"/>
        <pt x="203" y="260" on="0"/>
        <pt x="139" y="260" on="1"/>
        <pt x="110" y="260" on="0"/>
        <pt x="94" y="284" on="0"/>
        <pt x="103" y="311" on="0"/>
        <pt x="127" y="330" on="0"/>
        <pt x="139" y="324" on="1"/>
        <pt x="156" y="316" on="0"/>
        <pt x="164" y="282" on="0"/>
        <pt x="155" y="237" on="0"/>
        <pt x="133" y="186" on="0"/>
        <pt x="120" y="162" on="1"/>
        <pt x="133" y="186" on="0"/>
        <pt x="155" y="237" on="0"/>
        <pt x="164" y="282" on="0"/>
        <pt x="156" y="316" on="0"/>
        <pt x="139" y="324" on="1"/>
        <pt x="127" y="330" on="0"/>
        <pt x="103" y="311" on="0"/>
        <pt x="95" y="284" on="0"/>
        <pt x="110" y="260" on="0"/>
        <pt x="139" y="260" on="1"/>
        <pt x="203" y="260" on="0"/>
        <pt x="279" y="269" on="0"/>
        <pt x="309" y="278" on="1"/>
        <pt x="297" y="260" on="0"/>
        <pt x="265" y="206" on="0"/>
        <pt x="233" y="145" on="0"/>
        <pt x="207" y="81" on="0"/>
        <pt x="202" y="53" on="1"/>
        <pt x="196" y="25" on="0"/>
        <pt x="232" y="-3" on="0"/>
        <pt x="286" y="-4" on="0"/>
        <pt x="341" y="20" on="0"/>
      </contour>
    </TTGlyph>
    <TTGlyph name="s" xMin="105" yMin="-6" xMax="361" yMax="304">
      <contour>
        <pt x="361" y="41" on="1"/>
        <pt x="350" y="21" on="0"/>
        <pt x="311" y="1" on="0"/>
        <pt x="263" y="-6" on="0"/>
        <pt x="209" y="-3" on="0"/>
        <pt x="160" y="1" on="0"/>
        <pt x="118" y="4" on="0"/>
        <pt x="105" y="1" on="1"/>
        <pt x="216" y="10" on="0"/>
        <pt x="303" y="79" on="0"/>
        <pt x="280" y="130" on="1"/>
        <pt x="268" y="155" on="0"/>
        <pt x="247" y="192" on="0"/>
        <pt x="237" y="228" on="0"/>
        <pt x="243" y="271" on="0"/>
        <pt x="257" y="304" on="1"/>
        <pt x="222" y="258" on="0"/>
        <pt x="162" y="187" on="0"/>
        <pt x="122" y="153" on="1"/>
        <pt x="162" y="187" on="0"/>
        <pt x="222" y="258" on="0"/>
        <pt x="257" y="304" on="1"/>
        <pt x="243" y="271" on="0"/>
        <pt x="237" y="228" on="0"/>
        <pt x="247" y="192" on="0"/>
        <pt x="268" y="155" on="0"/>
        <pt x="280" y="130" on="1"/>
        <pt x="303" y="79" on="0"/>
        <pt x="216" y="10" on="0"/>
        <pt x="105" y="1" on="1"/>
        <pt x="118" y="4" on="0"/>
        <pt x="160" y="1" on="0"/>
        <pt x="209" y="-3" on="0"/>
        <pt x="263" y="-6" on="0"/>
        <pt x="311" y="1" on="0"/>
        <pt x="350" y="21" on="0"/>
      </contour>
    </TTGlyph>
    <TTGlyph name="semicolon" xMin="192" yMin="-75" xMax="310" yMax="360">
      <contour>
        <pt x="192" y="-75" on="1"/>
        <pt x="219" y="-57" on="0"/>
        <pt x="259" y="-9" on="0"/>
        <pt x="275" y="37" on="0"/>
        <pt x="263" y="74" on="0"/>
        <pt x="239" y="82" on="1"/>
        <pt x="263" y="74" on="0"/>
        <pt x="275" y="37" on="0"/>
        <pt x="259" y="-9" on="0"/>
        <pt x="219" y="-57" on="0"/>
      </contour>
      <contour>
        <pt x="310" y="360" on="1"/>
        <pt x="305" y="321" on="1"/>
      </contour>
    </TTGlyph>
    <TTGlyph name="seven" xMin="105" yMin="-98" xMax="415" yMax="404">
      <contour>
        <pt x="123" y="-98" on="1"/>
        <pt x="152" y="-67" on="0"/>
        <pt x="207" y="19" on="0"/>
        <pt x="259" y="116" on="0"/>
        <pt x="306" y="216" on="0"/>
        <pt x="352" y="306" on="0"/>
        <pt x="394" y="379" on="0"/>
        <pt x="415" y="400" on="1"/>
        <pt x="388" y="399" on="0"/>
        <pt x="307" y="403" on="0"/>
        <pt x="225" y="404" on="0"/>
        <pt x="157" y="400" on="0"/>
        <pt x="144" y="392" on="1"/>
        <pt x="130" y="384" on="0"/>
        <pt x="112" y="369" on="0"/>
        <pt x="105" y="346" on="0"/>
        <pt x="108" y="309" on="0"/>
        <pt x="117" y="280" on="1"/>
        <pt x="108" y="309" on="0"/>
        <pt x="105" y="346" on="0"/>
        <pt x="112" y="369" on="0"/>
        <pt x="130" y="384" on="0"/>
        <pt x="144" y="392" on="1"/>
        <pt x="157" y="400" on="0"/>
        <pt x="225" y="404" on="0"/>
        <pt x="307" y="403" on="0"/>
        <pt x="388" y="399" on="0"/>
        <pt x="415" y="400" on="1"/>
        <pt x="394" y="379" on="0"/>
        <pt x="352" y="306" on="0"/>
        <pt x="306" y="216" on="0"/>
        <pt x="259" y="116" on="0"/>
        <pt x="207" y="19" on="0"/>
        <pt x="152" y="-67" on="0"/>
      </contour>
    </TTGlyph>
    <TTGlyph name="six" xMin="102" yMin="-9" xMax="460" yMax="626">
      <contour>
        <pt x="460" y="626" on="1"/>
        <pt x="419" y="601" on="0"/>
        <pt x="341" y="547" on="0"/>
        <pt x="271" y="486" on="0"/>
        <pt x="210" y="418" on="0"/>
        <pt x="187" y="378" on="1"/>
        <pt x="156" y="325" on="0"/>
        <pt x="116" y="218" on="0"/>
        <pt x="102" y="122" on="0"/>
        <pt x="116" y="45" on="0"/>
        <pt x="140" y="22" on="1"/>
        <pt x="161" y="1" on="0"/>
        <pt x="213" y="-6" on="0"/>
        <pt x="267" y="11" on="0"/>
        <pt x="319" y="47" on="0"/>
        <pt x="365" y="94" on="0"/>
        <pt x="401" y="147" on="0"/>
        <pt x="410" y="172" on="1"/>
        <pt x="428" y="219" on="0"/>
        <pt x="436" y="291" on="0"/>
        <pt x="422" y="343" on="0"/>
        <pt x="392" y="379" on="0"/>
        <pt x="371" y="391" on="1"/>
        <pt x="350" y="402" on="0"/>
        <pt x="288" y="400" on="0"/>
        <pt x="222" y="372" on="0"/>
        <pt x="161" y="318" on="0"/>
        <pt x="142" y="278" on="1"/>
        <pt x="161" y="318" on="0"/>
        <pt x="222" y="372" on="0"/>
        <pt x="288" y="400" on="0"/>
        <pt x="350" y="402" on="0"/>
        <pt x="371" y="391" on="1"/>
        <pt x="392" y="379" on="0"/>
        <pt x="422" y="343" on="0"/>
        <pt x="436" y="291" on="0"/>
        <pt x="428" y="219" on="0"/>
        <pt x="410" y="172" on="1"/>
        <pt x="396" y="134" on="0"/>
        <pt x="332" y="55" on="0"/>
        <pt x="254" y="2" on="0"/>
        <pt x="172" y="-9" on="0"/>
        <pt x="140" y="22" on="1"/>
        <pt x="116" y="45" on="0"/>
        <pt x="102" y="123" on="0"/>
        <pt x="116" y="219" on="0"/>
        <pt x="156" y="325" on="0"/>
        <pt x="187" y="378" on="1"/>
        <pt x="210" y="418" on="0"/>
        <pt x="271" y="486" on="0"/>
        <pt x="341" y="547" on="0"/>
        <pt x="419" y="601" on="0"/>
      </contour>
    </TTGlyph>
    <TTGlyph name="slash" xMin="1" yMin="-326" xMax="646" yMax="704">
      <contour>
        <pt x="646" y="704" on="1"/>
        <pt x="1" y="-326" on="1"/>
      </contour>
    </TTGlyph>
    <TTGlyph name="sterling" xMin="86" yMin="-13" xMax="904" yMax="693">
      <contour>
        <pt x="792" y="33" on="1"/>
        <pt x="766" y="14" on="0"/>
        <pt x="677" y="-2" on="0"/>
        <pt x="561" y="-7" on="0"/>
        <pt x="427" y="-3" on="0"/>
        <pt x="287" y="-1" on="0"/>
        <pt x="148" y="-4" on="0"/>
        <pt x="86" y="-13" on="1"/>
        <pt x="119" y="-9" on="0"/>
        <pt x="196" y="2" on="0"/>
        <pt x="276" y="20" on="0"/>
        <pt x="355" y="49" on="0"/>
        <pt x="388" y="71" on="1"/>
        <pt x="410" y="86" on="0"/>
        <pt x="454" y="155" on="0"/>
        <pt x="497" y="244" on="0"/>
        <pt x="538" y="345" on="0"/>
        <pt x="575" y="440" on="0"/>
        <pt x="606" y="517" on="0"/>
        <pt x="619" y="539" on="1"/>
        <pt x="646" y="585" on="0"/>
        <pt x="703" y="644" on="0"/>
        <pt x="760" y="678" on="0"/>
        <pt x="820" y="691" on="0"/>
        <pt x="850" y="692" on="1"/>
        <pt x="881" y="693" on="0"/>
        <pt x="904" y="647" on="0"/>
        <pt x="895" y="568" on="0"/>
        <pt x="857" y="465" on="0"/>
        <pt x="827" y="410" on="1"/>
        <pt x="857" y="465" on="0"/>
        <pt x="895" y="568" on="0"/>
        <pt x="904" y="647" on="0"/>
        <pt x="881" y="693" on="0"/>
        <pt x="850" y="692" on="1"/>
        <pt x="820" y="691" on="0"/>
        <pt x="760" y="678" on="0"/>
        <pt x="703" y="644" on="0"/>
        <pt x="646" y="585" on="0"/>
        <pt x="619" y="539" on="1"/>
        <pt x="607" y="517" on="0"/>
        <pt x="575" y="440" on="0"/>
        <pt x="538" y="345" on="0"/>
        <pt x="497" y="244" on="0"/>
        <pt x="454" y="155" on="0"/>
        <pt x="410" y="86" on="0"/>
        <pt x="388" y="71" on="1"/>
        <pt x="355" y="49" on="0"/>
        <pt x="276" y="20" on="0"/>
        <pt x="196" y="2" on="0"/>
        <pt x="119" y="-9" on="0"/>
        <pt x="86" y="-13" on="1"/>
        <pt x="148" y="-4" on="0"/>
        <pt x="287" y="-1" on="0"/>
        <pt x="427" y="-3" on="0"/>
        <pt x="561" y="-7" on="0"/>
        <pt x="677" y="-2" on="0"/>
        <pt x="766" y="14" on="0"/>
      </contour>
      <contour>
        <pt x="792" y="322" on="1"/>
        <pt x="778" y="316" on="0"/>
        <pt x="710" y="311" on="0"/>
        <pt x="622" y="311" on="0"/>
        <pt x="523" y="312" on="0"/>
        <pt x="429" y="314" on="0"/>
        <pt x="349" y="313" on="0"/>
        <pt x="326" y="310" on="1"/>
        <pt x="349" y="313" on="0"/>
        <pt x="429" y="314" on="0"/>
        <pt x="523" y="312" on="0"/>
        <pt x="622" y="311" on="0"/>
        <pt x="710" y="311" on="0"/>
        <pt x="777" y="316" on="0"/>
      </contour>
    </TTGlyph>
    <TTGlyph name="t" xMin="107" yMin="-6" xMax="334" yMax="526">
      <contour>
        <pt x="312" y="32" on="1"/>
        <pt x="285" y="4" on="0"/>
        <pt x="227" y="-6" on="0"/>
        <pt x="173" y="1" on="0"/>
        <pt x="125" y="9" on="0"/>
        <pt x="107" y="0" on="1"/>
        <pt x="125" y="31" on="0"/>
        <pt x="156" y="119" on="0"/>
        <pt x="186" y="218" on="0"/>
        <pt x="216" y="323" on="0"/>
        <pt x="247" y="420" on="0"/>
        <pt x="280" y="500" on="0"/>
        <pt x="300" y="526" on="1"/>
        <pt x="281" y="500" on="0"/>
        <pt x="247" y="420" on="0"/>
        <pt x="216" y="323" on="0"/>
        <pt x="186" y="218" on="0"/>
        <pt x="156" y="119" on="0"/>
        <pt x="125" y="31" on="0"/>
        <pt x="107" y="0" on="1"/>
        <pt x="125" y="9" on="0"/>
        <pt x="173" y="1" on="0"/>
        <pt x="227" y="-6" on="0"/>
        <pt x="285" y="4" on="0"/>
      </contour>
      <contour>
        <pt x="334" y="280" on="1"/>
        <pt x="304" y="274" on="0"/>
        <pt x="251" y="274" on="0"/>
        <pt x="203" y="277" on="0"/>
        <pt x="160" y="279" on="0"/>
        <pt x="140" y="275" on="1"/>
        <pt x="160" y="279" on="0"/>
        <pt x="203" y="277" on="0"/>
        <pt x="251" y="274" on="0"/>
        <pt x="304" y="274" on="0"/>
      </contour>
    </TTGlyph>
    <TTGlyph name="three" xMin="71" yMin="-129" xMax="452" yMax="386">
      <contour>
        <pt x="71" y="-129" on="1"/>
        <pt x="149" y="-127" on="0"/>
        <pt x="261" y="-104" on="0"/>
        <pt x="338" y="-70" on="0"/>
        <pt x="384" y="-28" on="0"/>
        <pt x="407" y="16" on="0"/>
        <pt x="412" y="57" on="0"/>
        <pt x="410" y="73" on="1"/>
        <pt x="406" y="97" on="0"/>
        <pt x="378" y="129" on="0"/>
        <pt x="325" y="145" on="0"/>
        <pt x="242" y="146" on="0"/>
        <pt x="183" y="140" on="1"/>
        <pt x="265" y="150" on="0"/>
        <pt x="370" y="199" on="0"/>
        <pt x="430" y="253" on="0"/>
        <pt x="452" y="302" on="0"/>
        <pt x="451" y="311" on="1"/>
        <pt x="450" y="320" on="0"/>
        <pt x="443" y="346" on="0"/>
        <pt x="421" y="370" on="0"/>
        <pt x="380" y="386" on="0"/>
        <pt x="345" y="386" on="1"/>
        <pt x="310" y="385" on="0"/>
        <pt x="252" y="373" on="0"/>
        <pt x="209" y="348" on="0"/>
        <pt x="184" y="306" on="0"/>
        <pt x="183" y="275" on="1"/>
        <pt x="184" y="306" on="0"/>
        <pt x="209" y="348" on="0"/>
        <pt x="252" y="373" on="0"/>
        <pt x="310" y="385" on="0"/>
        <pt x="345" y="386" on="1"/>
        <pt x="380" y="386" on="0"/>
        <pt x="421" y="370" on="0"/>
        <pt x="443" y="346" on="0"/>
        <pt x="450" y="320" on="0"/>
        <pt x="451" y="311" on="1"/>
        <pt x="452" y="302" on="0"/>
        <pt x="430" y="253" on="0"/>
        <pt x="370" y="199" on="0"/>
        <pt x="265" y="150" on="0"/>
        <pt x="183" y="140" on="1"/>
        <pt x="242" y="146" on="0"/>
        <pt x="325" y="145" on="0"/>
        <pt x="378" y="129" on="0"/>
        <pt x="406" y="97" on="0"/>
        <pt x="410" y="73" on="1"/>
        <pt x="412" y="57" on="0"/>
        <pt x="407" y="16" on="0"/>
        <pt x="384" y="-28" on="0"/>
        <pt x="338" y="-70" on="0"/>
        <pt x="261" y="-104" on="0"/>
        <pt x="149" y="-127" on="0"/>
      </contour>
    </TTGlyph>
    <TTGlyph name="two" xMin="106" yMin="-2" xMax="447" yMax="383">
      <contour>
        <pt x="422" y="45" on="1"/>
        <pt x="404" y="23" on="0"/>
        <pt x="352" y="4" on="0"/>
        <pt x="294" y="-2" on="0"/>
        <pt x="232" y="2" on="0"/>
        <pt x="174" y="7" on="0"/>
        <pt x="123" y="7" on="0"/>
        <pt x="106" y="0" on="1"/>
        <pt x="121" y="26" on="0"/>
        <pt x="183" y="80" on="0"/>
        <pt x="258" y="134" on="0"/>
        <pt x="337" y="186" on="0"/>
        <pt x="403" y="236" on="0"/>
        <pt x="445" y="281" on="0"/>
        <pt x="446" y="301" on="1"/>
        <pt x="447" y="318" on="0"/>
        <pt x="438" y="347" on="0"/>
        <pt x="413" y="369" on="0"/>
        <pt x="371" y="382" on="0"/>
        <pt x="339" y="382" on="1"/>
        <pt x="307" y="383" on="0"/>
        <pt x="252" y="366" on="0"/>
        <pt x="213" y="336" on="0"/>
        <pt x="192" y="292" on="0"/>
        <pt x="193" y="266" on="1"/>
        <pt x="192" y="292" on="0"/>
        <pt x="213" y="336" on="0"/>
        <pt x="252" y="366" on="0"/>
        <pt x="307" y="383" on="0"/>
        <pt x="339" y="382" on="1"/>
        <pt x="371" y="382" on="0"/>
        <pt x="413" y="369" on="0"/>
        <pt x="438" y="347" on="0"/>
        <pt x="447" y="318" on="0"/>
        <pt x="446" y="301" on="1"/>
        <pt x="445" y="281" on="0"/>
        <pt x="403" y="236" on="0"/>
        <pt x="337" y="186" on="0"/>
        <pt x="258" y="134" on="0"/>
        <pt x="183" y="80" on="0"/>
        <pt x="121" y="26" on="0"/>
        <pt x="106" y="0" on="1"/>
        <pt x="123" y="7" on="0"/>
        <pt x="174" y="7" on="0"/>
        <pt x="232" y="2" on="0"/>
        <pt x="294" y="-2" on="0"/>
        <pt x="352" y="4" on="0"/>
        <pt x="404" y="24" on="0"/>
      </contour>
    </TTGlyph>
    <TTGlyph name="u" xMin="107" yMin="-5" xMax="450" yMax="322">
      <contour>
        <pt x="450" y="30" on="1"/>
        <pt x="446" y="21" on="0"/>
        <pt x="412" y="3" on="0"/>
        <pt x="372" y="-2" on="0"/>
        <pt x="336" y="9" on="0"/>
        <pt x="330" y="29" on="1"/>
        <pt x="324" y="48" on="0"/>
        <pt x="330" y="88" on="0"/>
        <pt x="345" y="144" on="0"/>
        <pt x="365" y="223" on="0"/>
        <pt x="373" y="282" on="1"/>
        <pt x="363" y="216" on="0"/>
        <pt x="320" y="115" on="0"/>
        <pt x="267" y="45" on="0"/>
        <pt x="209" y="5" on="0"/>
        <pt x="159" y="-5" on="0"/>
        <pt x="122" y="15" on="0"/>
        <pt x="116" y="41" on="1"/>
        <pt x="107" y="80" on="0"/>
        <pt x="114" y="139" on="0"/>
        <pt x="132" y="187" on="0"/>
        <pt x="151" y="226" on="0"/>
        <pt x="154" y="244" on="1"/>
        <pt x="156" y="262" on="0"/>
        <pt x="158" y="284" on="0"/>
        <pt x="154" y="300" on="0"/>
        <pt x="140" y="313" on="0"/>
        <pt x="127" y="322" on="1"/>
        <pt x="140" y="313" on="0"/>
        <pt x="154" y="300" on="0"/>
        <pt x="158" y="284" on="0"/>
        <pt x="156" y="262" on="0"/>
        <pt x="154" y="244" on="1"/>
        <pt x="151" y="226" on="0"/>
        <pt x="132" y="187" on="0"/>
        <pt x="114" y="139" on="0"/>
        <pt x="107" y="80" on="0"/>
        <pt x="116" y="41" on="1"/>
        <pt x="122" y="16" on="0"/>
        <pt x="159" y="-5" on="0"/>
        <pt x="209" y="5" on="0"/>
        <pt x="267" y="45" on="0"/>
        <pt x="320" y="115" on="0"/>
        <pt x="363" y="216" on="0"/>
        <pt x="373" y="282" on="1"/>
        <pt x="365" y="223" on="0"/>
        <pt x="345" y="144" on="0"/>
        <pt x="330" y="88" on="0"/>
        <pt x="324" y="48" on="0"/>
        <pt x="330" y="29" on="1"/>
        <pt x="336" y="9" on="0"/>
        <pt x="372" y="-2" on="0"/>
        <pt x="412" y="3" on="0"/>
        <pt x="446" y="21" on="0"/>
      </contour>
    </TTGlyph>
    <TTGlyph name="v" xMin="106" yMin="0" xMax="457" yMax="301">
      <contour>
        <pt x="176" y="301" on="1"/>
        <pt x="147" y="274" on="0"/>
        <pt x="116" y="209" on="0"/>
        <pt x="106" y="146" on="0"/>
        <pt x="113" y="92" on="0"/>
        <pt x="122" y="77" on="1"/>
        <pt x="140" y="47" on="0"/>
        <pt x="190" y="7" on="0"/>
        <pt x="216" y="0" on="1"/>
        <pt x="234" y="1" on="0"/>
        <pt x="284" y="38" on="0"/>
        <pt x="330" y="94" on="0"/>
        <pt x="362" y="162" on="0"/>
        <pt x="361" y="195" on="1"/>
        <pt x="361" y="220" on="0"/>
        <pt x="344" y="252" on="0"/>
        <pt x="318" y="271" on="0"/>
        <pt x="284" y="282" on="0"/>
        <pt x="266" y="286" on="1"/>
        <pt x="299" y="286" on="0"/>
        <pt x="351" y="279" on="0"/>
        <pt x="396" y="274" on="0"/>
        <pt x="436" y="276" on="0"/>
        <pt x="457" y="286" on="1"/>
        <pt x="436" y="276" on="0"/>
        <pt x="396" y="274" on="0"/>
        <pt x="351" y="279" on="0"/>
        <pt x="299" y="286" on="0"/>
        <pt x="266" y="286" on="1"/>
        <pt x="284" y="282" on="0"/>
        <pt x="318" y="271" on="0"/>
        <pt x="344" y="252" on="0"/>
        <pt x="361" y="220" on="0"/>
        <pt x="361" y="195" on="1"/>
        <pt x="362" y="162" on="0"/>
        <pt x="330" y="94" on="0"/>
        <pt x="284" y="38" on="0"/>
        <pt x="234" y="1" on="0"/>
        <pt x="216" y="0" on="1"/>
        <pt x="190" y="7" on="0"/>
        <pt x="140" y="47" on="0"/>
        <pt x="122" y="77" on="1"/>
        <pt x="113" y="92" on="0"/>
        <pt x="106" y="146" on="0"/>
        <pt x="116" y="209" on="0"/>
        <pt x="147" y="274" on="0"/>
      </contour>
    </TTGlyph>
    <TTGlyph name="w" xMin="104" yMin="-3" xMax="642" yMax="298">
      <contour>
        <pt x="642" y="282" on="1"/>
        <pt x="625" y="270" on="0"/>
        <pt x="578" y="266" on="0"/>
        <pt x="525" y="272" on="0"/>
        <pt x="471" y="282" on="0"/>
        <pt x="447" y="284" on="1"/>
        <pt x="496" y="275" on="0"/>
        <pt x="544" y="228" on="0"/>
        <pt x="555" y="171" on="0"/>
        <pt x="533" y="111" on="0"/>
        <pt x="512" y="89" on="1"/>
        <pt x="493" y="69" on="0"/>
        <pt x="445" y="36" on="0"/>
        <pt x="395" y="13" on="0"/>
        <pt x="349" y="-1" on="0"/>
        <pt x="333" y="-3" on="1"/>
        <pt x="335" y="51" on="0"/>
        <pt x="335" y="195" on="0"/>
        <pt x="333" y="298" on="1"/>
        <pt x="335" y="228" on="0"/>
        <pt x="305" y="132" on="0"/>
        <pt x="256" y="64" on="0"/>
        <pt x="196" y="18" on="0"/>
        <pt x="168" y="-1" on="1"/>
        <pt x="129" y="36" on="0"/>
        <pt x="104" y="118" on="0"/>
        <pt x="122" y="195" on="0"/>
        <pt x="177" y="262" on="0"/>
        <pt x="217" y="283" on="1"/>
        <pt x="177" y="262" on="0"/>
        <pt x="122" y="195" on="0"/>
        <pt x="104" y="118" on="0"/>
        <pt x="129" y="36" on="0"/>
        <pt x="168" y="-1" on="1"/>
        <pt x="196" y="18" on="0"/>
        <pt x="256" y="64" on="0"/>
        <pt x="305" y="132" on="0"/>
        <pt x="335" y="228" on="0"/>
        <pt x="333" y="298" on="1"/>
        <pt x="335" y="195" on="0"/>
        <pt x="335" y="51" on="0"/>
        <pt x="333" y="-3" on="1"/>
        <pt x="349" y="-1" on="0"/>
        <pt x="395" y="13" on="0"/>
        <pt x="445" y="36" on="0"/>
        <pt x="493" y="69" on="0"/>
        <pt x="512" y="89" on="1"/>
        <pt x="533" y="111" on="0"/>
        <pt x="555" y="171" on="0"/>
        <pt x="544" y="228" on="0"/>
        <pt x="496" y="275" on="0"/>
        <pt x="447" y="284" on="1"/>
        <pt x="471" y="282" on="0"/>
        <pt x="525" y="272" on="0"/>
        <pt x="578" y="266" on="0"/>
        <pt x="625" y="270" on="0"/>
      </contour>
    </TTGlyph>
    <TTGlyph name="x" xMin="60" yMin="-24" xMax="406" yMax="288">
      <contour>
        <pt x="406" y="41" on="1"/>
        <pt x="401" y="27" on="0"/>
        <pt x="359" y="0" on="0"/>
        <pt x="309" y="-5" on="0"/>
        <pt x="264" y="20" on="0"/>
        <pt x="257" y="58" on="1"/>
        <pt x="249" y="96" on="0"/>
        <pt x="230" y="173" on="0"/>
        <pt x="202" y="236" on="0"/>
        <pt x="162" y="279" on="0"/>
        <pt x="133" y="285" on="1"/>
        <pt x="162" y="279" on="0"/>
        <pt x="202" y="236" on="0"/>
        <pt x="230" y="173" on="0"/>
        <pt x="249" y="96" on="0"/>
        <pt x="257" y="58" on="1"/>
        <pt x="264" y="20" on="0"/>
        <pt x="309" y="-5" on="0"/>
        <pt x="359" y="0" on="0"/>
        <pt x="401" y="27" on="0"/>
      </contour>
      <contour>
        <pt x="60" y="-24" on="1"/>
        <pt x="94" y="-9" on="0"/>
        <pt x="153" y="49" on="0"/>
        <pt x="207" y="120" on="0"/>
        <pt x="259" y="193" on="0"/>
        <pt x="313" y="252" on="0"/>
        <pt x="370" y="288" on="0"/>
        <pt x="403" y="285" on="1"/>
        <pt x="370" y="287" on="0"/>
        <pt x="313" y="252" on="0"/>
        <pt x="259" y="193" on="0"/>
        <pt x="207" y="120" on="0"/>
        <pt x="153" y="49" on="0"/>
        <pt x="94" y="-9" on="0"/>
      </contour>
    </TTGlyph>
    <TTGlyph name="y" xMin="2" yMin="-376" xMax="368" yMax="302">
      <contour>
        <pt x="50" y="-249" on="1"/>
        <pt x="40" y="-255" on="0"/>
        <pt x="31" y="-265" on="1"/>
        <pt x="23" y="-273" on="0"/>
        <pt x="8" y="-301" on="0"/>
        <pt x="4" y="-321" on="1"/>
        <pt x="2" y="-334" on="0"/>
        <pt x="23" y="-358" on="0"/>
        <pt x="60" y="-373" on="0"/>
        <pt x="108" y="-376" on="0"/>
        <pt x="156" y="-361" on="0"/>
        <pt x="201" y="-324" on="0"/>
        <pt x="216" y="-292" on="1"/>
        <pt x="239" y="-244" on="0"/>
        <pt x="281" y="-107" on="0"/>
        <pt x="319" y="49" on="0"/>
        <pt x="353" y="211" on="0"/>
        <pt x="368" y="285" on="1"/>
        <pt x="362" y="255" on="0"/>
        <pt x="339" y="184" on="0"/>
        <pt x="310" y="114" on="0"/>
        <pt x="278" y="55" on="0"/>
        <pt x="262" y="37" on="1"/>
        <pt x="246" y="20" on="0"/>
        <pt x="191" y="-1" on="0"/>
        <pt x="139" y="-2" on="0"/>
        <pt x="104" y="18" on="0"/>
        <pt x="108" y="43" on="1"/>
        <pt x="112" y="68" on="0"/>
        <pt x="129" y="128" on="0"/>
        <pt x="142" y="194" on="0"/>
        <pt x="146" y="266" on="0"/>
        <pt x="138" y="302" on="1"/>
        <pt x="146" y="266" on="0"/>
        <pt x="142" y="194" on="0"/>
        <pt x="129" y="128" on="0"/>
        <pt x="112" y="68" on="0"/>
        <pt x="108" y="43" on="1"/>
        <pt x="104" y="18" on="0"/>
        <pt x="139" y="-2" on="0"/>
        <pt x="191" y="-1" on="0"/>
        <pt x="246" y="20" on="0"/>
        <pt x="262" y="37" on="1"/>
        <pt x="278" y="55" on="0"/>
        <pt x="310" y="114" on="0"/>
        <pt x="339" y="184" on="0"/>
        <pt x="362" y="255" on="0"/>
        <pt x="368" y="285" on="1"/>
        <pt x="353" y="211" on="0"/>
        <pt x="319" y="49" on="0"/>
        <pt x="281" y="-107" on="0"/>
        <pt x="239" y="-244" on="0"/>
        <pt x="216" y="-292" on="1"/>
        <pt x="201" y="-324" on="0"/>
        <pt x="156" y="-361" on="0"/>
        <pt x="108" y="-376" on="0"/>
        <pt x="60" y="-373" on="0"/>
        <pt x="23" y="-358" on="0"/>
        <pt x="2" y="-334" on="0"/>
        <pt x="4" y="-321" on="1"/>
        <pt x="8" y="-301" on="0"/>
        <pt x="23" y="-273" on="0"/>
        <pt x="31" y="-265" on="1"/>
        <pt x="40" y="-255" on="0"/>
      </contour>
    </TTGlyph>
    <TTGlyph name="z" xMin="97" yMin="-5" xMax="422" yMax="284">
      <contour>
        <pt x="413" y="35" on="1"/>
        <pt x="380" y="4" on="0"/>
        <pt x="304" y="-5" on="0"/>
        <pt x="222" y="3" on="0"/>
        <pt x="138" y="13" on="0"/>
        <pt x="97" y="2" on="1"/>
        <pt x="114" y="7" on="0"/>
        <pt x="166" y="40" on="0"/>
        <pt x="227" y="88" on="0"/>
        <pt x="293" y="145" on="0"/>
        <pt x="354" y="205" on="0"/>
        <pt x="405" y="261" on="0"/>
        <pt x="422" y="284" on="1"/>
        <pt x="393" y="272" on="0"/>
        <pt x="334" y="275" on="0"/>
        <pt x="273" y="282" on="0"/>
        <pt x="208" y="284" on="0"/>
        <pt x="173" y="271" on="1"/>
        <pt x="208" y="284" on="0"/>
        <pt x="273" y="282" on="0"/>
        <pt x="334" y="275" on="0"/>
        <pt x="393" y="272" on="0"/>
        <pt x="422" y="284" on="1"/>
        <pt x="406" y="261" on="0"/>
        <pt x="354" y="205" on="0"/>
        <pt x="293" y="145" on="0"/>
        <pt x="227" y="88" on="0"/>
        <pt x="166" y="40" on="0"/>
        <pt x="114" y="7" on="0"/>
        <pt x="97" y="2" on="1"/>
        <pt x="138" y="13" on="0"/>
        <pt x="222" y="3" on="0"/>
        <pt x="304" y="-5" on="0"/>
        <pt x="380" y="4" on="0"/>
      </contour>
    </TTGlyph>
    <TTGlyph name="zero" xMin="105" yMin="-4" xMax="464" yMax="402">
      <contour>
        <pt x="211" y="3" on="1"/>
        <pt x="199" y="5" on="0"/>
        <pt x="158" y="24" on="0"/>
        <pt x="123" y="67" on="0"/>
        <pt x="105" y="138" on="0"/>
        <pt x="116" y="193" on="1"/>
        <pt x="128" y="250" on="0"/>
        <pt x="179" y="331" on="0"/>
        <pt x="243" y="381" on="0"/>
        <pt x="310" y="402" on="0"/>
        <pt x="337" y="401" on="1"/>
        <pt x="362" y="399" on="0"/>
        <pt x="412" y="381" on="0"/>
        <pt x="448" y="341" on="0"/>
        <pt x="464" y="273" on="0"/>
        <pt x="456" y="222" on="1"/>
        <pt x="447" y="166" on="0"/>
        <pt x="403" y="78" on="0"/>
        <pt x="339" y="20" on="0"/>
        <pt x="257" y="-4" on="0"/>
      </contour>
      <contour>
        <pt x="211" y="3" on="1"/>
        <pt x="199" y="5" on="0"/>
        <pt x="158" y="24" on="0"/>
        <pt x="123" y="67" on="0"/>
        <pt x="105" y="138" on="0"/>
        <pt x="116" y="193" on="1"/>
        <pt x="128" y="250" on="0"/>
        <pt x="179" y="331" on="0"/>
        <pt x="243" y="381" on="0"/>
        <pt x="310" y="402" on="0"/>
        <pt x="337" y="401" on="1"/>
        <pt x="362" y="399" on="0"/>
        <pt x="412" y="381" on="0"/>
        <pt x="448" y="341" on="0"/>
        <pt x="464" y="273" on="0"/>
        <pt x="456" y="222" on="1"/>
        <pt x="447" y="166" on="0"/>
        <pt x="403" y="78" on="0"/>
        <pt x="339" y="20" on="0"/>
        <pt x="257" y="-4" on="0"/>
      </contour>
    </TTGlyph>
</ttFont>
